0
SECTION
2
HEADER
9
$INSUNITS
70
4
9
$ACADVER
1
AC1014
9
$HANDSEED
5
FFFF
0
ENDSEC
0
SECTION
2
TABLES
0
TABLE
2
VPORT
5
8
100
AcDbSymbolTable
0
ENDTAB
0
TABLE
2
LTYPE
5
5
100
AcDbSymbolTable
0
LTYPE
5
14
100
AcDbSymbolTableRecord
100
AcDbLinetypeTableRecord
2
BYBLOCK
70
0
0
LTYPE
5
15
100
AcDbSymbolTableRecord
100
AcDbLinetypeTableRecord
2
BYLAYER
70
0
0
ENDTAB
0
TABLE
2
LAYER
5
2
100
AcDbSymbolTable
70
2
0
LAYER
5
50
100
AcDbSymbolTableRecord
100
AcDbLayerTableRecord
2
0
70
0
6
CONTINUOUS
0
ENDTAB
0
TABLE
2
STYLE
5
3
100
AcDbSymbolTable
70
1
0
STYLE
5
11
100
AcDbSymbolTableRecord
100
AcDbTextStyleTableRecord
2
STANDARD
70
0
0
ENDTAB
0
TABLE
2
VIEW
5
6
100
AcDbSymbolTable
70
0
0
ENDTAB
0
TABLE
2
UCS
5
7
100
AcDbSymbolTable
70
0
0
ENDTAB
0
TABLE
2
APPID
5
9
100
AcDbSymbolTable
70
2
0
APPID
5
12
100
AcDbSymbolTableRecord
100
AcDbRegAppTableRecord
2
ACAD
70
0
0
ENDTAB
0
TABLE
2
DIMSTYLE
5
A
100
AcDbSymbolTable
70
1
0
ENDTAB
0
TABLE
2
BLOCK_RECORD
5
1
100
AcDbSymbolTable
70
1
0
BLOCK_RECORD
5
1F
100
AcDbSymbolTableRecord
100
AcDbBlockTableRecord
2
*MODEL_SPACE
0
BLOCK_RECORD
5
1B
100
AcDbSymbolTableRecord
100
AcDbBlockTableRecord
2
*PAPER_SPACE
0
ENDTAB
0
ENDSEC
0
SECTION
2
BLOCKS
0
BLOCK
5
20
100
AcDbEntity
100
AcDbBlockBegin
2
*MODEL_SPACE
0
ENDBLK
5
21
100
AcDbEntity
100
AcDbBlockEnd
0
BLOCK
5
1C
100
AcDbEntity
100
AcDbBlockBegin
2
*PAPER_SPACE
0
ENDBLK
5
1D
100
AcDbEntity
100
AcDbBlockEnd
0
ENDSEC
0
SECTION
2
ENTITIES
0
LWPOLYLINE
5
100
100
AcDbEntity
8
OUTER_PROFILES
100
AcDbPolyline
90
20
70
1
43
0.0
10
-0.99999999999999634
20
5.1443930791370605
42
-0.26794952365245878
10
-0.49999892947551666
20
6.010419100988214
42
0.88467115473168456
10
-1.2755173161580968
20
7.8377406178357436
42
-0.26794919243112175
10
-2.2457833639720262
20
8.0797815161557125
10
-11.077881272512434
20
16.610932986328564
42
-0.4192987486523499
10
-11.090241463092116
20
18.037294364191521
10
9.7266580192977035
20
38.854193846581339
42
-0.41421356237309387
10
11.140871581670794
20
38.854193846581332
10
18.026121244835064
20
31.968944183417065
42
-0.19891236737965534
10
18.319014463648521
20
31.261837402230526
10
18.319014463648514
20
4.0490095180315651
10
21.711934529525493
20
4.0490095180315659
10
21.711934529525493
20
11.000000000000005
42
-0.41421356237309509
10
22.711934529525493
20
12.000000000000007
10
46.677860355814566
20
12.000000000000007
42
-0.41421356237309509
10
47.677860355814573
20
11.000000000000005
10
47.677860355814559
20
1.0000000000000049
42
-0.41421356237309481
10
46.677860355814566
20
4.4408920985006262e-15
10
4.8572257327350599e-16
20
4.163336342344337e-15
42
-0.41421356237309515
10
-0.99999999999999645
20
1.0000000000000042
0
LWPOLYLINE
5
101
100
AcDbEntity
8
INTERIOR_PROFILES
100
AcDbPolyline
90
60
70
1
43
0.0
10
33.25383305870448
20
7.4650942325057112
10
33.660419581515256
20
7.4437859357587852
42
0.29621349496211169
10
33.707586705536826
20
7.4710178875095403
10
33.892426440648002
20
7.8337862934735147
42
-0.41421356237308904
10
33.959676291844396
20
7.8556370946959557
10
34.322444697808372
20
7.6707973595847818
42
0.29621349496206056
10
34.376610242347837
20
7.6764903877213495
10
34.693020946406264
20
7.9327147237998528
42
-0.41421356237309093
10
34.763344264031602
20
7.9253234452794974
10
35.019568600110105
20
7.608912741221074
42
0.29621349496207516
10
35.071366850438082
20
7.5920824694591111
10
35.464638238211045
20
7.6974592202191445
42
-0.41421356237309848
10
35.525875481780623
20
7.6621038811598163
10
35.631252232540653
20
7.2688324933868547
42
0.29621349496207638
10
35.671726800603096
20
7.2323890286122241
10
36.073858676386259
20
7.1686975965296504
42
-0.41421356237308965
10
36.115421370164007
20
7.1114914562478813
10
36.051729938081436
20
6.709359580464719
42
0.29621349496207605
10
36.073882403360436
20
6.6596043288154361
10
36.415342512577489
20
6.4378575411158305
42
-0.41421356237311141
10
36.430044089224012
20
6.3686920609678079
10
36.208297301524404
20
6.0272319517507551
42
0.29621349496208083
10
36.208297301524404
20
5.9727680482492529
10
36.430044089224012
20
5.6313079390321992
42
-0.41421356237308055
10
36.415342512577496
20
5.5621424588841792
10
36.073882403360436
20
5.3403956711845719
42
0.29621349496207605
10
36.051729938081436
20
5.2906404195352899
10
36.115421370164007
20
4.8885085437521267
42
-0.41421356237306239
10
36.073858676386266
20
4.8313024034703593
10
35.671726800603096
20
4.7676109713877866
42
0.29621349496207933
10
35.63125223254066
20
4.7311675066131542
10
35.525875481780616
20
4.3378961188401908
42
-0.41421356237305856
10
35.464638238211052
20
4.3025407797808626
10
35.071366850438082
20
4.4079175305408969
42
0.2962134949621138
10
35.019568600110098
20
4.391087258778934
10
34.763344264031602
20
4.0746765547205133
42
-0.41421356237311441
10
34.693020946406257
20
4.067285276200157
10
34.376610242347844
20
4.3235096122786576
42
0.29621349496208549
10
34.322444697808372
20
4.329202640415228
10
33.959676291844396
20
4.144362905304054
42
-0.41421356237310814
10
33.892426440647995
20
4.1662137065264968
10
33.707586705536826
20
4.5289821124904739
42
0.2962134949620604
10
33.660419581515264
20
4.5562140642412254
10
33.25383305870448
20
4.5349057674942985
42
-0.41421356237310836
10
33.201284784154602
20
4.582220446419881
10
33.179976487407679
20
4.9888069692306578
42
0.29621349496209126
10
33.147963408147213
20
5.0328691927433722
10
32.767861272006222
20
5.1787767324480347
42
-0.41421356237309509
10
32.739100648158626
20
5.2433741512501584
10
32.885008187863285
20
5.6234762873911546
42
0.29621349496209048
10
32.873684505597758
20
5.6767500239277471
10
32.585789868584826
20
5.9646446609406789
42
-0.41421356237309964
10
32.585789868584826
20
6.0353553390593326
10
32.873684505597758
20
6.3232499760722636
42
0.29621349496206184
10
32.885008187863292
20
6.3765237126088534
10
32.739100648158626
20
6.7566258487498505
42
-0.41421356237310347
10
32.767861272006222
20
6.8212232675519768
10
33.14796340814722
20
6.9671308072566385
42
0.29621349496205446
10
33.179976487407679
20
7.0111930307693493
10
33.201284784154609
20
7.4177795535801305
42
-0.4142135623731073
0
CIRCLE
5
102
100
AcDbEntity
8
INTERIOR_PROFILES
100
AcDbCircle
10
-12.429748600249093
20
32.647738984582247
30
0
40
1.0499999999999998
210
0
220
0
230
-1
0
CIRCLE
5
103
100
AcDbEntity
8
INTERIOR_PROFILES
100
AcDbCircle
10
4.2579714357534204
20
15.960018948579716
30
0
40
1.0499999999999998
210
0
220
0
230
-1
0
LWPOLYLINE
5
104
100
AcDbEntity
8
INTERIOR_PROFILES
100
AcDbPolyline
90
4
70
1
43
0.0
10
-6.0610937277791166
20
20.238014974758329
10
8.0810418959518238
20
34.380150598489287
10
14.162160214156136
20
28.299032280284983
10
0.020024590425187228
20
14.156896656554022
0
LINE
5
105
100
AcDbEntity
8
BEND
100
AcDbLine
10
20.015474496587004
20
0
30
-2.1268242594821646e-15
11
20.015474496587004
21
4.0490095180315651
31
-2.1268242594821646e-15
0
LINE
5
106
100
AcDbEntity
8
BEND
100
AcDbLine
10
-1.0000000000000053
20
5.4627262121469737
30
-5.0006810812266152e-15
11
18.319014463648521
21
5.4627262121469737
31
-2.4577301116512103e-15
0
LINE
5
107
100
AcDbEntity
8
BEND_EXTENT
100
AcDbLine
10
-0.99999999999999645
20
6.8764429062623789
30
-7.776238642789505e-15
11
18.319014463648521
21
6.8764429062623815
31
-4.9103169626566589e-15
0
LINE
5
108
100
AcDbEntity
8
BEND_EXTENT
100
AcDbLine
10
21.711934529525493
20
4.0490095180315651
30
-2.1188891178705624e-15
11
21.711934529525493
21
4.4408920985006262e-15
31
-2.1188891178705624e-15
0
LINE
5
109
100
AcDbEntity
8
BEND_EXTENT
100
AcDbLine
10
18.319014463648514
20
4.0490095180315651
30
-2.1347594010937672e-15
11
-0.99999999999999645
21
4.0490095180315651
31
-2.2251235196637231e-15
0
LINE
5
110
100
AcDbEntity
8
BEND_EXTENT
100
AcDbLine
10
18.319014463648514
20
0
30
-2.1347594010937672e-15
11
18.319014463648514
21
4.0490095180315651
31
-2.1347594010937672e-15
0
ENDSEC
0
SECTION
2
OBJECTS
0
DICTIONARY
5
C
100
AcDbDictionary
3
ACAD_GROUP
350
D
3
ACAD_MLINESTYLE
350
17
0
DICTIONARY
5
D
100
AcDbDictionary
0
DICTIONARY
5
1A
330
C
100
AcDbDictionary
0
DICTIONARY
5
17
100
AcDbDictionary
0
ENDSEC
0
EOF
