0
SECTION
2
HEADER
9
$INSUNITS
70
4
9
$ACADVER
1
AC1014
9
$HANDSEED
5
FFFF
0
ENDSEC
0
SECTION
2
TABLES
0
TABLE
2
VPORT
5
8
100
AcDbSymbolTable
0
ENDTAB
0
TABLE
2
LTYPE
5
5
100
AcDbSymbolTable
0
LTYPE
5
14
100
AcDbSymbolTableRecord
100
AcDbLinetypeTableRecord
2
BYBLOCK
70
0
0
LTYPE
5
15
100
AcDbSymbolTableRecord
100
AcDbLinetypeTableRecord
2
BYLAYER
70
0
0
ENDTAB
0
TABLE
2
LAYER
5
2
100
AcDbSymbolTable
70
2
0
LAYER
5
50
100
AcDbSymbolTableRecord
100
AcDbLayerTableRecord
2
0
70
0
6
CONTINUOUS
0
ENDTAB
0
TABLE
2
STYLE
5
3
100
AcDbSymbolTable
70
1
0
STYLE
5
11
100
AcDbSymbolTableRecord
100
AcDbTextStyleTableRecord
2
STANDARD
70
0
0
ENDTAB
0
TABLE
2
VIEW
5
6
100
AcDbSymbolTable
70
0
0
ENDTAB
0
TABLE
2
UCS
5
7
100
AcDbSymbolTable
70
0
0
ENDTAB
0
TABLE
2
APPID
5
9
100
AcDbSymbolTable
70
2
0
APPID
5
12
100
AcDbSymbolTableRecord
100
AcDbRegAppTableRecord
2
ACAD
70
0
0
ENDTAB
0
TABLE
2
DIMSTYLE
5
A
100
AcDbSymbolTable
70
1
0
ENDTAB
0
TABLE
2
BLOCK_RECORD
5
1
100
AcDbSymbolTable
70
1
0
BLOCK_RECORD
5
1F
100
AcDbSymbolTableRecord
100
AcDbBlockTableRecord
2
*MODEL_SPACE
0
BLOCK_RECORD
5
1B
100
AcDbSymbolTableRecord
100
AcDbBlockTableRecord
2
*PAPER_SPACE
0
ENDTAB
0
ENDSEC
0
SECTION
2
BLOCKS
0
BLOCK
5
20
100
AcDbEntity
100
AcDbBlockBegin
2
*MODEL_SPACE
0
ENDBLK
5
21
100
AcDbEntity
100
AcDbBlockEnd
0
BLOCK
5
1C
100
AcDbEntity
100
AcDbBlockBegin
2
*PAPER_SPACE
0
ENDBLK
5
1D
100
AcDbEntity
100
AcDbBlockEnd
0
ENDSEC
0
SECTION
2
ENTITIES
0
ARC
5
100
100
AcDbEntity
8
OUTER_PROFILES
100
AcDbCircle
10
-2.2160051571518125e-12
20
6.297619047399202
30
0
40
5.0654761508714312
210
0
220
0
230
-1
100
AcDbArc
50
81.753792513924623
51
83.175931979581392
0
ARC
5
101
100
AcDbEntity
8
OUTER_PROFILES
100
AcDbCircle
10
0.75637312924884181
20
11.516666364233005
30
0
40
0.20809523918324113
210
0
220
-0
230
-1
100
AcDbArc
50
261.75379251392513
51
341.31037785334541
0
ARC
5
102
100
AcDbEntity
8
OUTER_PROFILES
100
AcDbCircle
10
3.1322123281705139
20
10.712968766078372
30
0
40
2.2999999999199945
210
0
220
0
230
-1
100
AcDbArc
50
136.58407540169176
51
161.31037785334627
0
SPLINE
5
103
100
AcDbEntity
8
OUTER_PROFILES
100
AcDbSpline
70
0
71
3
72
11
73
7
74
0
42
0.000000001
43
0.0000000001
44
0.0000000001
40
0.00019249610590086962
40
0.00019249610590086962
40
0.00019249610590086962
40
0.00019249610590086962
40
0.00024322290490327305
40
0.00024322290490327305
40
0.00024322290490327305
40
0.000276938489774473
40
0.000276938489774473
40
0.000276938489774473
40
0.000276938489774473
10
-1.4615298732137383
20
12.293734445846109
30
0
10
-1.4744022137715307
20
12.307338988125629
30
0
10
-1.4872903760668965
20
12.320618085540545
30
0
10
-1.499588826770073
20
12.333012130397734
30
0
10
-1.5077629963731587
20
12.341249836689043
30
0
10
-1.5157349896731898
20
12.34915579627762
30
0
10
-1.5231256131280269
20
12.356392005267153
30
0
0
SPLINE
5
104
100
AcDbEntity
8
OUTER_PROFILES
100
AcDbSpline
70
0
71
3
72
14
73
10
74
0
42
0.000000001
43
0.0000000001
44
0.0000000001
40
-0.013307470997568533
40
-0.013307470997568533
40
-0.013307470997568533
40
-0.013307470997568533
40
-0.011815318192247123
40
-0.011815318192247123
40
-0.0065718704844165352
40
-0.0065718704844165352
40
0
40
0
40
0.00020567783449089086
40
0.00020567783449089086
40
0.00020567783449089086
40
0.00020567783449089086
10
-1.5231256131280224
20
12.356392005267153
30
0
10
-1.5263722951960856
20
12.359571891540169
30
0
10
-1.529757961170306
20
12.362468940334523
30
0
10
-1.5454360139610923
20
12.374303647047702
30
0
10
-1.5587965469159704
20
12.380196917009602
30
0
10
-1.5886719048529407
20
12.387236340020847
30
0
10
-1.6055309344070023
20
12.386909933944386
30
0
10
-1.6217465377496731
20
12.382838692198778
30
0
10
-1.6222377092498519
20
12.382711547785
30
0
10
-1.6227279190722976
20
12.382580819409885
30
0
0
ARC
5
105
100
AcDbEntity
8
OUTER_PROFILES
100
AcDbCircle
10
-2.2160051571518125e-12
20
6.297619047399202
30
0
40
6.2976190474000013
210
0
220
0
230
-1
100
AcDbArc
50
72.718912601861661
51
75.067954748787656
0
SPLINE
5
106
100
AcDbEntity
8
OUTER_PROFILES
100
AcDbSpline
70
0
71
3
72
14
73
10
74
0
42
0.000000001
43
0.0000000001
44
0.0000000001
40
0.055641293275825246
40
0.055641293275825246
40
0.055641293275825246
40
0.055641293275825246
40
0.057133446081414622
40
0.057133446081414622
40
0.062376893788400473
40
0.062376893788400473
40
0.068948764271755295
40
0.068948764271755295
40
0.069154442106227704
40
0.069154442106227704
40
0.069154442106227704
40
0.069154442106227704
10
-1.9410789937551476
20
12.235704069383107
30
0
10
-1.9400271728599838
20
12.240125188469895
30
0
10
-1.938706989475607
20
12.244381095147839
30
0
10
-1.9317509732705007
20
12.262751600337138
30
0
10
-1.9235885404271436
20
12.274859827365072
30
0
10
-1.9020643730774589
20
12.29674134257985
30
0
10
-1.8876264396514486
20
12.305452226393728
30
0
10
-1.8717366301263372
20
12.310651721981964
30
0
10
-1.8712532872616849
20
12.31080597767793
30
0
10
-1.870768847541604
20
12.310956688446382
30
0
0
SPLINE
5
107
100
AcDbEntity
8
OUTER_PROFILES
100
AcDbSpline
70
0
71
3
72
11
73
7
74
0
42
0.000000001
43
0.0000000001
44
0.0000000001
40
0.00019249610590086935
40
0.00019249610590086935
40
0.00019249610590086935
40
0.00019249610590086935
40
0.00024322290490327286
40
0.00024322290490327286
40
0.00024322290490327286
40
0.00027693848977178634
40
0.00027693848977178634
40
0.00027693848977178634
40
0.00027693848977178634
10
-1.9597924845380232
20
12.149856470755703
30
0
10
-1.9561537467284928
20
12.168228740871976
30
0
10
-1.9523281376414925
20
12.186334095621859
30
0
10
-1.9485296712750833
20
12.203376275379272
30
0
10
-1.9460050192634171
20
12.214703366172605
30
0
10
-1.9434745784737917
20
12.225642001537018
30
0
10
-1.9410789937432948
20
12.235704069382425
30
0
0
ARC
5
108
100
AcDbEntity
8
OUTER_PROFILES
100
AcDbCircle
10
-0.29638260099607905
20
11.703007521951754
30
0
40
2.2999999999200047
210
-0
220
0
230
-1
100
AcDbArc
50
-13.523510502696753
51
11.202791948957438
0
ARC
5
109
100
AcDbEntity
8
OUTER_PROFILES
100
AcDbCircle
10
2.1421733088341099
20
11.116503640426139
30
0
40
0.20809523918323847
210
0
220
0
230
-1
100
AcDbArc
50
166.47648949730294
51
246.03307483673015
0
ARC
5
110
100
AcDbEntity
8
OUTER_PROFILES
100
AcDbCircle
10
-2.2160051571518125e-12
20
6.297619047399202
30
0
40
5.065476150871433
210
0
220
0
230
-1
100
AcDbArc
50
64.610935371067427
51
66.03307483672441
0
ARC
5
111
100
AcDbEntity
8
OUTER_PROFILES
100
AcDbCircle
10
2.2611107954695697
20
11.061853841844588
30
0
40
0.20809523918323575
210
0
220
-0
230
-1
100
AcDbArc
50
244.61093537106902
51
324.16752071048813
0
ARC
5
112
100
AcDbEntity
8
OUTER_PROFILES
100
AcDbCircle
10
4.294504099162153
20
9.5935713755219645
30
0
40
2.2999999999199909
210
0
220
0
230
-1
100
AcDbArc
50
119.44121825883457
51
144.16752071048916
0
SPLINE
5
113
100
AcDbEntity
8
OUTER_PROFILES
100
AcDbSpline
70
0
71
3
72
11
73
7
74
0
42
0.000000001
43
0.0000000001
44
0.0000000001
40
0.00019249610590087052
40
0.00019249610590087052
40
0.00019249610590087052
40
0.00019249610590087052
40
0.00024322290490327414
40
0.00024322290490327414
40
0.00024322290490327414
40
0.00027693848977447413
40
0.00027693848977447413
40
0.00027693848977447413
40
0.00027693848977447413
10
-3.1639842417441422
20
11.596550369824081
30
0
10
-3.180294709560445
20
11.605756311475197
30
0
10
-3.1965243696409296
20
11.614646603325241
30
0
10
-3.211929643539726
20
11.622864983562465
30
0
10
-3.2221687642769625
20
11.628327332889469
30
0
10
-3.2321169067797895
20
11.633532266600405
30
0
10
-3.2413120956138242
20
11.638268566622351
30
0
0
SPLINE
5
114
100
AcDbEntity
8
OUTER_PROFILES
100
AcDbSpline
70
0
71
3
72
14
73
10
74
0
42
0.000000001
43
0.0000000001
44
0.0000000001
40
-0.013307470997612021
40
-0.013307470997612021
40
-0.013307470997612021
40
-0.013307470997612021
40
-0.011815318192284513
40
-0.011815318192284513
40
-0.0065718704844349397
40
-0.0065718704844349397
40
0
40
0
40
0.00020567783450013938
40
0.00020567783450013938
40
0.00020567783450013938
40
0.00020567783450013938
10
-3.2413120956138242
20
11.638268566622354
30
0
10
-3.2453518246401059
20
11.640350203131112
30
0
10
-3.2494409950972036
20
11.642120601611303
30
0
10
-3.2679108570331072
20
11.648808338326102
30
0
10
-3.2824148908110651
20
11.650501700617511
30
0
10
-3.3130378767761703
20
11.648422465476182
30
0
10
-3.3290516970701267
20
11.643141274509174
30
0
10
-3.3433468670828015
20
11.634471273619988
30
0
10
-3.3437787407375463
20
11.634205002534532
30
0
10
-3.3442086390480252
20
11.633935590172602
30
0
0
ARC
5
115
100
AcDbEntity
8
OUTER_PROFILES
100
AcDbCircle
10
-2.2160051571518125e-12
20
6.297619047399202
30
0
40
6.2976190474000031
210
0
220
0
230
-1
100
AcDbArc
50
55.576055459004507
51
57.925097605930439
0
SPLINE
5
116
100
AcDbEntity
8
OUTER_PROFILES
100
AcDbSpline
70
0
71
3
72
14
73
10
74
0
42
0.000000001
43
0.0000000001
44
0.0000000001
40
0.055641293266708608
40
0.055641293266708608
40
0.055641293266708608
40
0.055641293266708608
40
0.057133446071778379
40
0.057133446071778379
40
0.062376893776547947
40
0.062376893776547947
40
0.068948764257118308
40
0.068948764257118308
40
0.069154442091475338
40
0.069154442091475338
40
0.069154442091475338
40
0.069154442091475338
10
-3.605123586636636
20
11.399748535501741
30
0
10
-3.6054216429202413
20
11.404283266323972
30
0
10
-3.605414562094631
20
11.408739225893436
30
0
10
-3.604182383633483
20
11.428343902850955
30
0
10
-3.5999515473487298
20
11.442320114641497
30
0
10
-3.5858333281956822
20
11.469573855231321
30
0
10
-3.574604409720048
20
11.482153394503218
30
0
10
-3.5609531180775189
20
11.491805494669176
30
0
10
-3.5605367164447088
20
11.492095365027787
30
0
10
-3.5601182218010585
20
11.492382171253803
30
0
0
SPLINE
5
117
100
AcDbEntity
8
OUTER_PROFILES
100
AcDbSpline
70
0
71
3
72
11
73
7
74
0
42
0.000000001
43
0.0000000001
44
0.0000000001
40
0.00019249610590087006
40
0.00019249610590087006
40
0.00019249610590087006
40
0.00019249610590087006
40
0.00024322290490327319
40
0.00024322290490327319
40
0.00024322290490327319
40
0.00027693848977122202
40
0.00027693848977122202
40
0.00027693848977122202
40
0.00027693848977122202
10
-3.5977016656239647
20
11.31219900657279
30
0
10
-3.599639908408232
20
11.330827585074154
30
0
10
-3.6013209073962038
20
11.349256187785908
30
0
10
-3.6027144668995081
20
11.366660848929735
30
0
10
-3.6036406967154244
20
11.378228863104347
30
0
10
-3.6044468956851849
20
11.389427386107565
30
0
10
-3.6051235866226872
20
11.39974853550518
30
0
0
ARC
5
118
100
AcDbEntity
8
OUTER_PROFILES
100
AcDbCircle
10
1.3100510689553202
20
11.550221583639754
30
0
40
2.2999999999200034
210
-0
220
0
230
-1
100
AcDbArc
50
329.33363235444591
51
354.05993480610039
0
ARC
5
119
100
AcDbEntity
8
OUTER_PROFILES
100
AcDbCircle
10
3.4673937278863676
20
10.27099745145312
30
0
40
0.20809523918323578
210
0
220
0
230
-1
100
AcDbArc
50
149.33363235444628
51
228.89021769386792
0
ARC
5
120
100
AcDbEntity
8
OUTER_PROFILES
100
AcDbCircle
10
-2.2160051571518125e-12
20
6.297619047399202
30
0
40
5.0654761508714312
210
0
220
0
230
-1
100
AcDbArc
50
47.468078228210281
51
48.890217693867456
0
ARC
5
121
100
AcDbEntity
8
OUTER_PROFILES
100
AcDbCircle
10
3.5649388447913433
20
10.183718150469669
30
0
40
0.20809523918323747
210
0
220
-0
230
-1
100
AcDbArc
50
227.46807822821089
51
307.02466356763125
0
ARC
5
122
100
AcDbEntity
8
OUTER_PROFILES
100
AcDbCircle
10
5.0752103348222244
20
8.181314156563273
30
0
40
2.2999999999200131
210
0
220
0
230
-1
100
AcDbArc
50
102.29836111597753
51
127.02466356763179
0
SPLINE
5
123
100
AcDbEntity
8
OUTER_PROFILES
100
AcDbSpline
70
0
71
3
72
11
73
7
74
0
42
0.000000001
43
0.0000000001
44
0.0000000001
40
0.00019249610590086984
40
0.00019249610590086984
40
0.00019249610590086984
40
0.00019249610590086984
40
0.00024322290490327297
40
0.00024322290490327297
40
0.00024322290490327297
40
0.00027693848977447332
40
0.00027693848977447332
40
0.00027693848977447332
40
0.00027693848977447332
10
-4.5853047254792356
20
10.428532991827504
30
0
10
-4.603604063911142
20
10.432522344535062
30
0
10
-4.621733145256024
20
10.436233889374796
30
0
10
-4.6388764161596008
20
10.439546365842212
30
0
10
-4.6502706972198382
20
10.441748004496084
30
0
10
-4.6613110528073953
20
10.443789431127685
30
0
10
-4.6714937741402984
20
10.445604981140189
30
0
0
SPLINE
5
124
100
AcDbEntity
8
OUTER_PROFILES
100
AcDbSpline
70
0
71
3
72
14
73
10
74
0
42
0.000000001
43
0.0000000001
44
0.0000000001
40
-0.013307470997557358
40
-0.013307470997557358
40
-0.013307470997557358
40
-0.013307470997557358
40
-0.011815318192231684
40
-0.011815318192231684
40
-0.0065718704843996329
40
-0.0065718704843996329
40
0
40
0
40
0.00020567783448440083
40
0.00020567783448440083
40
0.00020567783448440083
40
0.00020567783448440083
10
-4.6714937741402984
20
10.445604981140191
30
0
10
-4.6759676024727614
20
10.446403405345777
30
0
10
-4.6803969366726106
20
10.446889845837578
30
0
10
-4.7000174794669736
20
10.447836377798227
30
0
10
-4.7143762670169487
20
10.445179369748354
30
0
10
-4.7430258943204251
20
10.434166225621336
30
0
10
-4.7567716071453781
20
10.424399506757496
30
0
10
-4.7678761552394322
20
10.411901114351227
30
0
10
-4.7682103571792567
20
10.411519375948522
30
0
10
-4.7685417456262469
20
10.411135218070466
30
0
0
ARC
5
125
100
AcDbEntity
8
OUTER_PROFILES
100
AcDbCircle
10
-2.2160051571518125e-12
20
6.297619047399202
30
0
40
6.2976190474000013
210
0
220
0
230
-1
100
AcDbArc
50
38.433198316147326
51
40.782240463073222
0
SPLINE
5
126
100
AcDbEntity
8
OUTER_PROFILES
100
AcDbSpline
70
0
71
3
72
14
73
10
74
0
42
0.000000001
43
0.0000000001
44
0.0000000001
40
0.055641293284977397
40
0.055641293284977397
40
0.055641293284977397
40
0.055641293284977397
40
0.057133446091671758
40
0.057133446091671758
40
0.062376893801031931
40
0.062376893801031931
40
0.068948764287374925
40
0.068948764287374925
40
0.06915444212192795
40
0.06915444212192795
40
0.06915444212192795
40
0.06915444212192795
10
-4.9488371280197052
20
10.110446406274214
30
0
10
-4.9504585778738042
20
10.114691818098535
30
0
10
-4.9517652287698155
20
10.1189518989977
30
0
10
-4.9563663725165696
20
10.138048786142647
30
0
10
-4.9564430611610577
20
10.152651134944609
30
0
10
-4.950985255933178
20
10.182855486457072
30
0
10
-4.9439630910913923
20
10.198185933918564
30
0
10
-4.933763294501925
20
10.21143300720472
30
0
10
-4.9334508332134996
20
10.211832735972433
30
0
10
-4.9331354687318019
20
10.212230153664255
30
0
0
SPLINE
5
127
100
AcDbEntity
8
OUTER_PROFILES
100
AcDbSpline
70
0
71
3
72
11
73
7
74
0
42
0.000000001
43
0.0000000001
44
0.0000000001
40
0.00019249610590087017
40
0.00019249610590087017
40
0.00019249610590087017
40
0.00019249610590087017
40
0.00024322290490327378
40
0.00024322290490327378
40
0.00024322290490327378
40
0.00027693848976954161
40
0.00027693848976954161
40
0.00027693848976954161
40
0.00027693848976954161
10
-4.9159392654653011
20
10.028974106895612
30
0
10
-4.9232822674661492
20
10.046203762832032
30
0
10
-4.9303205103920611
20
10.063318151282147
30
0
10
-4.936782271887683
20
10.079538813290663
30
0
10
-4.9410770839470963
20
10.090319882021404
30
0
10
-4.9451482883607767
20
10.100783254750866
30
0
10
-4.9488371280010357
20
10.110446406285424
30
0
0
ARC
5
128
100
AcDbEntity
8
OUTER_PROFILES
100
AcDbCircle
10
2.8000809523654091
20
10.930718859316215
30
0
40
2.2999999999200038
210
-0
220
0
230
-1
100
AcDbArc
50
312.1907752115888
51
336.91707766324322
0
ARC
5
129
100
AcDbEntity
8
OUTER_PROFILES
100
AcDbCircle
10
4.4845209978089784
20
9.0724391543959833
30
0
40
0.20809523918323974
210
0
220
0
230
-1
100
AcDbArc
50
132.1907752115888
51
211.7473605510053
0
ARC
5
130
100
AcDbEntity
8
OUTER_PROFILES
100
AcDbCircle
10
-2.2160051571518125e-12
20
6.297619047399202
30
0
40
5.0654761508714312
210
0
220
0
230
-1
100
AcDbArc
50
30.325221085353089
51
31.747360551010487
0
ARC
5
131
100
AcDbEntity
8
OUTER_PROFILES
100
AcDbCircle
10
4.5520064332767651
20
8.9602854999219179
30
0
40
0.20809523918323852
210
0
220
-0
230
-1
100
AcDbArc
50
210.32522108535341
51
289.8818064247742
0
ARC
5
132
100
AcDbEntity
8
OUTER_PROFILES
100
AcDbCircle
10
5.4049618600394123
20
6.6016823606955484
30
0
40
2.2999999999200034
210
0
220
0
230
-1
100
AcDbArc
50
85.155503973120247
51
109.88180642477458
0
SPLINE
5
133
100
AcDbEntity
8
OUTER_PROFILES
100
AcDbSpline
70
0
71
3
72
11
73
7
74
0
42
0.000000001
43
0.0000000001
44
0.0000000001
40
0.00019249610590086903
40
0.00019249610590086903
40
0.00019249610590086903
40
0.00019249610590086903
40
0.00024322290490327159
40
0.00024322290490327159
40
0.00024322290490327159
40
0.00027693848977447164
40
0.00027693848977447164
40
0.00027693848977447164
40
0.00027693848977447164
10
-5.5992007620769524
20
8.8934657816512193
30
0
10
-5.6178629945994274
20
8.8918840739201386
30
0
10
-5.6362806487730799
20
8.8900870847027331
30
0
10
-5.6536386618296497
20
8.8881993293296464
30
0
10
-5.6651756713377033
20
8.8869446320542558
30
0
10
-5.6763272559662292
20
8.8856411618916553
30
0
10
-5.6865927303214336
20
8.8843746423086891
30
0
0
SPLINE
5
134
100
AcDbEntity
8
OUTER_PROFILES
100
AcDbSpline
70
0
71
3
72
14
73
10
74
0
42
0.000000001
43
0.0000000001
44
0.0000000001
40
-0.013307470997624991
40
-0.013307470997624991
40
-0.013307470997624991
40
-0.013307470997624991
40
-0.011815318192297112
40
-0.011815318192297112
40
-0.0065718704844439863
40
-0.0065718704844439863
40
0
40
0
40
0.00020567783450459764
40
0.00020567783450459764
40
0.00020567783450459764
40
0.00020567783450459764
10
-5.6865927303214336
20
8.8843746423086927
30
0
10
-5.6911031386796562
20
8.8838189107166148
30
0
10
-5.6954790708407588
20
8.882978170847613
30
0
10
-5.714506923162963
20
8.878099394535635
30
0
10
-5.7274446231986209
20
8.8713281029697999
30
0
10
-5.7515752467277803
20
8.8523596160431683
30
0
10
-5.7618314851774111
20
8.8389751851138207
30
0
10
-5.7687587235230042
20
8.8237589382042607
30
0
10
-5.7689655584388255
20
8.8232956516167409
30
0
10
-5.7691689917045963
20
8.8228308823358077
30
0
0
ARC
5
135
100
AcDbEntity
8
OUTER_PROFILES
100
AcDbCircle
10
-2.2160051571518125e-12
20
6.297619047399202
30
0
40
6.2976190474000013
210
0
220
0
230
-1
100
AcDbArc
50
21.290341173290145
51
23.639383320216087
0
SPLINE
5
136
100
AcDbEntity
8
OUTER_PROFILES
100
AcDbSpline
70
0
71
3
72
14
73
10
74
0
42
0.000000001
43
0.0000000001
44
0.0000000001
40
0.05564129330966832
40
0.05564129330966832
40
0.05564129330966832
40
0.05564129330966832
40
0.057133446117778569
40
0.057133446117778569
40
0.062376893833097094
40
0.062376893833097094
40
0.068948764326882087
40
0.068948764326882087
40
0.069154442161683705
40
0.069154442161683705
40
0.069154442161683705
40
0.069154442161683705
10
-5.8528247729657767
20
8.4823578338983232
30
0
10
-5.855625543454388
20
8.4859367032518342
30
0
10
-5.8581298244051849
20
8.4896223785960956
30
0
10
-5.8681554585457985
20
8.5065146336987141
30
0
10
-5.8725328579969105
20
8.5204456367396961
30
0
10
-5.876220416639879
20
8.5509168099931916
30
0
10
-5.8740289555945946
20
8.5676359881106769
30
0
10
-5.8681869507461526
20
8.5833009739216664
30
0
10
-5.8680061933586636
20
8.5837750434434845
30
0
10
-5.8678219805570953
20
8.5842477602951721
30
0
0
SPLINE
5
137
100
AcDbEntity
8
OUTER_PROFILES
100
AcDbSpline
70
0
71
3
72
11
73
7
74
0
42
0.000000001
43
0.0000000001
44
0.0000000001
40
0.00019249610590086832
40
0.00019249610590086832
40
0.00019249610590086832
40
0.00019249610590086832
40
0.00024322290490327145
40
0.00024322290490327145
40
0.00024322290490327145
40
0.00027693848977101813
40
0.00027693848977101813
40
0.00027693848977101813
40
0.00027693848977101813
10
-5.7973740883257152
20
8.4142019354002038
30
0
10
-5.8094693915911311
20
8.4285017382306329
30
0
10
-5.8212394996842143
20
8.4427812239000524
30
0
10
-5.832195307306276
20
8.4563766097705955
30
0
10
-5.8394770887105985
20
8.4654127877897611
30
0
10
-5.8464515541877793
20
8.4742112936596588
30
0
10
-5.8528247729555982
20
8.4823578339096883
30
0
0
ARC
5
138
100
AcDbEntity
8
OUTER_PROFILES
100
AcDbCircle
10
4.0413113552047752
20
9.8995448846802105
30
0
40
2.2999999999200034
210
-0
220
0
230
-1
100
AcDbArc
50
295.04791806873152
51
319.774220520386
0
ARC
5
139
100
AcDbEntity
8
OUTER_PROFILES
100
AcDbCircle
10
5.103178897079812
20
7.6273259137347127
30
0
40
0.20809523918323886
210
0
220
0
230
-1
100
AcDbArc
50
115.04791806873268
51
194.60450340815325
0
ARC
5
140
100
AcDbEntity
8
OUTER_PROFILES
100
AcDbCircle
10
-2.2160051571518125e-12
20
6.297619047399202
30
0
40
5.0654761508714321
210
0
220
0
230
-1
100
AcDbArc
50
13.182363942495902
51
14.604503408153116
0
ARC
5
141
100
AcDbEntity
8
OUTER_PROFILES
100
AcDbCircle
10
5.1346082740141386
20
7.500263250148258
30
0
40
0.20809523918323586
210
0
220
-0
230
-1
100
AcDbArc
50
193.18236394249709
51
272.73894928191606
0
ARC
5
142
100
AcDbEntity
8
OUTER_PROFILES
100
AcDbCircle
10
5.2544588047074692
20
4.995033205081568
30
0
40
2.2999999999199936
210
0
220
0
230
-1
100
AcDbArc
50
68.012646830263108
51
92.738949281917712
0
SPLINE
5
143
100
AcDbEntity
8
OUTER_PROFILES
100
AcDbSpline
70
0
71
3
72
11
73
7
74
0
42
0.000000001
43
0.0000000001
44
0.0000000001
40
0.00019249610590086865
40
0.00019249610590086865
40
0.00019249610590086865
40
0.00019249610590086865
40
0.00024322290490327194
40
0.00024322290490327194
40
0.00024322290490327194
40
0.00027693848977447121
40
0.00027693848977447121
40
0.00027693848977447121
40
0.00027693848977447121
10
-6.1155832392760967
20
7.1277461974508753
30
0
10
-6.132950144631768
20
7.1207339709542996
30
0
10
-6.1500198822362284
20
7.1135881180576561
30
0
10
-6.1660503018113255
20
7.1066678661932414
30
0
10
-6.1767049258430751
20
7.1020683183476594
30
0
10
-6.1869768722803986
20
7.0975357704349857
30
0
10
-6.1964129672121526
20
7.0932997170795264
30
0
0
SPLINE
5
144
100
AcDbEntity
8
OUTER_PROFILES
100
AcDbSpline
70
0
71
3
72
14
73
10
74
0
42
0.000000001
43
0.0000000001
44
0.0000000001
40
-0.013307470997764401
40
-0.013307470997764401
40
-0.013307470997764401
40
-0.013307470997764401
40
-0.011815318192416845
40
-0.011815318192416845
40
-0.0065718704845116587
40
-0.0065718704845116587
40
0
40
0
40
0.0002056778345191752
40
0.0002056778345191752
40
0.0002056778345191752
40
0.0002056778345191752
10
-6.1964129672121571
20
7.09329971707953
30
0
10
-6.2005591860199294
20
7.091439208880522
30
0
10
-6.2044928953663359
20
7.0893459920776003
30
0
10
-6.2212373490352091
20
7.0790754081784506
30
0
10
-6.2316043901322304
20
7.0687914920675947
30
0
10
-6.2490718980909943
20
7.0435530956465797
30
0
10
-6.2549273503701741
20
7.027740218076044
30
0
10
-6.2570617634406345
20
7.0111581469770208
30
0
10
-6.2571228531425804
20
7.0106544772510109
30
0
10
-6.257180255288679
20
7.0101503933574181
30
0
0
ARC
5
145
100
AcDbEntity
8
OUTER_PROFILES
100
AcDbCircle
10
-2.2160051571518125e-12
20
6.297619047399202
30
0
40
6.2976190474000013
210
-0
220
0
230
-1
100
AcDbArc
50
-89.999999999979792
51
6.4965261773589162
0
LINE
5
146
100
AcDbEntity
8
OUTER_PROFILES
100
AcDbLine
10
-2.7755575615628914e-15
20
-7.9936057773011271e-13
30
0
11
28.259667575333527
21
-8.3266726846886741e-16
31
0
0
ARC
5
147
100
AcDbEntity
8
OUTER_PROFILES
100
AcDbCircle
10
-28.259667575333523
20
1.0000000000000007
30
0
40
0.99999999999999989
210
0
220
0
230
-1
100
AcDbArc
50
106.4093960904968
51
269.99999999999983
0
LINE
5
148
100
AcDbEntity
8
OUTER_PROFILES
100
AcDbLine
10
28.542166348883271
20
1.959267659698215
30
0
11
6.417128636538334
21
8.4749632064924132
31
0
0
ARC
5
149
100
AcDbEntity
8
OUTER_PROFILES
100
AcDbCircle
10
5.4124226115750718
20
6.4060103788439609
30
0
40
2.2999999999200011
210
0
220
-0
230
1
100
AcDbArc
50
64.098285482249864
51
107.80922478841082
0
ARC
5
150
100
AcDbEntity
8
OUTER_PROFILES
100
AcDbCircle
10
-4.6453252024988956
20
8.7939181018100214
30
0
40
0.20809523918323736
210
0
220
-0
230
-1
100
AcDbArc
50
252.19077521158732
51
331.74736055101312
0
ARC
5
151
100
AcDbEntity
8
OUTER_PROFILES
100
AcDbCircle
10
-2.2160051571518125e-12
20
6.297619047399202
30
0
40
5.0654761508714321
210
0
220
0
230
-1
100
AcDbArc
50
150.32522108535338
51
151.7473605510105
0
ARC
5
152
100
AcDbEntity
8
OUTER_PROFILES
100
AcDbCircle
10
-4.5819400063309867
20
8.9084390305476138
30
0
40
0.20809523918323999
210
-0
220
0
230
-1
100
AcDbArc
50
-29.674778914645746
51
49.881806424774901
0
ARC
5
153
100
AcDbEntity
8
OUTER_PROFILES
100
AcDbCircle
10
-2.9658074836965476
20
10.826421668033069
30
0
40
2.2999999999200167
210
0
220
-0
230
-1
100
AcDbArc
50
205.1555039731206
51
229.88180642477479
0
SPLINE
5
154
100
AcDbEntity
8
OUTER_PROFILES
100
AcDbSpline
70
0
71
3
72
11
73
7
74
0
42
0.000000001
43
0.0000000001
44
0.0000000001
40
0.00019249610590087006
40
0.00019249610590087006
40
0.00019249610590087006
40
0.00019249610590087006
40
0.00024322290490327308
40
0.00024322290490327308
40
0.00024322290490327308
40
0.000276938489774473
40
0.000276938489774473
40
0.000276938489774473
40
0.000276938489774473
10
5.0476695972349361
20
9.8487457811229167
30
0
10
5.0556309144197531
20
9.8656986024443061
30
0
10
5.063283503193925
20
9.8825472534454608
30
0
10
5.0703276656129859
20
9.8985236113982129
30
0
10
5.0750095706524734
20
9.9091423033535868
30
0
10
5.0794565246928425
20
9.9194515940156425
30
0
10
5.0834924237372059
20
9.9289750153806295
30
0
0
SPLINE
5
155
100
AcDbEntity
8
OUTER_PROFILES
100
AcDbSpline
70
0
71
3
72
14
73
10
74
0
42
0.000000001
43
0.0000000001
44
0.0000000001
40
-0.013307470997520785
40
-0.013307470997520785
40
-0.013307470997520785
40
-0.013307470997520785
40
-0.011815318192201479
40
-0.011815318192201479
40
-0.0065718704843877795
40
-0.0065718704843877795
40
0
40
0
40
0.00020567783448060428
40
0.00020567783448060428
40
0.00020567783448060428
40
0.00020567783448060428
10
5.0834924237372103
20
9.928975015380626
30
0
10
5.0852663502399009
20
9.933159009396336
30
0
10
5.0867262142359237
20
9.9373690477475982
30
0
10
5.0920149961714634
20
9.9562870393940823
30
0
10
5.0926197356768466
20
9.9708770620744307
30
0
10
5.0882578558916025
20
10.001259038523145
30
0
10
5.0817947179166323
20
10.016833417032171
30
0
10
5.0720806807152385
20
10.03044070487263
30
0
10
5.0717828802191267
20
10.030851472457886
30
0
10
5.0714820948478545
20
10.031260035474432
30
0
0
ARC
5
156
100
AcDbEntity
8
OUTER_PROFILES
100
AcDbCircle
10
-2.2160051571518125e-12
20
6.297619047399202
30
0
40
6.2976190474000004
210
0
220
0
230
-1
100
AcDbArc
50
141.29034117329044
51
143.63938332021635
0
SPLINE
5
157
100
AcDbEntity
8
OUTER_PROFILES
100
AcDbSpline
70
0
71
3
72
14
73
10
74
0
42
0.000000001
43
0.0000000001
44
0.0000000001
40
0.055641293296546497
40
0.055641293296546497
40
0.055641293296546497
40
0.055641293296546497
40
0.057133446103764668
40
0.057133446103764668
40
0.062376893815898941
40
0.062376893815898941
40
0.068948764305716601
40
0.068948764305716601
40
0.069154442140375638
40
0.069154442140375638
40
0.069154442140375638
40
0.069154442140375638
10
4.818451676227542
20
10.273944591438777
30
0
10
4.822951453248856
20
10.27458069515534
30
0
10
4.8273954822025367
20
10.274906628404818
30
0
10
4.8470374213189515
20
10.275142954708322
30
0
10
4.8612907235781977
20
10.271968392315012
30
0
10
4.8895233130203852
20
10.259926325150989
30
0
10
4.902906815477861
20
10.249668875155649
30
0
10
4.9135520887159512
20
10.236777057642236
30
0
10
4.9138722662711665
20
10.236383482391949
30
0
10
4.9141895446727135
20
10.23598759100028
30
0
0
SPLINE
5
158
100
AcDbEntity
8
OUTER_PROFILES
100
AcDbSpline
70
0
71
3
72
11
73
7
74
0
42
0.000000001
43
0.0000000001
44
0.0000000001
40
0.00019249610590086965
40
0.00019249610590086965
40
0.00019249610590086965
40
0.00019249610590086965
40
0.00024322290490327308
40
0.00024322290490327308
40
0.00024322290490327308
40
0.00027693848977095064
40
0.00027693848977095064
40
0.00027693848977095064
40
0.00027693848977095064
10
4.7317015943905005
20
10.260000839132321
30
0
10
4.7501332385434436
20
10.263325777611508
30
0
10
4.7683846899326987
20
10.266379247390621
30
0
10
4.7856365432818793
20
10.269069562175028
30
0
10
4.7971029937017295
20
10.270857680846392
30
0
10
4.8082099560390335
20
10.272498492192542
30
0
10
4.8184516762323826
20
10.273944591423987
30
0
0
ARC
5
159
100
AcDbEntity
8
OUTER_PROFILES
100
AcDbCircle
10
-5.1400149552386054
20
7.9965344269704497
30
0
40
2.2999999999200043
210
0
220
0
230
-1
100
AcDbArc
50
55.047918068731896
51
79.774220520386265
0
ARC
5
160
100
AcDbEntity
8
OUTER_PROFILES
100
AcDbCircle
10
-3.7031493743763955
20
10.052248179161118
30
0
40
0.20809523918323466
210
0
220
-0
230
-1
100
AcDbArc
50
235.0479180687307
51
314.60450340815447
0
ARC
5
161
100
AcDbEntity
8
OUTER_PROFILES
100
AcDbCircle
10
-2.2160051571518125e-12
20
6.297619047399202
30
0
40
5.065476150871433
210
0
220
0
230
-1
100
AcDbArc
50
133.18236394249618
51
134.60450340815333
0
ARC
5
162
100
AcDbEntity
8
OUTER_PROFILES
100
AcDbCircle
10
-3.6088245683051801
20
10.142998149804594
30
0
40
0.20809523918323974
210
-0
220
0
230
-1
100
AcDbArc
50
-46.817636057502504
51
32.738949281917606
0
ARC
5
163
100
AcDbEntity
8
OUTER_PROFILES
100
AcDbCircle
10
-1.4991569723000309
20
11.499406776575425
30
0
40
2.2999999999200278
210
0
220
-0
230
-1
100
AcDbArc
50
188.01264683026346
51
212.73894928191751
0
SPLINE
5
164
100
AcDbEntity
8
OUTER_PROFILES
100
AcDbSpline
70
0
71
3
72
11
73
7
74
0
42
0.000000001
43
0.0000000001
44
0.0000000001
40
0.00019249610590086954
40
0.00019249610590086954
40
0.00019249610590086954
40
0.00019249610590086954
40
0.00024322290490327202
40
0.00024322290490327202
40
0.00024322290490327202
40
0.00027693848977447273
40
0.00027693848977447273
40
0.00027693848977447273
40
0.00027693848977447273
10
3.7767028199573183
20
11.178805916546699
30
0
10
3.779313506352131
20
11.197352211018124
30
0
10
3.7816598850140615
20
11.215707963867828
30
0
10
3.783681980886433
20
11.233050840385395
30
0
10
3.7850259676221176
20
11.244577789387458
30
0
10
3.7862366392045343
20
11.255739829904829
30
0
10
3.7872861568527982
20
11.266029754505983
30
0
0
SPLINE
5
165
100
AcDbEntity
8
OUTER_PROFILES
100
AcDbSpline
70
0
71
3
72
14
73
10
74
0
42
0.000000001
43
0.0000000001
44
0.0000000001
40
-0.013307470997582735
40
-0.013307470997582735
40
-0.013307470997582735
40
-0.013307470997582735
40
-0.011815318192253711
40
-0.011815318192253711
40
-0.0065718704844152541
40
-0.0065718704844152541
40
0
40
0
40
0.00020567783449454533
40
0.00020567783449454533
40
0.00020567783449454533
40
0.00020567783449454533
10
3.7872861568528027
20
11.266029754505979
30
0
10
3.7877480188924029
20
11.270550739422667
30
0
10
3.7879020946386444
20
11.275004040049218
30
0
10
3.7873797349047145
20
11.294640454248533
30
0
10
3.7836571228508387
20
11.308760533256056
30
0
10
3.7705337843788556
20
11.336507037099617
30
0
10
3.7597671568359869
20
11.349484446308916
30
0
10
3.7464738685514742
20
11.359623937800089
30
0
10
3.7460682226246078
20
11.359928677896887
30
0
10
3.7456603742402184
20
11.360230431560399
30
0
0
ARC
5
166
100
AcDbEntity
8
OUTER_PROFILES
100
AcDbCircle
10
-2.2160051571518125e-12
20
6.297619047399202
30
0
40
6.2976190474000013
210
0
220
0
230
-1
100
AcDbArc
50
124.14748403043325
51
126.49652617735916
0
SPLINE
5
167
100
AcDbEntity
8
OUTER_PROFILES
100
AcDbSpline
70
0
71
3
72
14
73
10
74
0
42
0.000000001
43
0.0000000001
44
0.0000000001
40
0.055641293257749178
40
0.055641293257749178
40
0.055641293257749178
40
0.055641293257749178
40
0.057133446062484362
40
0.057133446062484362
40
0.062376893765058568
40
0.062376893765058568
40
0.068948764242880253
40
0.068948764242880253
40
0.069154442077169989
40
0.069154442077169989
40
0.069154442077169989
40
0.069154442077169989
10
3.4323388585478831
20
11.517551168451583
30
0
10
3.4364512282402782
20
11.519485344425924
30
0
10
3.4406017509454045
20
11.52110669790526
30
0
10
3.4593013954178087
20
11.527122088084422
30
0
10
3.4738571821413089
20
11.528289797184463
30
0
10
3.5043849384563597
20
11.525104427102184
30
0
10
3.5201972859132624
20
11.519247543431028
30
0
10
3.5341695494493663
20
11.510066222568028
30
0
10
3.5345915107557735
20
11.509784506752903
30
0
10
3.5350113844043607
20
11.509499723155558
30
0
0
SPLINE
5
168
100
AcDbEntity
8
OUTER_PROFILES
100
AcDbSpline
70
0
71
3
72
11
73
7
74
0
42
0.000000001
43
0.0000000001
44
0.0000000001
40
0.00019249610590086914
40
0.00019249610590086914
40
0.00019249610590086914
40
0.00019249610590086914
40
0.00024322290490327235
40
0.00024322290490327235
40
0.00024322290490327235
40
0.00027693848976969519
40
0.00027693848976969519
40
0.00027693848976969519
40
0.00027693848976969519
10
3.3535528325896991
20
11.478656862435805
30
0
10
3.3701855676868098
20
11.487266905714367
30
0
10
3.3867261322832398
20
11.495564428136113
30
0
10
3.4024185499896253
20
11.503220292825947
30
0
10
3.412848520958498
20
11.508308765995011
30
0
10
3.4229783944887604
20
11.513150515318621
30
0
10
3.4323388585600689
20
11.517551168434359
30
0
0
ARC
5
169
100
AcDbEntity
8
OUTER_PROFILES
100
AcDbCircle
10
-4.4108944135452877
20
9.4361023880546853
30
0
40
2.2999999999200034
210
0
220
0
230
-1
100
AcDbArc
50
37.90506092587465
51
62.631363377529098
0
ARC
5
170
100
AcDbEntity
8
OUTER_PROFILES
100
AcDbCircle
10
-2.4319324733373993
20
10.976962981236614
30
0
40
0.20809523918323578
210
0
220
-0
230
-1
100
AcDbArc
50
217.90506092587538
51
297.46164626528787
0
ARC
5
171
100
AcDbEntity
8
OUTER_PROFILES
100
AcDbCircle
10
-2.2160051571518125e-12
20
6.297619047399202
30
0
40
5.0654761508714312
210
0
220
0
230
-1
100
AcDbArc
50
116.03950679963903
51
117.46164626529657
0
ARC
5
172
100
AcDbEntity
8
OUTER_PROFILES
100
AcDbCircle
10
-2.3150492303198833
20
11.035878460644607
30
0
40
0.20809523918323666
210
-0
220
0
230
-1
100
AcDbArc
50
-63.960493200360325
51
15.596092139060703
0
ARC
5
173
100
AcDbEntity
8
OUTER_PROFILES
100
AcDbCircle
10
0.10070021502710524
20
11.710190217711007
30
0
40
2.2999999999199856
210
0
220
0
230
-1
100
AcDbArc
50
170.86978968740613
51
195.59609213906069
0
SPLINE
5
174
100
AcDbEntity
8
OUTER_PROFILES
100
AcDbSpline
70
0
71
3
72
11
73
7
74
0
42
0.000000001
43
0.0000000001
44
0.0000000001
40
0.00019249610590086925
40
0.00019249610590086925
40
0.00019249610590086925
40
0.00019249610590086925
40
0.00024322290490327224
40
0.00024322290490327224
40
0.00024322290490327224
40
0.00027693848977447267
40
0.00027693848977447267
40
0.00027693848977447267
40
0.00027693848977447267
10
2.1701594233393573
20
12.075151177910964
30
0
10
2.1671875080010627
20
12.093643025879565
30
0
10
2.1640191905098272
20
12.111874891384236
30
0
10
2.1608395477434517
20
12.129043295780065
30
0
10
2.1587261970558735
20
12.140454281824802
30
0
10
2.1565930126972832
20
12.151477275913717
30
0
10
2.1545628947006712
20
12.161619398793626
30
0
0
SPLINE
5
175
100
AcDbEntity
8
OUTER_PROFILES
100
AcDbSpline
70
0
71
3
72
14
73
10
74
0
42
0.000000001
43
0.0000000001
44
0.0000000001
40
-0.013307470997545135
40
-0.013307470997545135
40
-0.013307470997545135
40
-0.013307470997545135
40
-0.011815318192225806
40
-0.011815318192225806
40
-0.0065718704844032038
40
-0.0065718704844032038
40
0
40
0
40
0.00020567783448644802
40
0.00020567783448644802
40
0.00020567783448644802
40
0.00020567783448644802
10
2.1545628947006756
20
12.161619398793626
30
0
10
2.153671653808118
20
12.166075665261403
30
0
10
2.1525062509983783
20
12.170376532859567
30
0
10
2.1462191635496941
20
12.188986588037087
30
0
10
2.138499970353962
20
12.201382092387025
30
0
10
2.1177812394093154
20
12.224027724995437
30
0
10
2.1036677844045437
20
12.23325506514616
30
0
10
2.0879764120373023
20
12.239025821972882
30
0
10
2.087498964100436
20
12.239197457086291
30
0
10
2.0870202918217284
20
12.23936558925951
30
0
0
ARC
5
176
100
AcDbEntity
8
OUTER_PROFILES
100
AcDbCircle
10
-2.2160051571518125e-12
20
6.297619047399202
30
0
40
6.2976190474000013
210
0
220
0
230
-1
100
AcDbArc
50
107.00462688757604
51
109.35366903450199
0
SPLINE
5
177
100
AcDbEntity
8
OUTER_PROFILES
100
AcDbSpline
70
0
71
3
72
14
73
10
74
0
42
0.000000001
43
0.0000000001
44
0.0000000001
40
0.055641293308087925
40
0.055641293308087925
40
0.055641293308087925
40
0.055641293308087925
40
0.057133446116039301
40
0.057133446116039301
40
0.062376893830978331
40
0.062376893830978331
40
0.068948764324314488
40
0.068948764324314488
40
0.069154442159084187
40
0.069154442159084187
40
0.069154442159084187
40
0.069154442159084187
10
1.7412476707196545
20
12.297343869216231
30
0
10
1.7446072309877536
20
12.300404257424102
30
0
10
1.748095455286296
20
12.303176966760748
30
0
10
1.7641912596398557
20
12.31443692699953
30
0
10
1.7777561853002144
20
12.31984315151497
30
0
10
1.8078665833707364
20
12.325797512625014
30
0
10
1.8247027793643111
20
12.324861605094675
30
0
10
1.8407605362669033
20
12.320206581532309
30
0
10
1.8412467882105821
20
12.320061756838891
30
0
10
1.8417319494899376
20
12.319913385308256
30
0
0
SPLINE
5
178
100
AcDbEntity
8
OUTER_PROFILES
100
AcDbSpline
70
0
71
3
72
11
73
7
74
0
42
0.000000001
43
0.0000000001
44
0.0000000001
40
0.00019249610590087076
40
0.00019249610590087076
40
0.00019249610590087076
40
0.00019249610590087076
40
0.0002432229049032734
40
0.0002432229049032734
40
0.0002432229049032734
40
0.00027693848977127579
40
0.00027693848977127579
40
0.00027693848977127579
40
0.00027693848977127579
10
1.6774261847892857
20
12.236954939263329
30
0
10
1.6907821193257933
20
12.250085047211538
30
0
10
1.7041420953777742
20
12.262889350995543
30
0
10
1.7168807372631134
20
12.274830508415899
30
0
10
1.7253474800900737
20
12.282767202911629
30
0
10
1.7336001810952117
20
12.290379679535661
30
0
10
1.7412476707308544
20
12.29734386920761
30
0
0
ARC
5
179
100
AcDbEntity
8
OUTER_PROFILES
100
AcDbCircle
10
-3.2898465463173565
20
10.596802331314393
30
0
40
2.2999999999200038
210
0
220
0
230
-1
100
AcDbArc
50
20.762203783017529
51
45.488506234671846
0
ARC
5
180
100
AcDbEntity
8
OUTER_PROFILES
100
AcDbCircle
10
-0.94462769968269189
20
11.485897539828027
30
0
40
0.20809523918323466
210
0
220
-0
230
-1
100
AcDbArc
50
200.76220378301753
51
280.31878912244139
0
ARC
5
181
100
AcDbEntity
8
OUTER_PROFILES
100
AcDbCircle
10
-2.2160051571518125e-12
20
6.297619047399202
30
0
40
5.0654761508714312
210
0
220
0
230
-1
100
AcDbArc
50
98.896649656781847
51
100.31878912243899
0
ARC
5
182
100
AcDbEntity
8
OUTER_PROFILES
100
AcDbCircle
10
-0.81557160879465407
20
11.507743629108823
30
0
40
0.20809523918323966
210
-0
220
0
230
-1
100
AcDbArc
50
278.89664965678219
51
358.45323499620412
0
ARC
5
183
100
AcDbEntity
8
OUTER_PROFILES
100
AcDbCircle
10
1.6916097463333379
20
11.440042957687035
30
0
40
2.29999999992001
210
0
220
0
230
-1
100
AcDbArc
50
153.72693254454913
51
178.45323499620318
0
SPLINE
5
184
100
AcDbEntity
8
OUTER_PROFILES
100
AcDbSpline
70
0
71
3
72
11
73
7
74
0
42
0.000000001
43
0.0000000001
44
0.0000000001
40
0.00019249610590086998
40
0.00019249610590086998
40
0.00019249610590086998
40
0.00019249610590086998
40
0.00024322290490327327
40
0.00024322290490327327
40
0.00024322290490327327
40
0.00027693848977447224
40
0.00027693848977447224
40
0.00027693848977447224
40
0.00027693848977447224
10
0.37078783837012352
20
12.45813735519711
30
0
10
0.36249738901850126
20
12.47493167482074
30
0
10
0.35409589428720079
20
12.491419671721065
30
0
10
0.34599703809547577
20
12.506888115922283
30
0
10
0.34061413046752698
20
12.517169222823334
30
0
10
0.33532663295952503
20
12.527073729085373
30
0
10
0.33039726421106419
20
12.536166878118193
30
0
0
SPLINE
5
185
100
AcDbEntity
8
OUTER_PROFILES
100
AcDbSpline
70
0
71
3
72
14
73
10
74
0
42
0.000000001
43
0.0000000001
44
0.0000000001
40
-0.013307470997665376
40
-0.013307470997665376
40
-0.013307470997665376
40
-0.013307470997665376
40
-0.011815318192331746
40
-0.011815318192331746
40
-0.0065718704844657475
40
-0.0065718704844657475
40
0
40
0
40
0.00020567783450940337
40
0.00020567783450940337
40
0.00020567783450940337
40
0.00020567783450940337
10
0.33039726421106419
20
12.536166878118195
30
0
10
0.3282321110508013
20
12.540162467305416
30
0
10
0.32585078083900765
20
12.543928750915075
30
0
10
0.31435760098579291
20
12.559858861999416
30
0
10
0.30332771083876775
20
12.5694283967335
30
0
10
0.27685453758848233
20
12.584960994270773
30
0
10
0.26064829753431162
20
12.589618375697068
30
0
10
0.24395308838026875
20
12.590507640790614
30
0
10
0.24344626177788875
20
12.590530920387597
30
0
10
0.24293929773737233
20
12.590550491789108
30
0
0
ARC
5
186
100
AcDbEntity
8
OUTER_PROFILES
100
AcDbCircle
10
-2.2160051571518125e-12
20
6.297619047399202
30
0
40
6.2976190474000031
210
0
220
0
230
-1
100
AcDbArc
50
89.861769744718814
51
92.210811891644809
0
SPLINE
5
187
100
AcDbEntity
8
OUTER_PROFILES
100
AcDbSpline
70
0
71
3
72
14
73
10
74
0
42
0.000000001
43
0.0000000001
44
0.0000000001
40
0.055641293274470344
40
0.055641293274470344
40
0.055641293274470344
40
0.055641293274470344
40
0.057133446079956671
40
0.057133446079956671
40
0.062376893786601405
40
0.062376893786601405
40
0.068948764269540622
40
0.068948764269540622
40
0.069154442103976629
40
0.069154442103976629
40
0.069154442103976629
40
0.069154442103976629
10
-0.10456101399339168
20
12.544034690203336
30
0
10
-0.10225277482190709
20
12.547949361722388
30
0
10
-0.099736792966020893
20
12.551627059524062
30
0
10
-0.087675011582741824
20
12.567131092941759
30
0
10
-0.076306250159152711
20
12.576295466099578
30
0
10
-0.049288651339085554
20
12.590860487287028
30
0
10
-0.032924576707622499
20
12.594928715388825
30
0
10
-0.016208128607324568
20
12.595213608398815
30
0
10
-0.015700791645358869
20
12.595218543136648
30
0
10
-0.015193451444019956
20
12.595219767134335
30
0
0
SPLINE
5
188
100
AcDbEntity
8
OUTER_PROFILES
100
AcDbSpline
70
0
71
3
72
11
73
7
74
0
42
0.000000001
43
0.0000000001
44
0.0000000001
40
0.00019249610590086903
40
0.00019249610590086903
40
0.00019249610590086903
40
0.00019249610590086903
40
0.00024322290490327262
40
0.00024322290490327262
40
0.00024322290490327262
40
0.00027693848977179984
40
0.00027693848977179984
40
0.00027693848977179984
40
0.00027693848977179984
10
-0.1477471407930242
20
12.467516957752467
30
0
10
-0.13885474021246402
20
12.484000462658456
30
0
10
-0.12986244520622137
20
12.500173829222881
30
0
10
-0.1212094633760552
20
12.515339255134062
30
0
10
-0.11545825594726722
20
12.52541896082082
30
0
10
-0.10981601616740111
20
12.535125762791171
30
0
10
-0.1045610139823161
20
12.544034690199211
30
0
0
ARC
5
189
100
AcDbEntity
8
OUTER_PROFILES
100
AcDbCircle
10
-1.8764813761955468
20
11.375500973143144
30
0
40
2.2999999999200038
210
0
220
0
230
-1
100
AcDbArc
50
3.6193466401602983
51
28.345649091814749
0
ARC
5
190
100
AcDbEntity
8
OUTER_PROFILES
100
AcDbCircle
10
0.62661139051901404
20
11.533830785981989
30
0
40
0.20809523918323614
210
0
220
-0
230
-1
100
AcDbArc
50
183.61934664016039
51
263.17593197959218
0
LWPOLYLINE
5
191
100
AcDbEntity
8
INTERIOR_PROFILES
100
AcDbPolyline
90
60
70
1
43
0.0
10
-0.80421017269207251
20
8.0630417754874841
10
-0.42033559811191168
20
7.9273695416571579
42
0.29621349496208949
10
-0.36738434387834945
20
7.9401163632105431
10
-0.087305735107540486
20
8.2356203681759972
42
-0.4142135623730881
10
-0.01662043622027801
20
8.2375147074323465
10
0.27888356874517783
20
7.9574360986615398
42
0.29621349496207539
10
0.33244154593523445
20
7.9475436841974023
10
0.70849839375577084
20
8.1035817925200142
42
-0.41421356237308826
10
0.773843124666314
20
8.0765620563586698
10
0.92988123298892233
20
7.7005052085381358
42
0.29621349496208121
10
0.97478527232036849
20
7.6696840463870908
10
1.3817967138332552
20
7.6592758515761634
42
-0.41421356237309676
10
1.4305021791544024
20
7.6080139978460206
10
1.4200939843434737
20
7.2010025563331395
42
0.29621349496206917
10
1.4485797694755098
20
7.1545819054325719
10
1.8161698288602897
20
6.9795270789263997
42
-0.41421356237309209
10
1.8398144111627512
20
6.9128867478367191
10
1.6647595846565828
20
6.5452966884519377
42
0.2962134949620801
10
1.6719016645546465
20
6.4913031010609279
10
1.9365106810928492
20
6.1818702126855989
42
-0.41421356237308488
10
1.9310060172922461
20
6.111374122890191
10
1.6215731289169131
20
5.8467651063519845
42
0.29621349496207627
10
1.6061365730828714
20
5.7945345642467805
10
1.7220112439175974
20
5.4042273715119293
42
-0.41421356237308027
10
1.6883091403933514
20
5.3420649373732898
10
1.298001947658497
20
5.2261902665385653
42
0.29621349496208033
10
1.2626558768327614
20
5.1847539049487352
10
1.2097604186883413
20
4.7810600673077497
42
-0.41421356237308482
10
1.1536882753137936
20
4.7379797384164331
10
0.74999443767281382
20
4.7908751965608518
42
0.2962134949620806
10
0.70085050861012732
20
4.7673977388428055
10
0.48833102673988688
20
4.4201195882671884
42
-0.41421356237308449
10
0.41958422650392785
20
4.4035703448610057
10
0.072306075928311661
20
4.6160898267312467
42
0.29621349496207627
10
0.017861720422192914
20
4.6146307386104413
10
-0.31753523607962553
20
4.3838158222576764
42
-0.41421356237310053
10
-0.38706974687112539
20
4.3966591788667113
10
-0.6178846632238929
20
4.7320561353685262
42
0.29621349496207083
10
-0.66821552149499341
20
4.75286770643645
10
-1.068496771863527
20
4.678426020231611
42
-0.41421356237309837
10
-1.1267958445935173
20
4.7184412438199317
10
-1.2012375307983516
20
5.1187224941884644
42
0.29621349496206489
10
-1.2387522291978668
20
5.1582062147402841
10
-1.6347055088033982
20
5.2530094025096785
42
-0.4142135623731002
10
-1.671688704166415
20
5.3132774973919705
10
-1.5768855163970223
20
5.7092307769975008
42
0.29621349496207688
10
-1.5950974227613448
20
5.7605595530514648
10
-1.9182588124374591
20
6.0082152823698429
42
-0.41421356237309276
10
-1.9275313999734547
20
6.078315347422504
10
-1.6798756706550839
20
6.4014767370986192
42
0.29621349496207866
10
-1.6756357809238429
20
6.4557753569677088
10
-1.8701277405664805
20
6.8134617023542523
42
-0.41421356237309581
10
-1.8500864056516686
20
6.8812727994905787
10
-1.492400060265124
20
7.0757647591332198
42
0.2962134949620624
10
-1.4664414898910418
20
7.1236444981545901
10
-1.4986345927740106
20
7.5295142410135307
42
-0.41421356237309348
10
-1.4527446642849731
20
7.5833112154941755
10
-1.0468749214260327
20
7.6155043183771429
42
0.29621349496208055
10
-1.0036861430529949
20
7.6486863347002298
10
-0.86801390922266952
20
8.0325609092803951
42
-0.41421356237310597
0
ENDSEC
0
SECTION
2
OBJECTS
0
DICTIONARY
5
C
100
AcDbDictionary
3
ACAD_GROUP
350
D
3
ACAD_MLINESTYLE
350
17
0
DICTIONARY
5
D
100
AcDbDictionary
0
DICTIONARY
5
1A
330
C
100
AcDbDictionary
0
DICTIONARY
5
17
100
AcDbDictionary
0
ENDSEC
0
EOF
