0
SECTION
2
HEADER
9
$INSUNITS
70
4
9
$ACADVER
1
AC1014
9
$HANDSEED
5
FFFF
0
ENDSEC
0
SECTION
2
TABLES
0
TABLE
2
VPORT
5
8
100
AcDbSymbolTable
0
ENDTAB
0
TABLE
2
LTYPE
5
5
100
AcDbSymbolTable
0
LTYPE
5
14
100
AcDbSymbolTableRecord
100
AcDbLinetypeTableRecord
2
BYBLOCK
70
0
0
LTYPE
5
15
100
AcDbSymbolTableRecord
100
AcDbLinetypeTableRecord
2
BYLAYER
70
0
0
ENDTAB
0
TABLE
2
LAYER
5
2
100
AcDbSymbolTable
70
2
0
LAYER
5
50
100
AcDbSymbolTableRecord
100
AcDbLayerTableRecord
2
0
70
0
6
CONTINUOUS
0
ENDTAB
0
TABLE
2
STYLE
5
3
100
AcDbSymbolTable
70
1
0
STYLE
5
11
100
AcDbSymbolTableRecord
100
AcDbTextStyleTableRecord
2
STANDARD
70
0
0
ENDTAB
0
TABLE
2
VIEW
5
6
100
AcDbSymbolTable
70
0
0
ENDTAB
0
TABLE
2
UCS
5
7
100
AcDbSymbolTable
70
0
0
ENDTAB
0
TABLE
2
APPID
5
9
100
AcDbSymbolTable
70
2
0
APPID
5
12
100
AcDbSymbolTableRecord
100
AcDbRegAppTableRecord
2
ACAD
70
0
0
ENDTAB
0
TABLE
2
DIMSTYLE
5
A
100
AcDbSymbolTable
70
1
0
ENDTAB
0
TABLE
2
BLOCK_RECORD
5
1
100
AcDbSymbolTable
70
1
0
BLOCK_RECORD
5
1F
100
AcDbSymbolTableRecord
100
AcDbBlockTableRecord
2
*MODEL_SPACE
0
BLOCK_RECORD
5
1B
100
AcDbSymbolTableRecord
100
AcDbBlockTableRecord
2
*PAPER_SPACE
0
ENDTAB
0
ENDSEC
0
SECTION
2
BLOCKS
0
BLOCK
5
20
100
AcDbEntity
100
AcDbBlockBegin
2
*MODEL_SPACE
0
ENDBLK
5
21
100
AcDbEntity
100
AcDbBlockEnd
0
BLOCK
5
1C
100
AcDbEntity
100
AcDbBlockBegin
2
*PAPER_SPACE
0
ENDBLK
5
1D
100
AcDbEntity
100
AcDbBlockEnd
0
ENDSEC
0
SECTION
2
ENTITIES
0
SPLINE
5
100
100
AcDbEntity
8
OUTER_PROFILES
100
AcDbSpline
70
0
71
3
72
12
73
8
74
0
42
0.000000001
43
0.0000000001
44
0.0000000001
40
-0.010786547506107365
40
-0.010786547506107365
40
-0.010786547506107365
40
-0.010786547506107365
40
-0.0073042827913740362
40
-0.0073042827913740362
40
-0.0041221804396919708
40
-0.0041221804396919708
40
-0
40
-0
40
-0
40
-0
10
29.782793188461817
20
12.356392005267992
30
0
10
29.791078811331218
20
12.364507163412053
30
0
10
29.800685133008159
20
12.371197855098814
30
0
10
29.820821928779257
20
12.380691339453055
30
0
10
29.831092680968567
20
12.383726438532552
30
0
10
29.855252331979575
20
12.387002299948072
30
0
10
29.869118883989749
20
12.386121404742312
30
0
10
29.88239549440609
20
12.382580819410725
30
0
0
SPLINE
5
101
100
AcDbEntity
8
OUTER_PROFILES
100
AcDbSpline
70
0
71
3
72
10
73
6
74
0
42
0.000000001
43
0.0000000001
44
0.0000000001
40
-0.0085723937241464557
40
-0.0085723937241464557
40
-0.0085723937241464557
40
-0.0085723937241464557
40
-0.0041488144967057154
40
-0.0041488144967057154
40
-0
40
-0
40
-0
40
-0
10
29.721197448547528
20
12.293734445846948
30
0
10
29.731649105672631
20
12.304780611896629
30
0
10
29.742365716052618
20
12.315880906440636
30
0
10
29.763018507139243
20
12.336857953989444
30
0
10
29.772911654897737
20
12.346716929485314
30
0
10
29.78279318846182
20
12.356392005267992
30
0
0
ARC
5
102
100
AcDbEntity
8
OUTER_PROFILES
100
AcDbCircle
10
-31.391879903504343
20
10.712968766079246
30
0
40
2.2999999999199914
210
0
220
0
230
-1
100
AcDbArc
50
18.689622146652432
51
43.41592459830693
0
ARC
5
103
100
AcDbEntity
8
OUTER_PROFILES
100
AcDbCircle
10
29.016040704582654
20
11.516666364233824
30
0
40
0.2080952391832383
210
0
220
0
230
1
100
AcDbArc
50
261.75379251392621
51
341.31037785334695
0
ARC
5
104
100
AcDbEntity
8
OUTER_PROFILES
100
AcDbCircle
10
-28.259667575331715
20
6.2976190474000058
30
0
40
5.0654761508714321
210
0
220
0
230
-1
100
AcDbArc
50
96.824068020417016
51
98.246207486074056
0
ARC
5
105
100
AcDbEntity
8
OUTER_PROFILES
100
AcDbCircle
10
28.886278965852824
20
11.533830785982806
30
0
40
0.20809523918323658
210
0
220
0
230
1
100
AcDbArc
50
183.61934664016087
51
263.17593197958729
0
ARC
5
106
100
AcDbEntity
8
OUTER_PROFILES
100
AcDbCircle
10
-26.383186199138269
20
11.375500973143907
30
0
40
2.2999999999200025
210
0
220
0
230
-1
100
AcDbArc
50
151.65435090818394
51
176.38065335983842
0
SPLINE
5
107
100
AcDbEntity
8
OUTER_PROFILES
100
AcDbSpline
70
0
71
3
72
10
73
6
74
0
42
0.000000001
43
0.0000000001
44
0.0000000001
40
-0.0088408707712846028
40
-0.0088408707712846028
40
-0.0088408707712846028
40
-0.0088408707712846028
40
-0.0045621204382995436
40
-0.0045621204382995436
40
-0
40
-0
40
-0
40
-0
10
28.364228589316106
20
12.544034690200016
30
0
10
28.371254719186204
20
12.532123128840455
30
0
10
28.378244249395564
20
12.520030972434824
30
0
10
28.392732634514566
20
12.49440557514928
30
0
10
28.400194558963779
20
12.480900688607582
30
0
10
28.407414716126812
20
12.467516957753272
30
0
0
SPLINE
5
108
100
AcDbEntity
8
OUTER_PROFILES
100
AcDbSpline
70
0
71
3
72
12
73
8
74
0
42
0.000000001
43
0.0000000001
44
0.0000000001
40
-0.010759096655752386
40
-0.010759096655752386
40
-0.010759096655752386
40
-0.010759096655752386
40
-0.0073612264781655889
40
-0.0073612264781655889
40
-0.0038024925357497681
40
-0.0038024925357497681
40
-0
40
-0
40
-0
40
-0
10
28.274861026777806
20
12.595219767135138
30
0
10
28.286234612077035
20
12.595192327476177
30
0
10
28.297540084215939
20
12.593300142986777
30
0
10
28.319584151970115
20
12.585753381038238
30
0
10
28.330129064866622
20
12.579972609216643
30
0
10
28.34939785183963
20
12.564626049668988
30
0
10
28.357790747045485
20
12.554952985905736
30
0
10
28.36422858932718
20
12.544034690204143
30
0
0
ARC
5
109
100
AcDbEntity
8
OUTER_PROFILES
100
AcDbCircle
10
-28.259667575331715
20
6.2976190474000058
30
0
40
6.2976190474000004
210
0
220
0
230
-1
100
AcDbArc
50
87.789188108353798
51
90.138230255279851
0
SPLINE
5
110
100
AcDbEntity
8
OUTER_PROFILES
100
AcDbSpline
70
0
71
3
72
12
73
8
74
0
42
0.000000001
43
0.0000000001
44
0.0000000001
40
-0.010786547512598747
40
-0.010786547512598747
40
-0.010786547512598747
40
-0.010786547512598747
40
-0.0073042827974986223
40
-0.0073042827974986223
40
-0.0041221804453588397
40
-0.0041221804453588397
40
-0
40
-0
40
-0
40
-0
10
27.929270311122725
20
12.536166878118991
30
0
10
27.93479584215865
20
12.546363732764645
30
0
10
27.942003265917027
20
12.555588688809404
30
0
10
27.958447186703648
20
12.570595829035129
30
0
10
27.967367027026071
20
12.576523444530478
30
0
10
27.989487755427596
20
12.58677495077146
30
0
10
28.002997903863736
20
12.59002042922975
30
0
10
28.016728277596414
20
12.590550491789907
30
0
0
SPLINE
5
111
100
AcDbEntity
8
OUTER_PROFILES
100
AcDbSpline
70
0
71
3
72
10
73
6
74
0
42
0.000000001
43
0.0000000001
44
0.0000000001
40
-0.008572393723514829
40
-0.008572393723514829
40
-0.008572393723514829
40
-0.008572393723514829
40
-0.0041488144964960802
40
-0.0041488144964960802
40
-0
40
-0
40
-0
40
-0
10
27.88887973696367
20
12.458137355197906
30
0
10
27.895611141687283
20
12.47177345110172
30
0
10
27.902579773882298
20
12.485539367066076
30
0
10
27.916131926099631
20
12.511671980288803
30
0
10
27.922679565019525
20
12.52400900565863
30
0
10
27.929270311122728
20
12.536166878118991
30
0
0
ARC
5
112
100
AcDbEntity
8
OUTER_PROFILES
100
AcDbCircle
10
-29.951277321667149
20
11.440042957687879
30
0
40
2.2999999999200114
210
0
220
0
230
-1
100
AcDbArc
50
1.5467650037954026
51
26.273067455449624
0
ARC
5
113
100
AcDbEntity
8
OUTER_PROFILES
100
AcDbCircle
10
27.444095966539159
20
11.507743629109605
30
0
40
0.20809523918323788
210
0
220
0
230
1
100
AcDbArc
50
278.89664965678259
51
358.45323499620559
0
ARC
5
114
100
AcDbEntity
8
OUTER_PROFILES
100
AcDbCircle
10
-28.259667575331715
20
6.2976190474000058
30
0
40
5.0654761508714321
210
0
220
0
230
-1
100
AcDbArc
50
79.681210877559721
51
81.103350343216803
0
ARC
5
115
100
AcDbEntity
8
OUTER_PROFILES
100
AcDbCircle
10
27.315039875651124
20
11.485897539828809
30
0
40
0.20809523918323855
210
0
220
0
230
1
100
AcDbArc
50
200.76220378301829
51
280.31878912244201
0
ARC
5
116
100
AcDbEntity
8
OUTER_PROFILES
100
AcDbCircle
10
-24.969821029016476
20
10.596802331315121
30
0
40
2.299999999920002
210
0
220
0
230
-1
100
AcDbArc
50
134.5114937653268
51
159.23779621698114
0
SPLINE
5
117
100
AcDbEntity
8
OUTER_PROFILES
100
AcDbSpline
70
0
71
3
72
10
73
6
74
0
42
0.000000001
43
0.0000000001
44
0.0000000001
40
-0.0088408707570136434
40
-0.0088408707570136434
40
-0.0088408707570136434
40
-0.0088408707570136434
40
-0.004562120438283794
40
-0.004562120438283794
40
-0
40
-0
40
-0
40
-0
10
26.51841990460294
20
12.297343869208374
30
0
10
26.528644877574663
20
12.288032493246019
30
0
10
26.538888108282315
20
12.278537757574588
30
0
10
26.560286033513371
20
12.258321351306476
30
0
10
26.571397080783804
20
12.247615889824512
30
0
10
26.582241390544507
20
12.236954939264093
30
0
0
SPLINE
5
118
100
AcDbEntity
8
OUTER_PROFILES
100
AcDbSpline
70
0
71
3
72
12
73
8
74
0
42
0.000000001
43
0.0000000001
44
0.0000000001
40
-0.010759096655575956
40
-0.010759096655575956
40
-0.010759096655575956
40
-0.010759096655575956
40
-0.0073612264782069638
40
-0.0073612264782069638
40
-0.0038024925357186311
40
-0.0038024925357186311
40
-0
40
-0
40
-0
40
-0
10
26.417935625843857
20
12.319913385309018
30
0
10
26.428812002645444
20
12.323239587836866
30
0
10
26.440172935544375
20
12.324763814206158
30
0
10
26.463462094353144
20
12.324049936751935
30
0
10
26.475242438763132
20
12.321634156042592
30
0
10
26.498178645431153
20
12.312648975741066
30
0
10
26.509049853448168
20
12.305879508350412
30
0
10
26.518419904614138
20
12.297343869216991
30
0
0
ARC
5
119
100
AcDbEntity
8
OUTER_PROFILES
100
AcDbCircle
10
-28.259667575331715
20
6.2976190474000058
30
0
40
6.2976190474000013
210
0
220
0
230
-1
100
AcDbArc
50
70.64633096549673
51
72.995373112422612
0
SPLINE
5
120
100
AcDbEntity
8
OUTER_PROFILES
100
AcDbSpline
70
0
71
3
72
12
73
8
74
0
42
0.000000001
43
0.0000000001
44
0.0000000001
40
-0.010786547505681005
40
-0.010786547505681005
40
-0.010786547505681005
40
-0.010786547505681005
40
-0.0073042827910310016
40
-0.0073042827910310016
40
-0.0041221804394257237
40
-0.0041221804394257237
40
-0
40
-0
40
-0
40
-0
10
26.105104680633122
20
12.161619398794382
30
0
10
26.107379152160316
20
12.172991914668838
30
0
10
26.111547266779024
20
12.183931457252491
30
0
10
26.12283719807828
20
12.203118803092615
30
0
10
26.129613559589018
20
12.211412240355727
30
0
10
26.147729841585555
20
12.227728500086513
30
0
10
26.159683150460872
20
12.234811977194656
30
0
10
26.172647283512063
20
12.239365589260265
30
0
0
SPLINE
5
121
100
AcDbEntity
8
OUTER_PROFILES
100
AcDbSpline
70
0
71
3
72
10
73
6
74
0
42
0.000000001
43
0.0000000001
44
0.0000000001
40
-0.0085723937235395748
40
-0.0085723937235395748
40
-0.0085723937235395748
40
-0.0085723937235395748
40
-0.0041488144965412463
40
-0.0041488144965412463
40
-0
40
-0
40
-0
40
-0
10
26.089508151994441
20
12.075151177911716
30
0
10
26.091921189466603
20
12.090165576707939
30
0
10
26.094522649924706
20
12.105373952048106
30
0
10
26.09976999507527
20
12.13434013357865
30
0
10
26.102390338704549
20
12.14805900997775
30
0
10
26.105104680633122
20
12.161619398794382
30
0
0
ARC
5
122
100
AcDbEntity
8
OUTER_PROFILES
100
AcDbCircle
10
-28.360367790360911
20
11.710190217711812
30
0
40
2.2999999999199865
210
-0
220
0
230
-1
100
AcDbArc
50
-15.596092139062007
51
9.1302103125925331
0
ARC
5
123
100
AcDbEntity
8
OUTER_PROFILES
100
AcDbCircle
10
25.944618345013943
20
11.035878460645359
30
0
40
0.20809523918323686
210
0
220
0
230
1
100
AcDbArc
50
-63.960493200362151
51
15.596092139061604
0
ARC
5
124
100
AcDbEntity
8
OUTER_PROFILES
100
AcDbCircle
10
-28.259667575331715
20
6.2976190474000058
30
0
40
5.0654761508714321
210
0
220
0
230
-1
100
AcDbArc
50
62.538353734702142
51
63.960493200359601
0
ARC
5
125
100
AcDbEntity
8
OUTER_PROFILES
100
AcDbCircle
10
25.827735101996431
20
10.976962981237362
30
0
40
0.20809523918323941
210
0
220
0
230
1
100
AcDbArc
50
217.90506092587665
51
297.46164626528798
0
ARC
5
126
100
AcDbEntity
8
OUTER_PROFILES
100
AcDbCircle
10
-23.848773161788571
20
9.4361023880553869
30
0
40
2.2999999999200025
210
0
220
0
230
-1
100
AcDbArc
50
117.36863662246962
51
142.09493907412414
0
SPLINE
5
127
100
AcDbEntity
8
OUTER_PROFILES
100
AcDbSpline
70
0
71
3
72
10
73
6
74
0
42
0.000000001
43
0.0000000001
44
0.0000000001
40
-0.0088408707142486158
40
-0.0088408707142486158
40
-0.0088408707142486158
40
-0.0088408707142486158
40
-0.0045621204381904243
40
-0.0045621204381904243
40
-0
40
-0
40
-0
40
-0
10
24.827328716773746
20
11.517551168435084
30
0
10
24.839843999096871
20
11.511667334500139
30
0
10
24.852430774437373
20
11.505613668464354
30
0
10
24.878836940116251
20
11.492602569650238
30
0
10
24.892609844897727
20
11.485647760460884
30
0
10
24.906114742744116
20
11.478656862436534
30
0
0
SPLINE
5
128
100
AcDbEntity
8
OUTER_PROFILES
100
AcDbSpline
70
0
71
3
72
12
73
8
74
0
42
0.000000001
43
0.0000000001
44
0.0000000001
40
-0.010759096655921008
40
-0.010759096655921008
40
-0.010759096655921008
40
-0.010759096655921008
40
-0.0073612264783629875
40
-0.0073612264783629875
40
-0.0038024925357410823
40
-0.0038024925357410823
40
-0
40
-0
40
-0
40
-0
10
24.724656190929451
20
11.50949972315628
30
0
10
24.734068945419846
20
11.515884020179232
30
0
10
24.744475870338118
20
11.520689223206295
30
0
10
24.766940776240027
20
11.526871661390942
30
0
10
24.778909816865831
20
11.528035524511361
30
0
10
24.803475460613011
20
11.526210096156257
30
0
10
24.815859026901499
20
11.52294572202287
30
0
10
24.827328716785932
20
11.517551168452307
30
0
0
ARC
5
129
100
AcDbEntity
8
OUTER_PROFILES
100
AcDbCircle
10
-28.259667575331715
20
6.2976190474000058
30
0
40
6.2976190473999996
210
0
220
0
230
-1
100
AcDbArc
50
53.503473822639556
51
55.852515969565459
0
SPLINE
5
130
100
AcDbEntity
8
OUTER_PROFILES
100
AcDbSpline
70
0
71
3
72
12
73
8
74
0
42
0.000000001
43
0.0000000001
44
0.0000000001
40
-0.010786547510383115
40
-0.010786547510383115
40
-0.010786547510383115
40
-0.010786547510383115
40
-0.0073042827955439697
40
-0.0073042827955439697
40
-0.0041221804436763704
40
-0.0041221804436763704
40
-0
40
-0
40
-0
40
-0
10
24.472381418481017
20
11.266029754506697
30
0
10
24.471202733720357
20
11.277567433656699
30
0
10
24.471961183918076
20
11.289249536404022
30
0
10
24.47709396577228
20
11.310912207965377
30
0
10
24.481124739003679
20
11.320834558696387
30
0
10
24.493626863435463
20
11.341765800653164
30
0
10
24.502961228806495
20
11.352057878396096
30
0
10
24.514007201093598
20
11.360230431561117
30
0
0
SPLINE
5
131
100
AcDbEntity
8
OUTER_PROFILES
100
AcDbSpline
70
0
71
3
72
10
73
6
74
0
42
0.000000001
43
0.0000000001
44
0.0000000001
40
-0.0085723937238888319
40
-0.0085723937238888319
40
-0.0085723937238888319
40
-0.0085723937238888319
40
-0.0041488144966251835
40
-0.0041488144966251835
40
-0
40
-0
40
-0
40
-0
10
24.4829647553765
20
11.178805916547416
30
0
10
24.480845016628372
20
11.193864523013319
30
0
10
24.478848154171573
20
11.209164026839616
30
0
10
24.475324442611054
20
11.238390004332096
30
0
10
24.473784661919225
20
11.252271749388791
30
0
10
24.472381418481017
20
11.266029754506697
30
0
0
ARC
5
132
100
AcDbEntity
8
OUTER_PROFILES
100
AcDbCircle
10
-26.760510603033779
20
11.499406776576194
30
0
40
2.2999999999200287
210
-0
220
0
230
-1
100
AcDbArc
50
327.26105071808098
51
351.98735316973523
0
ARC
5
133
100
AcDbEntity
8
OUTER_PROFILES
100
AcDbCircle
10
24.650843007028666
20
10.142998149805319
30
0
40
0.20809523918323972
210
0
220
0
230
1
100
AcDbArc
50
-46.817636057502291
51
32.738949281917179
0
ARC
5
134
100
AcDbEntity
8
OUTER_PROFILES
100
AcDbCircle
10
-28.259667575331715
20
6.2976190474000058
30
0
40
5.0654761508714312
210
0
220
0
230
-1
100
AcDbArc
50
45.395496591845429
51
46.817636057502519
0
ARC
5
135
100
AcDbEntity
8
OUTER_PROFILES
100
AcDbCircle
10
24.556518200957449
20
10.052248179161838
30
0
40
0.2080952391832373
210
0
220
0
230
1
100
AcDbArc
50
235.0479180687322
51
314.60450340815731
0
ARC
5
136
100
AcDbEntity
8
OUTER_PROFILES
100
AcDbCircle
10
-23.119652620095287
20
7.9965344269711363
30
0
40
2.2999999999200051
210
0
220
0
230
-1
100
AcDbArc
50
100.22577947961246
51
124.95208193126678
0
SPLINE
5
137
100
AcDbEntity
8
OUTER_PROFILES
100
AcDbSpline
70
0
71
3
72
10
73
6
74
0
42
0.000000001
43
0.0000000001
44
0.0000000001
40
-0.0088408707481042164
40
-0.0088408707481042164
40
-0.0088408707481042164
40
-0.0088408707481042164
40
-0.0045621204382575442
40
-0.0045621204382575442
40
-0
40
-0
40
-0
40
-0
10
23.441215899101458
20
10.27394459142468
30
0
10
23.454909453076546
20
10.27201110393378
30
0
10
23.468721382548637
20
10.269936402480603
30
0
10
23.497789485188115
20
10.265286704232837
30
0
10
23.513000464449732
20
10.262700512653055
30
0
10
23.527965980943343
20
10.260000839133017
30
0
0
SPLINE
5
138
100
AcDbEntity
8
OUTER_PROFILES
100
AcDbSpline
70
0
71
3
72
12
73
8
74
0
42
0.000000001
43
0.0000000001
44
0.0000000001
40
-0.010759096655459752
40
-0.010759096655459752
40
-0.010759096655459752
40
-0.010759096655459752
40
-0.0073612264782606969
40
-0.0073612264782606969
40
-0.0038024925357531066
40
-0.0038024925357531066
40
-0
40
-0
40
-0
40
-0
10
23.345478030661127
20
10.235987591000972
30
0
10
23.352590798299712
20
10.244862709714775
30
0
10
23.361119014284807
20
10.25252192601994
30
0
10
23.380763561802333
20
10.265051343079232
30
0
10
23.391857796858204
20
10.269691435683974
30
0
10
23.415870112432337
20
10.275187956596582
30
0
10
23.428665702783302
20
10.275718729688279
30
0
10
23.4412158991063
20
10.273944591439472
30
0
0
ARC
5
139
100
AcDbEntity
8
OUTER_PROFILES
100
AcDbCircle
10
-28.259667575331715
20
6.2976190474000058
30
0
40
6.2976190474000013
210
0
220
0
230
-1
100
AcDbArc
50
36.360616679782325
51
38.709658826708264
0
SPLINE
5
140
100
AcDbEntity
8
OUTER_PROFILES
100
AcDbSpline
70
0
71
3
72
12
73
8
74
0
42
0.000000001
43
0.0000000001
44
0.0000000001
40
-0.010786547502025732
40
-0.010786547502025732
40
-0.010786547502025732
40
-0.010786547502025732
40
-0.0073042827874959049
40
-0.0073042827874959049
40
-0.0041221804360762442
40
-0.0041221804360762442
40
-0
40
-0
40
-0
40
-0
10
23.176175151596645
20
9.9289750153813134
30
0
10
23.171648041859303
20
9.9396526843945114
30
0
10
23.168929436009371
20
9.9510393412232734
30
0
10
23.167448998237369
20
9.9732525150948081
30
0
10
23.168376031307638
20
9.983922134896785
30
0
10
23.174153129564719
20
10.007608526360311
30
0
10
23.180039152103504
20
10.020194708449178
30
0
10
23.188185480485988
20
10.031260035475121
30
0
0
SPLINE
5
141
100
AcDbEntity
8
OUTER_PROFILES
100
AcDbSpline
70
0
71
3
72
10
73
6
74
0
42
0.000000001
43
0.0000000001
44
0.0000000001
40
-0.0085723937232002022
40
-0.0085723937232002022
40
-0.0085723937232002022
40
-0.0085723937232002022
40
-0.0041488144964328894
40
-0.0041488144964328894
40
-0
40
-0
40
-0
40
-0
10
23.211997978098914
20
9.8487457811236041
30
0
10
23.205533811220704
20
9.8625105719910025
30
0
10
23.19911605584123
20
9.8765417762478798
30
0
10
23.18713438480512
20
9.9034306933472251
30
0
10
23.181571296063915
20
9.9162418530937373
30
0
10
23.176175151596645
20
9.9289750153813152
30
0
0
ARC
5
142
100
AcDbEntity
8
OUTER_PROFILES
100
AcDbCircle
10
-25.293860091637281
20
10.826421668033802
30
0
40
2.2999999999200154
210
-0
220
0
230
-1
100
AcDbArc
50
310.11819357522381
51
334.84449602687812
0
ARC
5
143
100
AcDbEntity
8
OUTER_PROFILES
100
AcDbCircle
10
23.677727569002887
20
8.9084390305483119
30
0
40
0.2080952391832388
210
0
220
0
230
1
100
AcDbArc
50
-29.674778914644371
51
49.88180642477554
0
ARC
5
144
100
AcDbEntity
8
OUTER_PROFILES
100
AcDbCircle
10
-28.259667575331715
20
6.2976190474000058
30
0
40
5.0654761508714286
210
0
220
0
230
-1
100
AcDbArc
50
28.252639448988205
51
29.674778914645312
0
ARC
5
145
100
AcDbEntity
8
OUTER_PROFILES
100
AcDbCircle
10
23.614342372834983
20
8.7939181018107195
30
0
40
0.20809523918323788
210
0
220
0
230
1
100
AcDbArc
50
252.19077521159147
51
331.74736055101397
0
ARC
5
146
100
AcDbEntity
8
OUTER_PROFILES
100
AcDbCircle
10
-22.847244963758861
20
6.4060103788446412
30
0
40
2.2999999999200025
210
0
220
0
230
-1
100
AcDbArc
50
64.098285482248329
51
107.80922478840978
0
LINE
5
147
100
AcDbEntity
8
OUTER_PROFILES
100
AcDbLine
10
21.842538938795542
20
8.4749632064930687
30
0
11
-0.28249877354976416
21
1.9592676596982095
31
0
0
ARC
5
148
100
AcDbEntity
8
OUTER_PROFILES
100
AcDbCircle
10
0
20
0.99999999999999978
30
0
40
1.0000000000000002
210
-0
220
0
230
-1
100
AcDbArc
50
-90
51
73.590603909502192
0
LINE
5
149
100
AcDbEntity
8
OUTER_PROFILES
100
AcDbLine
10
-8.6736173798840355e-17
20
-4.163336342344337e-16
30
0
11
28.259667575331715
21
3.3306690738754692e-15
31
0
0
ARC
5
150
100
AcDbEntity
8
OUTER_PROFILES
100
AcDbCircle
10
-28.259667575331715
20
6.2976190474000058
30
0
40
6.2976190474000013
210
0
220
0
230
-1
100
AcDbArc
50
173.50347382263979
51
270
0
SPLINE
5
151
100
AcDbEntity
8
OUTER_PROFILES
100
AcDbSpline
70
0
71
3
72
12
73
8
74
0
42
0.000000001
43
0.0000000001
44
0.0000000001
40
-0.010786547510669771
40
-0.010786547510669771
40
-0.010786547510669771
40
-0.010786547510669771
40
-0.0073042827954054399
40
-0.0073042827954054399
40
-0.0041221804431889183
40
-0.0041221804431889183
40
-0
40
-0
40
-0
40
-0
10
34.456080542546069
20
7.093299717080475
30
0
10
34.466661808171793
20
7.0885516484509061
30
0
10
34.476399580822353
20
7.0820537599379474
30
0
10
34.492593613781978
20
7.0667773046779718
30
0
10
34.499171234964734
20
7.0583253772964971
30
0
10
34.51104716001467
20
7.037032598959108
30
0
10
34.515293178111683
20
7.0238027625493951
30
0
10
34.516847830622595
20
7.0101503933583658
30
0
0
SPLINE
5
152
100
AcDbEntity
8
OUTER_PROFILES
100
AcDbSpline
70
0
71
3
72
10
73
6
74
0
42
0.000000001
43
0.0000000001
44
0.0000000001
40
-0.0085723937233461271
40
-0.0085723937233461271
40
-0.0085723937233461271
40
-0.0085723937233461271
40
-0.0041488144964584002
40
-0.0041488144964584002
40
-0
40
-0
40
-0
40
-0
10
34.375250814610013
20
7.1277461974518186
30
0
10
34.389351819729022
20
7.1220526418240961
30
0
10
34.403600009936518
20
7.1161322235263578
30
0
10
34.430672304676065
20
7.1045708585070226
30
0
10
34.443464138889972
20
7.0989634751740214
30
0
10
34.456080542546069
20
7.0932997170804715
30
0
0
ARC
5
153
100
AcDbEntity
8
OUTER_PROFILES
100
AcDbCircle
10
-33.514126380041425
20
4.9950332050824926
30
0
40
2.2999999999199936
210
0
220
0
230
-1
100
AcDbArc
50
87.261050718081236
51
111.98735316973571
0
ARC
5
154
100
AcDbEntity
8
OUTER_PROFILES
100
AcDbCircle
10
33.394275849348041
20
7.5002632501491773
30
0
40
0.20809523918323966
210
0
220
0
230
1
100
AcDbArc
50
193.18236394249692
51
272.73894928191919
0
ARC
5
155
100
AcDbEntity
8
OUTER_PROFILES
100
AcDbCircle
10
-28.259667575331715
20
6.2976190474000058
30
0
40
5.0654761508714312
210
0
220
0
230
-1
100
AcDbArc
50
165.39549659184559
51
166.81763605750274
0
ARC
5
156
100
AcDbEntity
8
OUTER_PROFILES
100
AcDbCircle
10
33.362846472413707
20
7.6273259137356328
30
0
40
0.208095239183238
210
0
220
0
230
1
100
AcDbArc
50
115.04791806873115
51
194.60450340815464
0
ARC
5
157
100
AcDbEntity
8
OUTER_PROFILES
100
AcDbCircle
10
-32.300978930538626
20
9.8995448846811058
30
0
40
2.299999999920002
210
0
220
-0
230
-1
100
AcDbArc
50
220.22577947961278
51
244.95208193126706
0
SPLINE
5
158
100
AcDbEntity
8
OUTER_PROFILES
100
AcDbSpline
70
0
71
3
72
10
73
6
74
0
42
0.000000001
43
0.0000000001
44
0.0000000001
40
-0.0088408707501610902
40
-0.0088408707501610902
40
-0.0088408707501610902
40
-0.0088408707501610902
40
-0.004562120438242695
40
-0.004562120438242695
40
-0
40
-0
40
-0
40
-0
10
34.112492348289479
20
8.4823578339106263
30
0
10
34.103971122015594
20
8.471465612044609
30
0
10
34.095268413121225
20
8.4605414809795079
30
0
10
34.076707604994695
20
8.4376926147725584
30
0
10
34.066862407756595
20
8.4258126161053397
30
0
10
34.057041663659589
20
8.4142019354011399
30
0
0
SPLINE
5
159
100
AcDbEntity
8
OUTER_PROFILES
100
AcDbSpline
70
0
71
3
72
12
73
8
74
0
42
0.000000001
43
0.0000000001
44
0.0000000001
40
-0.010759096655496146
40
-0.010759096655496146
40
-0.010759096655496146
40
-0.010759096655496146
40
-0.0073612264782182378
40
-0.0073612264782182378
40
-0.00380249253572333
40
-0.00380249253572333
40
-0
40
-0
40
-0
40
-0
10
34.127489555890975
20
8.5842477602961083
30
0
10
34.131619250338836
20
8.5736503634745187
30
0
10
34.133988218240233
20
8.5624351036286264
30
0
10
34.135016737949435
20
8.5391577179025582
30
0
10
34.1334880584931
20
8.527229782206236
30
0
10
34.126242027448782
20
8.5036862464591234
30
0
10
34.120303895254381
20
8.4923395536129878
30
0
10
34.112492348299661
20
8.4823578338992611
30
0
0
ARC
5
160
100
AcDbEntity
8
OUTER_PROFILES
100
AcDbCircle
10
-28.259667575331715
20
6.2976190474000058
30
0
40
6.2976190474000013
210
0
220
0
230
-1
100
AcDbArc
50
156.36061667978259
51
158.70965882670856
0
SPLINE
5
161
100
AcDbEntity
8
OUTER_PROFILES
100
AcDbSpline
70
0
71
3
72
12
73
8
74
0
42
0.000000001
43
0.0000000001
44
0.0000000001
40
-0.010786547509114505
40
-0.010786547509114505
40
-0.010786547509114505
40
-0.010786547509114505
40
-0.0073042827942067338
40
-0.0073042827942067338
40
-0.0041221804423189146
40
-0.0041221804423189146
40
-0
40
-0
40
-0
40
-0
10
33.946260305655308
20
8.8843746423096253
30
0
10
33.957770993135796
20
8.8829563998421168
30
0
10
33.968991430132235
20
8.8796174531597512
30
0
10
33.988968821880064
20
8.8697929629528911
30
0
10
33.997745467138898
20
8.8636553188688811
30
0
10
34.015369934751796
20
8.8468090092890623
30
0
10
34.023326876915704
20
8.8354184731955741
30
0
10
34.028836567038468
20
8.8228308823367421
30
0
0
SPLINE
5
162
100
AcDbEntity
8
OUTER_PROFILES
100
AcDbSpline
70
0
71
3
72
10
73
6
74
0
42
0.000000001
43
0.0000000001
44
0.0000000001
40
-0.0085723937228974721
40
-0.0085723937228974721
40
-0.0085723937228974721
40
-0.0085723937228974721
40
-0.0041488144963523722
40
-0.0041488144963523722
40
-0
40
-0
40
-0
40
-0
10
33.858868337410819
20
8.8934657816521483
30
0
10
33.874021079418831
20
8.8921815189492683
30
0
10
33.889381336440827
20
8.8907238560147253
30
0
10
33.918658657247448
20
8.8876558289620924
30
0
10
33.932534991410385
20
8.886068025262233
30
0
10
33.946260305655301
20
8.8843746423096235
30
0
0
ARC
5
163
100
AcDbEntity
8
OUTER_PROFILES
100
AcDbCircle
10
-33.664629435373342
20
6.6016823606964774
30
0
40
2.2999999999200025
210
0
220
0
230
-1
100
AcDbArc
50
70.118193575223884
51
94.844496026878289
0
ARC
5
164
100
AcDbEntity
8
OUTER_PROFILES
100
AcDbCircle
10
32.811674008610638
20
8.9602854999228256
30
0
40
0.208095239183238
210
0
220
0
230
1
100
AcDbArc
50
210.32522108535386
51
289.88180642477408
0
ARC
5
165
100
AcDbEntity
8
OUTER_PROFILES
100
AcDbCircle
10
-28.259667575331715
20
6.2976190474000058
30
0
40
5.0654761508714312
210
0
220
0
230
-1
100
AcDbArc
50
148.25263944898825
51
149.67477891464557
0
ARC
5
166
100
AcDbEntity
8
OUTER_PROFILES
100
AcDbCircle
10
32.744188573142843
20
9.0724391543968892
30
0
40
0.20809523918323883
210
0
220
0
230
1
100
AcDbArc
50
132.19077521159227
51
211.74736055100746
0
ARC
5
167
100
AcDbEntity
8
OUTER_PROFILES
100
AcDbCircle
10
-31.059748527699234
20
10.930718859317082
30
0
40
2.2999999999200043
210
0
220
-0
230
-1
100
AcDbArc
50
203.08292233675547
51
227.80922478841012
0
SPLINE
5
168
100
AcDbEntity
8
OUTER_PROFILES
100
AcDbSpline
70
0
71
3
72
10
73
6
74
0
42
0.000000001
43
0.0000000001
44
0.0000000001
40
-0.0088408707099623604
40
-0.0088408707099623604
40
-0.0088408707099623604
40
-0.0088408707099623604
40
-0.0045621204381639472
40
-0.0045621204381639472
40
-0
40
-0
40
-0
40
-0
10
33.208504703334881
20
10.110446406286343
30
0
10
33.203572590014765
20
10.097526419774123
30
0
10
33.198476462148996
20
10.084522448563813
30
0
10
33.187475080243793
20
10.057217799260993
30
0
10
33.181568968574723
20
10.042963672773041
30
0
10
33.175606840799148
20
10.028974106896527
30
0
0
SPLINE
5
169
100
AcDbEntity
8
OUTER_PROFILES
100
AcDbSpline
70
0
71
3
72
12
73
8
74
0
42
0.000000001
43
0.0000000001
44
0.0000000001
40
-0.010759096655911349
40
-0.010759096655911349
40
-0.010759096655911349
40
-0.010759096655911349
40
-0.0073612264783793676
40
-0.0073612264783793676
40
-0.0038024925357253766
40
-0.0038024925357253766
40
-0
40
-0
40
-0
40
-0
10
33.192803044065641
20
10.212230153665171
30
0
10
33.199872905323915
20
10.203320818258547
30
0
10
33.205442382501261
20
10.193302086485577
30
0
10
33.213286337855223
20
10.171362011201053
30
0
10
33.215341394104399
20
10.159513414040218
30
0
10
33.21535686287335
20
10.134880046383461
30
0
10
33.213027041659757
20
10.122287160073498
30
0
10
33.208504703353547
20
10.110446406275129
30
0
0
ARC
5
170
100
AcDbEntity
8
OUTER_PROFILES
100
AcDbCircle
10
-28.259667575331715
20
6.2976190474000058
30
0
40
6.2976190473999996
210
0
220
0
230
-1
100
AcDbArc
50
139.21775953692546
51
141.56680168385137
0
SPLINE
5
171
100
AcDbEntity
8
OUTER_PROFILES
100
AcDbSpline
70
0
71
3
72
12
73
8
74
0
42
0.000000001
43
0.0000000001
44
0.0000000001
40
-0.01078654749941774
40
-0.01078654749941774
40
-0.01078654749941774
40
-0.01078654749941774
40
-0.0073042827848852198
40
-0.0073042827848852198
40
-0.0041221804335227138
40
-0.0041221804335227138
40
-0
40
-0
40
-0
40
-0
10
32.931161349474124
20
10.445604981141102
30
0
10
32.942578683721877
20
10.447642581904756
30
0
10
32.954284800006398
20
10.447759257117447
30
0
10
32.976270471632631
20
10.444259681024917
30
0
10
32.986466297527343
20
10.440981676843952
30
0
10
33.008273296400517
20
10.430078704548807
30
0
10
33.01923415339062
20
10.421539567891163
30
0
10
33.02820932096008
20
10.411135218071376
30
0
0
SPLINE
5
172
100
AcDbEntity
8
OUTER_PROFILES
100
AcDbSpline
70
0
71
3
72
10
73
6
74
0
42
0.000000001
43
0.0000000001
44
0.0000000001
40
-0.0085723937232978671
40
-0.0085723937232978671
40
-0.0085723937232978671
40
-0.0085723937232978671
40
-0.0041488144964494334
40
-0.0041488144964494334
40
-0
40
-0
40
-0
40
-0
10
32.844972300813076
20
10.428532991828412
30
0
10
32.85983039208601
20
10.43177213442744
30
0
10
32.87493788967857
20
10.434906746604685
30
0
10
32.903818818116093
20
10.440604665186299
30
0
10
32.917546679042957
20
10.443177524446231
30
0
10
32.931161349474124
20
10.445604981141098
30
0
0
ARC
5
173
100
AcDbEntity
8
OUTER_PROFILES
100
AcDbCircle
10
-33.334877910156109
20
8.1813141565641931
30
0
40
2.29999999992001
210
0
220
0
230
-1
100
AcDbArc
50
52.975336432366952
51
77.701638884021293
0
ARC
5
174
100
AcDbEntity
8
OUTER_PROFILES
100
AcDbCircle
10
31.824606420125185
20
10.183718150470554
30
0
40
0.208095239183238
210
0
220
0
230
1
100
AcDbArc
50
227.46807822821171
51
307.02466356763256
0
ARC
5
175
100
AcDbEntity
8
OUTER_PROFILES
100
AcDbCircle
10
-28.259667575331715
20
6.2976190474000058
30
0
40
5.0654761508714294
210
0
220
0
230
-1
100
AcDbArc
50
131.10978230613117
51
132.53192177178843
0
ARC
5
176
100
AcDbEntity
8
OUTER_PROFILES
100
AcDbCircle
10
31.727061303220204
20
10.270997451454001
30
0
40
0.20809523918323569
210
0
220
0
230
1
100
AcDbArc
50
149.33363235444799
51
228.89021769386827
0
ARC
5
177
100
AcDbEntity
8
OUTER_PROFILES
100
AcDbCircle
10
-29.569718644289125
20
11.550221583640585
30
0
40
2.2999999999200043
210
0
220
-0
230
-1
100
AcDbArc
50
185.94006519389831
51
210.66636764555278
0
SPLINE
5
178
100
AcDbEntity
8
OUTER_PROFILES
100
AcDbSpline
70
0
71
3
72
10
73
6
74
0
42
0.000000001
43
0.0000000001
44
0.0000000001
40
-0.0088408707557611141
40
-0.0088408707557611141
40
-0.0088408707557611141
40
-0.0088408707557611141
40
-0.0045621204382638387
40
-0.0045621204382638387
40
-0
40
-0
40
-0
40
-0
10
31.864791161956504
20
11.399748535506067
30
0
10
31.86388640145665
20
11.385948781777318
30
0
10
31.862849668074752
20
11.372020430659584
30
0
10
31.860385233354805
20
11.342686135920221
30
0
10
31.858942991194922
20
11.327324423302709
30
0
10
31.85736924095778
20
11.312199006573675
30
0
0
SPLINE
5
179
100
AcDbEntity
8
OUTER_PROFILES
100
AcDbSpline
70
0
71
3
72
12
73
8
74
0
42
0.000000001
43
0.0000000001
44
0.0000000001
40
-0.010759096655958235
40
-0.010759096655958235
40
-0.010759096655958235
40
-0.010759096655958235
40
-0.0073612264782314243
40
-0.0073612264782314243
40
-0.0038024925357451403
40
-0.0038024925357451403
40
-0
40
-0
40
-0
40
-0
10
31.819785797134866
20
11.492382171254686
30
0
10
31.82916763700138
20
11.485952530813638
30
0
10
31.83744275096867
20
11.478020535398205
30
0
10
31.851405172111946
20
11.459367242528087
30
0
10
31.856861363300638
20
11.448650783758287
30
0
10
31.864136957416129
20
11.425116367010958
30
0
10
31.865622462023076
20
11.412396220448638
30
0
10
31.864791161970452
20
11.399748535502628
30
0
0
ARC
5
180
100
AcDbEntity
8
OUTER_PROFILES
100
AcDbCircle
10
-28.259667575331715
20
6.2976190474000058
30
0
40
6.2976190474000013
210
0
220
0
230
-1
100
AcDbArc
50
122.07490239406819
51
124.42394454099417
0
SPLINE
5
181
100
AcDbEntity
8
OUTER_PROFILES
100
AcDbSpline
70
0
71
3
72
12
73
8
74
0
42
0.000000001
43
0.0000000001
44
0.0000000001
40
-0.010786547505804546
40
-0.010786547505804546
40
-0.010786547505804546
40
-0.010786547505804546
40
-0.0073042827909885547
40
-0.0073042827909885547
40
-0.0041221804392448944
40
-0.0041221804392448944
40
-0
40
-0
40
-0
40
-0
10
31.500979670947629
20
11.638268566623227
30
0
10
31.51128917169526
20
11.643580960846638
30
0
10
31.52244082744901
20
11.647142890853154
30
0
10
31.544481255521198
20
11.650279181584423
30
0
10
31.555190318167242
20
11.650152082374539
30
0
10
31.579242200772939
20
11.64616122431061
30
0
10
31.592233052363152
20
11.641232226850978
30
0
10
31.603876214381827
20
11.633935590173481
30
0
0
SPLINE
5
182
100
AcDbEntity
8
OUTER_PROFILES
100
AcDbSpline
70
0
71
3
72
10
73
6
74
0
42
0.000000001
43
0.0000000001
44
0.0000000001
40
-0.0085723937229704103
40
-0.0085723937229704103
40
-0.0085723937229704103
40
-0.0085723937229704103
40
-0.0041488144963696778
40
-0.0041488144963696778
40
-0
40
-0
40
-0
40
-0
10
31.423651817077953
20
11.596550369824957
30
0
10
31.436895051002534
20
11.604025105691203
30
0
10
31.450407421706466
20
11.611473468932294
30
0
10
31.476325760542352
20
11.625431048077459
30
0
10
31.488685367545571
20
11.631935960461025
30
0
10
31.500979670947636
20
11.638268566623232
30
0
0
ARC
5
183
100
AcDbEntity
8
OUTER_PROFILES
100
AcDbCircle
10
-32.554171674496011
20
9.5935713755228651
30
0
40
2.29999999991999
210
0
220
0
230
-1
100
AcDbArc
50
35.832479289509678
51
60.55878174116414
0
ARC
5
184
100
AcDbEntity
8
OUTER_PROFILES
100
AcDbCircle
10
30.520778370803395
20
11.061853841845444
30
0
40
0.20809523918323819
210
0
220
0
230
1
100
AcDbArc
50
244.6109353710699
51
324.16752071049024
0
ARC
5
185
100
AcDbEntity
8
OUTER_PROFILES
100
AcDbCircle
10
-28.259667575331715
20
6.2976190474000058
30
0
40
5.0654761508714312
210
0
220
0
230
-1
100
AcDbArc
50
113.96692516327428
51
115.38906462893127
0
ARC
5
186
100
AcDbEntity
8
OUTER_PROFILES
100
AcDbCircle
10
30.401840884167932
20
11.116503640426989
30
0
40
0.20809523918323902
210
0
220
0
230
1
100
AcDbArc
50
166.47648949730456
51
246.03307483673083
0
ARC
5
187
100
AcDbEntity
8
OUTER_PROFILES
100
AcDbCircle
10
-27.963284974337729
20
11.70300752195255
30
0
40
2.2999999999200034
210
0
220
0
230
-1
100
AcDbArc
50
168.79720805104114
51
193.52351050269547
0
SPLINE
5
188
100
AcDbEntity
8
OUTER_PROFILES
100
AcDbSpline
70
0
71
3
72
10
73
6
74
0
42
0.000000001
43
0.0000000001
44
0.0000000001
40
-0.0088408707708629193
40
-0.0088408707708629193
40
-0.0088408707708629193
40
-0.0088408707708629193
40
-0.0045621204382766964
40
-0.0045621204382766964
40
-0
40
-0
40
-0
40
-0
10
30.20074656907709
20
12.235704069383271
30
0
10
30.203949553364801
20
12.222250717138849
30
0
10
30.207064332688105
20
12.208635581116653
30
0
10
30.213355821061029
20
12.179878121851715
30
0
10
30.216505597955525
20
12.164773778684667
30
0
10
30.219460059871821
20
12.149856470756554
30
0
0
SPLINE
5
189
100
AcDbEntity
8
OUTER_PROFILES
100
AcDbSpline
70
0
71
3
72
12
73
8
74
0
42
0.000000001
43
0.0000000001
44
0.0000000001
40
-0.010759096655516569
40
-0.010759096655516569
40
-0.010759096655516569
40
-0.010759096655516569
40
-0.0073612264781579145
40
-0.0073612264781579145
40
-0.0038024925357301813
40
-0.0038024925357301813
40
-0
40
-0
40
-0
40
-0
10
30.130436422875398
20
12.310956688447225
30
0
10
30.141296623713501
20
12.307578044735759
30
0
10
30.151542094274081
20
12.30243757828263
30
0
10
30.17038235881396
20
12.288728494757656
30
0
10
30.178754878410775
20
12.280096378768484
30
0
10
30.192644129406567
20
12.259752049137411
30
0
10
30.19781296623043
20
12.24803488316644
30
0
10
30.200746569088949
20
12.235704069383955
30
0
0
ARC
5
190
100
AcDbEntity
8
OUTER_PROFILES
100
AcDbCircle
10
-28.259667575331715
20
6.2976190474000058
30
0
40
6.2976190473999996
210
0
220
0
230
-1
100
AcDbArc
50
104.93204525121102
51
107.28108739813702
0
CIRCLE
5
191
100
AcDbEntity
8
INTERIOR_PROFILES
100
AcDbCircle
10
-28.259667575331715
20
6.2976190474000049
30
0
40
1.0499999999999992
210
0
220
0
230
-1
0
ENDSEC
0
SECTION
2
OBJECTS
0
DICTIONARY
5
C
100
AcDbDictionary
3
ACAD_GROUP
350
D
3
ACAD_MLINESTYLE
350
17
0
DICTIONARY
5
D
100
AcDbDictionary
0
DICTIONARY
5
1A
330
C
100
AcDbDictionary
0
DICTIONARY
5
17
100
AcDbDictionary
0
ENDSEC
0
EOF
