0
SECTION
2
HEADER
9
$INSUNITS
70
4
9
$ACADVER
1
AC1014
9
$HANDSEED
5
FFFF
0
ENDSEC
0
SECTION
2
TABLES
0
TABLE
2
VPORT
5
8
100
AcDbSymbolTable
0
ENDTAB
0
TABLE
2
LTYPE
5
5
100
AcDbSymbolTable
0
LTYPE
5
14
100
AcDbSymbolTableRecord
100
AcDbLinetypeTableRecord
2
BYBLOCK
70
0
0
LTYPE
5
15
100
AcDbSymbolTableRecord
100
AcDbLinetypeTableRecord
2
BYLAYER
70
0
0
ENDTAB
0
TABLE
2
LAYER
5
2
100
AcDbSymbolTable
70
2
0
LAYER
5
50
100
AcDbSymbolTableRecord
100
AcDbLayerTableRecord
2
0
70
0
6
CONTINUOUS
0
ENDTAB
0
TABLE
2
STYLE
5
3
100
AcDbSymbolTable
70
1
0
STYLE
5
11
100
AcDbSymbolTableRecord
100
AcDbTextStyleTableRecord
2
STANDARD
70
0
0
ENDTAB
0
TABLE
2
VIEW
5
6
100
AcDbSymbolTable
70
0
0
ENDTAB
0
TABLE
2
UCS
5
7
100
AcDbSymbolTable
70
0
0
ENDTAB
0
TABLE
2
APPID
5
9
100
AcDbSymbolTable
70
2
0
APPID
5
12
100
AcDbSymbolTableRecord
100
AcDbRegAppTableRecord
2
ACAD
70
0
0
ENDTAB
0
TABLE
2
DIMSTYLE
5
A
100
AcDbSymbolTable
70
1
0
ENDTAB
0
TABLE
2
BLOCK_RECORD
5
1
100
AcDbSymbolTable
70
1
0
BLOCK_RECORD
5
1F
100
AcDbSymbolTableRecord
100
AcDbBlockTableRecord
2
*MODEL_SPACE
0
BLOCK_RECORD
5
1B
100
AcDbSymbolTableRecord
100
AcDbBlockTableRecord
2
*PAPER_SPACE
0
ENDTAB
0
ENDSEC
0
SECTION
2
BLOCKS
0
BLOCK
5
20
100
AcDbEntity
100
AcDbBlockBegin
2
*MODEL_SPACE
0
ENDBLK
5
21
100
AcDbEntity
100
AcDbBlockEnd
0
BLOCK
5
1C
100
AcDbEntity
100
AcDbBlockBegin
2
*PAPER_SPACE
0
ENDBLK
5
1D
100
AcDbEntity
100
AcDbBlockEnd
0
ENDSEC
0
SECTION
2
ENTITIES
0
LWPOLYLINE
5
100
100
AcDbEntity
8
OUTER_PROFILES
100
AcDbPolyline
90
20
70
1
43
0.0
10
27.999999999999993
20
18.992920065876966
42
-0.41421356237309637
10
29
20
17.992920065876966
10
28.999999999999993
20
4.4999999999999947
10
38.385840131753952
20
4.4999999999999973
10
38.385840131753952
20
16.842012759203101
42
-0.10289265059382706
10
38.468770075500714
20
17.240738870617555
10
40.624416701934152
20
22.198726111414452
42
-0.29859493556370825
10
41.541486758187389
20
22.799999999999997
10
52.48584013175396
20
22.799999999999997
42
-0.41421356237309509
10
53.48584013175396
20
21.799999999999997
10
53.48584013175396
20
-8.1999999999999993
42
-0.4142135623730947
10
52.48584013175396
20
-9.1999999999999993
10
41.541486758187389
20
-9.1999999999999975
42
-0.29859493556370903
10
40.624416701934152
20
-8.5987261114144484
10
38.385840131753952
20
-3.4499999999999931
10
34.992920065876973
20
0
10
0
20
6.9388939039072284e-16
42
-0.41421356237309509
10
-1.0000000000000053
20
1.0000000000000009
10
-1.0000000000000002
20
17.992920065876969
42
-0.41421356237309509
10
0
20
18.992920065876969
0
LWPOLYLINE
5
101
100
AcDbEntity
8
INTERIOR_PROFILES
100
AcDbPolyline
90
4
70
1
43
0.0
10
4.9999999999999867
20
8.3929200658769663
10
4.9999999999999867
20
16.992920065876966
10
24.999999999999986
20
16.992920065876966
10
24.999999999999986
20
8.392920065876968
0
LWPOLYLINE
5
102
100
AcDbEntity
8
INTERIOR_PROFILES
100
AcDbPolyline
90
4
70
1
43
0.0
10
51.485840131753953
20
16.800000000000001
10
51.485840131753953
20
-3.1999999999999984
10
42.885840131753952
20
-3.1999999999999984
10
42.885840131753952
20
16.800000000000001
0
CIRCLE
5
103
100
AcDbEntity
8
INTERIOR_PROFILES
100
AcDbCircle
10
47.185840131753949
20
-4.9500000000000011
30
0
40
1.0499999999999998
210
-0
220
0
230
1
0
CIRCLE
5
104
100
AcDbEntity
8
INTERIOR_PROFILES
100
AcDbCircle
10
47.185840131753949
20
18.549999999999997
30
0
40
1.0499999999999998
210
-0
220
0
230
1
0
CIRCLE
5
105
100
AcDbEntity
8
INTERIOR_PROFILES
100
AcDbCircle
10
-3.249999999999984
20
12.692920065876967
30
0
40
1.0499999999999998
210
0
220
0
230
-1
0
CIRCLE
5
106
100
AcDbEntity
8
INTERIOR_PROFILES
100
AcDbCircle
10
-26.749999999999989
20
12.692920065876967
30
0
40
1.0499999999999998
210
0
220
0
230
-1
0
LINE
5
107
100
AcDbEntity
8
BEND
100
AcDbLine
10
36.689380098815462
20
-1.725000000000001
30
-2.3628778638509474e-14
11
36.689380098815462
21
4.4999999999999973
31
-2.3628778638509474e-14
0
LINE
5
108
100
AcDbEntity
8
BEND
100
AcDbLine
10
30.696460032938482
20
4.4999999999999947
30
-2.5532244828582976e-14
11
30.696460032938482
21
0
31
-2.5763446046596199e-14
0
LINE
5
109
100
AcDbEntity
8
BEND
100
AcDbLine
10
29
20
6.1964600329384822
30
-2.8171365027614475e-14
11
-1.0000000000000053
21
6.1964600329384822
31
-9.3401888706736259e-16
0
LINE
5
110
100
AcDbEntity
8
BEND_EXTENT
100
AcDbLine
10
-1.0000000000000053
20
7.892920065876968
30
-1.6766033311479084e-15
11
29.000000000000004
21
7.8929200658769672
31
-2.8816559364315377e-14
0
LINE
5
111
100
AcDbEntity
8
BEND_EXTENT
100
AcDbLine
10
28.999999999999993
20
4.4999999999999947
30
-2.6873669071221356e-14
11
-1.0000000000000053
21
4.4999999999999947
31
-5.663803065227519e-16
0
LINE
5
112
100
AcDbEntity
8
BEND_EXTENT
100
AcDbLine
10
28.999999999999993
20
0
30
-2.5763446046596199e-14
11
28.999999999999993
21
4.4999999999999947
31
-2.6873669071221356e-14
0
LINE
5
113
100
AcDbEntity
8
BEND_EXTENT
100
AcDbLine
10
32.392920065876972
20
4.4999999999999947
30
-2.0511093865802136e-14
11
32.392920065876972
21
0
31
-2.2731539915052449e-14
0
LINE
5
114
100
AcDbEntity
8
BEND_EXTENT
100
AcDbLine
10
34.992920065876973
20
0
30
-2.5699843216593926e-14
11
34.992920065876973
21
4.4999999999999973
31
-2.3479397167343613e-14
0
LINE
5
115
100
AcDbEntity
8
BEND_EXTENT
100
AcDbLine
10
38.385840131753952
20
4.4999999999999973
30
-2.2529159206972034e-14
11
38.385840131753952
21
-3.4499999999999931
31
-2.3778160109675335e-14
0
ENDSEC
0
SECTION
2
OBJECTS
0
DICTIONARY
5
C
100
AcDbDictionary
3
ACAD_GROUP
350
D
3
ACAD_MLINESTYLE
350
17
0
DICTIONARY
5
D
100
AcDbDictionary
0
DICTIONARY
5
1A
330
C
100
AcDbDictionary
0
DICTIONARY
5
17
100
AcDbDictionary
0
ENDSEC
0
EOF
