0
SECTION
2
HEADER
9
$INSUNITS
70
4
9
$ACADVER
1
AC1014
9
$HANDSEED
5
FFFF
0
ENDSEC
0
SECTION
2
TABLES
0
TABLE
2
VPORT
5
8
100
AcDbSymbolTable
0
ENDTAB
0
TABLE
2
LTYPE
5
5
100
AcDbSymbolTable
0
LTYPE
5
14
100
AcDbSymbolTableRecord
100
AcDbLinetypeTableRecord
2
BYBLOCK
70
0
0
LTYPE
5
15
100
AcDbSymbolTableRecord
100
AcDbLinetypeTableRecord
2
BYLAYER
70
0
0
ENDTAB
0
TABLE
2
LAYER
5
2
100
AcDbSymbolTable
70
2
0
LAYER
5
50
100
AcDbSymbolTableRecord
100
AcDbLayerTableRecord
2
0
70
0
6
CONTINUOUS
0
ENDTAB
0
TABLE
2
STYLE
5
3
100
AcDbSymbolTable
70
1
0
STYLE
5
11
100
AcDbSymbolTableRecord
100
AcDbTextStyleTableRecord
2
STANDARD
70
0
0
ENDTAB
0
TABLE
2
VIEW
5
6
100
AcDbSymbolTable
70
0
0
ENDTAB
0
TABLE
2
UCS
5
7
100
AcDbSymbolTable
70
0
0
ENDTAB
0
TABLE
2
APPID
5
9
100
AcDbSymbolTable
70
2
0
APPID
5
12
100
AcDbSymbolTableRecord
100
AcDbRegAppTableRecord
2
ACAD
70
0
0
ENDTAB
0
TABLE
2
DIMSTYLE
5
A
100
AcDbSymbolTable
70
1
0
ENDTAB
0
TABLE
2
BLOCK_RECORD
5
1
100
AcDbSymbolTable
70
1
0
BLOCK_RECORD
5
1F
100
AcDbSymbolTableRecord
100
AcDbBlockTableRecord
2
*MODEL_SPACE
0
BLOCK_RECORD
5
1B
100
AcDbSymbolTableRecord
100
AcDbBlockTableRecord
2
*PAPER_SPACE
0
ENDTAB
0
ENDSEC
0
SECTION
2
BLOCKS
0
BLOCK
5
20
100
AcDbEntity
100
AcDbBlockBegin
2
*MODEL_SPACE
0
ENDBLK
5
21
100
AcDbEntity
100
AcDbBlockEnd
0
BLOCK
5
1C
100
AcDbEntity
100
AcDbBlockBegin
2
*PAPER_SPACE
0
ENDBLK
5
1D
100
AcDbEntity
100
AcDbBlockEnd
0
ENDSEC
0
SECTION
2
ENTITIES
0
LWPOLYLINE
5
100
100
AcDbEntity
8
0
100
AcDbPolyline
90
60
70
1
43
0.0
10
1.4650942325057068
20
1.2716014708210159
10
1.4437859357587801
20
0.86501494801023815
42
0.29621349496207977
10
1.4710178875095314
20
0.81784782398867262
10
1.8337862934735099
20
0.63300808887749804
42
-0.41421356237309087
10
1.8556370946959508
20
0.56575823768110267
10
1.6707973595847774
20
0.2029898317171247
42
0.29621349496207833
10
1.6764903877213473
20
0.14882428717765567
10
1.9327147237998483
20
-0.16758641688076736
42
-0.41421356237308815
10
1.9253234452794916
20
-0.23790973450610753
10
1.6089127412210689
20
-0.49413407058460845
42
0.29621349496208055
10
1.5920824694591074
20
-0.54593232091258304
10
1.6974592202191399
20
-0.93920370868554781
42
-0.41421356237308959
10
1.6621038811598123
20
-1.0004409522551274
10
1.2688324933868489
20
-1.1058177030151597
42
0.29621349496208027
10
1.2323890286122179
20
-1.1462922710776016
10
1.168697596529646
20
-1.5484241468607642
42
-0.41421356237309775
10
1.1114914562478766
20
-1.5899868406385107
10
0.70935958046471359
20
-1.5262954085559379
42
0.2962134949620791
10
0.65960432881543085
20
-1.5484478738349434
10
0.43785754111582553
20
-1.8899079830519949
42
-0.4142135623730881
10
0.36869206096780283
20
-1.9046095596985149
10
0.027231951750750497
20
-1.6828627719989098
42
0.2962134949620791
10
-0.027231951750752117
20
-1.6828627719989098
10
-0.36869206096780482
20
-1.9046095596985144
42
-0.41421356237309437
10
-0.43785754111582748
20
-1.8899079830519945
10
-0.65960432881543207
20
-1.5484478738349425
42
0.2962134949620811
10
-0.70935958046471503
20
-1.5262954085559368
10
-1.1114914562478779
20
-1.5899868406385098
42
-0.41421356237309742
10
-1.1686975965296464
20
-1.548424146860764
10
-1.2323890286122183
20
-1.1462922710776011
42
0.29621349496208027
10
-1.2688324933868491
20
-1.1058177030151592
10
-1.6621038811598137
20
-1.0004409522551263
42
-0.41421356237309559
10
-1.697459220219141
20
-0.9392037086855467
10
-1.5920824694591083
20
-0.54593232091258292
42
0.2962134949620806
10
-1.60891274122107
20
-0.49413407058460818
10
-1.9253234452794921
20
-0.23790973450610736
42
-0.41421356237309837
10
-1.9327147237998488
20
-0.16758641688076664
10
-1.6764903877213477
20
0.14882428717765589
42
0.29621349496207905
10
-1.6707973595847778
20
0.20298983171712492
10
-1.8556370946959508
20
0.56575823768110389
42
-0.41421356237309176
10
-1.8337862934735099
20
0.63300808887749926
10
-1.4710178875095314
20
0.8178478239886724
42
0.29621349496207905
10
-1.4437859357587801
20
0.86501494801023782
10
-1.4650942325057064
20
1.2716014708210164
42
-0.41421356237309515
10
-1.4177795535801243
20
1.3241497453708924
10
-1.0111930307693466
20
1.3454580421178188
42
0.29621349496207683
10
-0.96713080725663403
20
1.377471121378282
10
-0.82122326755196939
20
1.7575732575192777
42
-0.41421356237309426
10
-0.75662584874984506
20
1.7863338813668723
10
-0.37652371260885054
20
1.6404263416622091
42
0.29621349496207894
10
-0.32324997607225842
20
1.6517500239277416
10
-0.035355339059326932
20
1.9396446609406728
42
-0.41421356237310214
10
0.035355339059328056
20
1.9396446609406728
10
0.32324997607225842
20
1.6517500239277416
42
0.29621349496208077
10
0.37652371260885098
20
1.6404263416622091
10
0.75662584874984573
20
1.7863338813668719
42
-0.41421356237309065
10
0.82122326755197061
20
1.7575732575192768
10
0.96713080725663358
20
1.3774711213782822
42
0.29621349496207988
10
1.0111930307693464
20
1.3454580421178186
10
1.4177795535801252
20
1.3241497453708917
42
-0.41421356237309015
0
LWPOLYLINE
5
101
100
AcDbEntity
8
0
100
AcDbPolyline
90
4
70
1
43
0.0
10
0.70000000000000007
20
11.313500000000001
10
0.70000000000000007
20
5.3134999999999994
10
-0.70000000000000007
20
5.3134999999999994
10
-0.70000000000000007
20
11.313500000000001
0
LWPOLYLINE
5
102
100
AcDbEntity
8
0
100
AcDbPolyline
90
4
70
1
43
0.0
10
-0.70000000000000007
20
-5.3134999999999994
10
0.70000000000000007
20
-5.3134999999999994
10
0.70000000000000007
20
-11.313500000000001
10
-0.70000000000000007
20
-11.313500000000001
0
LWPOLYLINE
5
103
100
AcDbEntity
8
0
100
AcDbPolyline
90
8
70
1
43
0.0
10
-5
20
14.313500000000001
42
0.41421356237309437
10
-5.9999999999999982
20
13.313500000000001
10
-6.0000000000000009
20
-13.313500000000001
42
0.41421356237309437
10
-5
20
-14.313500000000001
10
5
20
-14.313500000000001
42
0.41421356237309437
10
5.9999999999999982
20
-13.313500000000001
10
6.0000000000000009
20
13.313500000000001
42
0.41421356237309437
10
5
20
14.313500000000001
0
ENDSEC
0
SECTION
2
OBJECTS
0
DICTIONARY
5
C
100
AcDbDictionary
3
ACAD_GROUP
350
D
3
ACAD_MLINESTYLE
350
17
0
DICTIONARY
5
D
100
AcDbDictionary
0
DICTIONARY
5
1A
330
C
100
AcDbDictionary
0
DICTIONARY
5
17
100
AcDbDictionary
0
ENDSEC
0
EOF
