0
SECTION
2
HEADER
9
$INSUNITS
70
4
9
$ACADVER
1
AC1014
9
$HANDSEED
5
FFFF
0
ENDSEC
0
SECTION
2
TABLES
0
TABLE
2
VPORT
5
8
100
AcDbSymbolTable
0
ENDTAB
0
TABLE
2
LTYPE
5
5
100
AcDbSymbolTable
0
LTYPE
5
14
100
AcDbSymbolTableRecord
100
AcDbLinetypeTableRecord
2
BYBLOCK
70
0
0
LTYPE
5
15
100
AcDbSymbolTableRecord
100
AcDbLinetypeTableRecord
2
BYLAYER
70
0
0
ENDTAB
0
TABLE
2
LAYER
5
2
100
AcDbSymbolTable
70
2
0
LAYER
5
50
100
AcDbSymbolTableRecord
100
AcDbLayerTableRecord
2
0
70
0
6
CONTINUOUS
0
ENDTAB
0
TABLE
2
STYLE
5
3
100
AcDbSymbolTable
70
1
0
STYLE
5
11
100
AcDbSymbolTableRecord
100
AcDbTextStyleTableRecord
2
STANDARD
70
0
0
ENDTAB
0
TABLE
2
VIEW
5
6
100
AcDbSymbolTable
70
0
0
ENDTAB
0
TABLE
2
UCS
5
7
100
AcDbSymbolTable
70
0
0
ENDTAB
0
TABLE
2
APPID
5
9
100
AcDbSymbolTable
70
2
0
APPID
5
12
100
AcDbSymbolTableRecord
100
AcDbRegAppTableRecord
2
ACAD
70
0
0
ENDTAB
0
TABLE
2
DIMSTYLE
5
A
100
AcDbSymbolTable
70
1
0
ENDTAB
0
TABLE
2
BLOCK_RECORD
5
1
100
AcDbSymbolTable
70
1
0
BLOCK_RECORD
5
1F
100
AcDbSymbolTableRecord
100
AcDbBlockTableRecord
2
*MODEL_SPACE
0
BLOCK_RECORD
5
1B
100
AcDbSymbolTableRecord
100
AcDbBlockTableRecord
2
*PAPER_SPACE
0
ENDTAB
0
ENDSEC
0
SECTION
2
BLOCKS
0
BLOCK
5
20
100
AcDbEntity
100
AcDbBlockBegin
2
*MODEL_SPACE
0
ENDBLK
5
21
100
AcDbEntity
100
AcDbBlockEnd
0
BLOCK
5
1C
100
AcDbEntity
100
AcDbBlockBegin
2
*PAPER_SPACE
0
ENDBLK
5
1D
100
AcDbEntity
100
AcDbBlockEnd
0
ENDSEC
0
SECTION
2
ENTITIES
0
LWPOLYLINE
5
100
100
AcDbEntity
8
0
100
AcDbPolyline
90
30
70
1
43
0.0
10
-11.299999999999999
20
3.1316227640003569
42
0.61850607104770927
10
-12.901092335270484
20
3.9308023461213439
10
-15.601092335270486
20
1.9000331153521144
42
0.23570744390556173
10
-16
20
1.1008535332311276
10
-16
20
-3.2000000000000006
10
-10
20
-3.2000000000000006
10
-10
20
-1.6000000000000003
10
10
20
-1.6000000000000003
10
10
20
-3.2000000000000006
10
16
20
-3.2000000000000006
10
16
20
1.100853533231128
42
0.23570744390556253
10
15.601092335270486
20
1.9000331153521144
10
4.2999999999999989
20
10.4
10
1.0000000000000009
20
10.4
10
1.0000000000000009
20
7.4000000000000004
10
1.9999999999999996
20
7.4000000000000004
10
1.9999999999999996
20
5.7999999999999998
10
1.0000000000000009
20
5.7999999999999998
10
1.0000000000000009
20
4.7999999999999998
10
-0.99999999999999978
20
4.7999999999999998
10
-0.99999999999999978
20
5.7999999999999998
10
-1.9999999999999996
20
5.7999999999999998
10
-1.9999999999999996
20
7.4000000000000004
10
-0.99999999999999978
20
7.4000000000000004
10
-0.99999999999999978
20
10.4
10
-4.2999999999999989
20
10.4
10
-6.6010923352704847
20
8.6692638845828842
42
0.2357074439055617
10
-7
20
7.8700843024618976
10
-7
20
2.450000000000002
42
-0.99999999999999989
10
-11.299999999999999
20
2.4499999999999993
0
ENDSEC
0
SECTION
2
OBJECTS
0
DICTIONARY
5
C
100
AcDbDictionary
3
ACAD_GROUP
350
D
3
ACAD_MLINESTYLE
350
17
0
DICTIONARY
5
D
100
AcDbDictionary
0
DICTIONARY
5
1A
330
C
100
AcDbDictionary
0
DICTIONARY
5
17
100
AcDbDictionary
0
ENDSEC
0
EOF
