0
SECTION
2
HEADER
9
$INSUNITS
70
4
9
$ACADVER
1
AC1014
9
$HANDSEED
5
FFFF
0
ENDSEC
0
SECTION
2
TABLES
0
TABLE
2
VPORT
5
8
100
AcDbSymbolTable
0
ENDTAB
0
TABLE
2
LTYPE
5
5
100
AcDbSymbolTable
0
LTYPE
5
14
100
AcDbSymbolTableRecord
100
AcDbLinetypeTableRecord
2
BYBLOCK
70
0
0
LTYPE
5
15
100
AcDbSymbolTableRecord
100
AcDbLinetypeTableRecord
2
BYLAYER
70
0
0
ENDTAB
0
TABLE
2
LAYER
5
2
100
AcDbSymbolTable
70
2
0
LAYER
5
50
100
AcDbSymbolTableRecord
100
AcDbLayerTableRecord
2
0
70
0
6
CONTINUOUS
0
ENDTAB
0
TABLE
2
STYLE
5
3
100
AcDbSymbolTable
70
1
0
STYLE
5
11
100
AcDbSymbolTableRecord
100
AcDbTextStyleTableRecord
2
STANDARD
70
0
0
ENDTAB
0
TABLE
2
VIEW
5
6
100
AcDbSymbolTable
70
0
0
ENDTAB
0
TABLE
2
UCS
5
7
100
AcDbSymbolTable
70
0
0
ENDTAB
0
TABLE
2
APPID
5
9
100
AcDbSymbolTable
70
2
0
APPID
5
12
100
AcDbSymbolTableRecord
100
AcDbRegAppTableRecord
2
ACAD
70
0
0
ENDTAB
0
TABLE
2
DIMSTYLE
5
A
100
AcDbSymbolTable
70
1
0
ENDTAB
0
TABLE
2
BLOCK_RECORD
5
1
100
AcDbSymbolTable
70
1
0
BLOCK_RECORD
5
1F
100
AcDbSymbolTableRecord
100
AcDbBlockTableRecord
2
*MODEL_SPACE
0
BLOCK_RECORD
5
1B
100
AcDbSymbolTableRecord
100
AcDbBlockTableRecord
2
*PAPER_SPACE
0
ENDTAB
0
ENDSEC
0
SECTION
2
BLOCKS
0
BLOCK
5
20
100
AcDbEntity
100
AcDbBlockBegin
2
*MODEL_SPACE
0
ENDBLK
5
21
100
AcDbEntity
100
AcDbBlockEnd
0
BLOCK
5
1C
100
AcDbEntity
100
AcDbBlockBegin
2
*PAPER_SPACE
0
ENDBLK
5
1D
100
AcDbEntity
100
AcDbBlockEnd
0
ENDSEC
0
SECTION
2
ENTITIES
0
LWPOLYLINE
5
100
100
AcDbEntity
8
0
100
AcDbPolyline
90
60
70
1
43
0.0
10
-1.4650942325057124
20
14.47839852917898
10
-1.4437859357587857
20
14.884985051989759
42
0.29621349496209026
10
-1.4710178875095381
20
14.932152176011327
10
-1.833786293473517
20
15.116991911122497
42
-0.41421356237311602
10
-1.8556370946959566
20
15.184241762318894
10
-1.6707973595847831
20
15.547010168282874
42
0.296213494962073
10
-1.6764903877213519
20
15.601175712822341
10
-1.9327147237998541
20
15.917586416880766
42
-0.41421356237306223
10
-1.9253234452794974
20
15.987909734506104
10
-1.6089127412210749
20
16.244134070584607
42
0.29621349496209215
10
-1.5920824694591127
20
16.295932320912584
10
-1.6974592202191443
20
16.689203708685547
42
-0.41421356237311402
10
-1.6621038811598179
20
16.750440952255126
10
-1.2688324933868544
20
16.855817703015155
42
0.29621349496208588
10
-1.2323890286122232
20
16.896292271077598
10
-1.1686975965296496
20
17.298424146860761
42
-0.41421356237312124
10
-1.1114914562478821
20
17.33998684063851
10
-0.70935958046471925
20
17.276295408555939
42
0.29621349496208699
10
-0.65960432881543629
20
17.298447873834945
10
-0.43785754111583092
20
17.639907983051994
42
-0.41421356237311857
10
-0.36869206096780799
20
17.654609559698514
10
-0.027231951750756187
20
17.432862771998909
42
0.29621349496206484
10
0.027231951750744395
20
17.432862771998906
10
0.36869206096779872
20
17.654609559698514
42
-0.41421356237310236
10
0.43785754111582192
20
17.639907983051991
10
0.65960432881542719
20
17.298447873834938
42
0.29621349496207489
10
0.70935958046470948
20
17.276295408555935
10
1.1114914562478726
20
17.339986840638506
42
-0.41421356237305978
10
1.1686975965296409
20
17.298424146860761
10
1.2323890286122126
20
16.896292271077598
42
0.29621349496208588
10
1.2688324933868436
20
16.855817703015155
10
1.6621038811598083
20
16.750440952255126
42
-0.41421356237307921
10
1.6974592202191354
20
16.689203708685547
10
1.5920824694591029
20
16.295932320912584
42
0.29621349496209248
10
1.6089127412210649
20
16.244134070584607
10
1.9253234452794832
20
15.987909734506102
42
-0.41421356237306667
10
1.9327147237998434
20
15.917586416880765
10
1.6764903877213428
20
15.601175712822341
42
0.2962134949620881
10
1.6707973595847723
20
15.547010168282871
10
1.8556370946959437
20
15.184241762318891
42
-0.41421356237311691
10
1.8337862934735041
20
15.116991911122497
10
1.4710178875095259
20
14.932152176011325
42
0.29621349496207949
10
1.4437859357587746
20
14.884985051989759
10
1.4650942325057006
20
14.47839852917898
42
-0.41421356237312928
10
1.4177795535801188
20
14.425850254629104
10
1.0111930307693413
20
14.404541957882177
42
0.29621349496208732
10
0.9671308072566287
20
14.372528878621713
10
0.82122326755196284
20
13.992426742480717
42
-0.41421356237308432
10
0.75662584874983951
20
13.963666118633123
10
0.37652371260884493
20
14.109573658337787
42
0.29621349496207111
10
0.32324997607225353
20
14.098249976072255
10
0.035355339059321568
20
13.810355339059324
42
-0.41421356237305823
10
-0.035355339059333427
20
13.810355339059321
10
-0.32324997607226347
20
14.098249976072253
42
0.29621349496208005
10
-0.37652371260885525
20
14.109573658337787
10
-0.75662584874985117
20
13.963666118633125
42
-0.4142135623730881
10
-0.82122326755197617
20
13.992426742480719
10
-0.96713080725663925
20
14.372528878621715
42
0.29621349496207716
10
-1.011193030769352
20
14.404541957882181
10
-1.4177795535801307
20
14.425850254629104
42
-0.41421356237312762
0
LWPOLYLINE
5
101
100
AcDbEntity
8
0
100
AcDbPolyline
90
60
70
1
43
0.0
10
-1.4650942325056957
20
-17.021601470821018
10
-1.443785935758769
20
-16.615014948010241
42
0.29621349496209026
10
-1.4710178875095214
20
-16.567847823988672
10
-1.8337862934735003
20
-16.383008088877503
42
-0.41421356237311602
10
-1.85563709469594
20
-16.315758237681102
10
-1.6707973595847663
20
-15.952989831717126
42
0.296213494962073
10
-1.6764903877213353
20
-15.898824287177657
10
-1.9327147237998374
20
-15.582413583119232
42
-0.41421356237306223
10
-1.9253234452794807
20
-15.512090265493894
10
-1.6089127412210582
20
-15.255865929415393
42
0.29621349496209215
10
-1.592082469459096
20
-15.204067679087416
10
-1.6974592202191277
20
-14.810796291314452
42
-0.41421356237311402
10
-1.6621038811598012
20
-14.749559047744874
10
-1.2688324933868378
20
-14.644182296984843
42
0.29621349496208588
10
-1.2323890286122066
20
-14.6037077289224
10
-1.1686975965296329
20
-14.201575853139236
42
-0.41421356237312124
10
-1.1114914562478655
20
-14.16001315936149
10
-0.7093595804647026
20
-14.223704591444061
42
0.29621349496208699
10
-0.65960432881541964
20
-14.201552126165055
10
-0.43785754111581426
20
-13.860092016948006
42
-0.41421356237311857
10
-0.36869206096779134
20
-13.845390440301484
10
-0.027231951750739534
20
-14.067137228001091
42
0.29621349496206484
10
0.027231951750761048
20
-14.067137228001092
10
0.36869206096781537
20
-13.845390440301486
42
-0.41421356237310236
10
0.43785754111583858
20
-13.860092016948007
10
0.65960432881544384
20
-14.20155212616506
42
0.29621349496207489
10
0.70935958046472614
20
-14.223704591444065
10
1.1114914562478893
20
-14.160013159361494
42
-0.41421356237305978
10
1.1686975965296575
20
-14.201575853139236
10
1.232389028612229
20
-14.6037077289224
42
0.29621349496208588
10
1.2688324933868602
20
-14.644182296984843
10
1.6621038811598248
20
-14.749559047744874
42
-0.41421356237307921
10
1.6974592202191521
20
-14.810796291314453
10
1.5920824694591196
20
-15.204067679087416
42
0.29621349496209248
10
1.6089127412210815
20
-15.255865929415393
10
1.9253234452794998
20
-15.512090265493896
42
-0.41421356237306667
10
1.9327147237998601
20
-15.582413583119234
10
1.6764903877213593
20
-15.898824287177657
42
0.2962134949620881
10
1.6707973595847889
20
-15.952989831717128
10
1.8556370946959606
20
-16.315758237681109
42
-0.41421356237311691
10
1.8337862934735207
20
-16.383008088877503
10
1.4710178875095425
20
-16.567847823988675
42
0.29621349496207949
10
1.4437859357587912
20
-16.615014948010241
10
1.4650942325057172
20
-17.021601470821018
42
-0.41421356237312928
10
1.4177795535801354
20
-17.074149745370896
10
1.0111930307693577
20
-17.095458042117823
42
0.29621349496208732
10
0.96713080725664535
20
-17.127471121378285
10
0.8212232675519795
20
-17.507573257519283
42
-0.41421356237308432
10
0.75662584874985617
20
-17.536333881366875
10
0.37652371260886158
20
-17.390426341662213
42
0.29621349496207111
10
0.32324997607227018
20
-17.401750023927743
10
0.035355339059338221
20
-17.689644660940676
42
-0.41421356237305823
10
-0.035355339059316773
20
-17.689644660940679
10
-0.32324997607224681
20
-17.401750023927747
42
0.29621349496208005
10
-0.3765237126088386
20
-17.390426341662213
10
-0.75662584874983452
20
-17.536333881366875
42
-0.4142135623730881
10
-0.82122326755195951
20
-17.50757325751928
10
-0.96713080725662259
20
-17.127471121378285
42
0.29621349496207716
10
-1.0111930307693353
20
-17.095458042117819
10
-1.4177795535801141
20
-17.074149745370896
42
-0.41421356237312762
0
LWPOLYLINE
5
102
100
AcDbEntity
8
0
100
AcDbPolyline
90
12
70
1
43
0.0
10
4.1865857210858595
20
-19.999999999999996
42
0.23168735962771
10
4.9765075552530025
20
-19.613207547169807
42
0.16654335895429909
10
6.3000000000000007
20
-15.750000066223604
10
6.2999999999999989
20
15.749999999999995
42
0.16654336165510958
10
4.9765075552529998
20
19.613207547169811
42
0.23168735962771056
10
4.1865857210858586
20
19.999999999999996
10
-4.1865857210858577
20
19.999999999999996
42
0.23168735962770942
10
-4.9765075552530007
20
19.613207547169807
42
0.16654336165510977
10
-6.2999999999999989
20
15.749999999999995
10
-6.2999999999999998
20
-15.749999999999996
42
0.16654336165510925
10
-4.9765075552530016
20
-19.613207547169807
42
0.23168735962770928
10
-4.1865857210858595
20
-19.999999999999996
0
ENDSEC
0
SECTION
2
OBJECTS
0
DICTIONARY
5
C
100
AcDbDictionary
3
ACAD_GROUP
350
D
3
ACAD_MLINESTYLE
350
17
0
DICTIONARY
5
D
100
AcDbDictionary
0
DICTIONARY
5
1A
330
C
100
AcDbDictionary
0
DICTIONARY
5
17
100
AcDbDictionary
0
ENDSEC
0
EOF
