0
SECTION
2
HEADER
9
$INSUNITS
70
4
9
$ACADVER
1
AC1014
9
$HANDSEED
5
FFFF
0
ENDSEC
0
SECTION
2
TABLES
0
TABLE
2
VPORT
5
8
100
AcDbSymbolTable
0
ENDTAB
0
TABLE
2
LTYPE
5
5
100
AcDbSymbolTable
0
LTYPE
5
14
100
AcDbSymbolTableRecord
100
AcDbLinetypeTableRecord
2
BYBLOCK
70
0
0
LTYPE
5
15
100
AcDbSymbolTableRecord
100
AcDbLinetypeTableRecord
2
BYLAYER
70
0
0
ENDTAB
0
TABLE
2
LAYER
5
2
100
AcDbSymbolTable
70
2
0
LAYER
5
50
100
AcDbSymbolTableRecord
100
AcDbLayerTableRecord
2
0
70
0
6
CONTINUOUS
0
ENDTAB
0
TABLE
2
STYLE
5
3
100
AcDbSymbolTable
70
1
0
STYLE
5
11
100
AcDbSymbolTableRecord
100
AcDbTextStyleTableRecord
2
STANDARD
70
0
0
ENDTAB
0
TABLE
2
VIEW
5
6
100
AcDbSymbolTable
70
0
0
ENDTAB
0
TABLE
2
UCS
5
7
100
AcDbSymbolTable
70
0
0
ENDTAB
0
TABLE
2
APPID
5
9
100
AcDbSymbolTable
70
2
0
APPID
5
12
100
AcDbSymbolTableRecord
100
AcDbRegAppTableRecord
2
ACAD
70
0
0
ENDTAB
0
TABLE
2
DIMSTYLE
5
A
100
AcDbSymbolTable
70
1
0
ENDTAB
0
TABLE
2
BLOCK_RECORD
5
1
100
AcDbSymbolTable
70
1
0
BLOCK_RECORD
5
1F
100
AcDbSymbolTableRecord
100
AcDbBlockTableRecord
2
*MODEL_SPACE
0
BLOCK_RECORD
5
1B
100
AcDbSymbolTableRecord
100
AcDbBlockTableRecord
2
*PAPER_SPACE
0
ENDTAB
0
ENDSEC
0
SECTION
2
BLOCKS
0
BLOCK
5
20
100
AcDbEntity
100
AcDbBlockBegin
2
*MODEL_SPACE
0
ENDBLK
5
21
100
AcDbEntity
100
AcDbBlockEnd
0
BLOCK
5
1C
100
AcDbEntity
100
AcDbBlockBegin
2
*PAPER_SPACE
0
ENDBLK
5
1D
100
AcDbEntity
100
AcDbBlockEnd
0
ENDSEC
0
SECTION
2
ENTITIES
0
LWPOLYLINE
5
100
100
AcDbEntity
8
0
100
AcDbPolyline
90
60
70
1
43
0.0
10
-1.8143015702891434
20
-1.6619880907048374
10
-1.8356098670360699
20
-1.2554015678940593
42
0.29621349496207683
10
-1.867622946296533
20
-1.2113393443813467
10
-2.2477250824375283
20
-1.0654318046766824
42
-0.41421356237309492
10
-2.2764857062851229
20
-1.0008343858745581
10
-2.1305781665804604
20
-0.62073224973356411
42
0.29621349496208155
10
-2.1419018488459929
20
-0.5674585131969716
10
-2.4297964858589243
20
-0.27956387618403961
42
-0.41421356237309476
10
-2.4297964858589238
20
-0.20885319806538491
10
-2.1419018488459924
20
0.079041438947546366
42
0.29621349496208127
10
-2.1305781665804595
20
0.13231517548413885
10
-2.2764857062851229
20
0.51241731162513426
42
-0.41421356237309459
10
-2.2477250824375274
20
0.57701473042725981
10
-1.8676229462965332
20
0.72292227013192223
42
0.29621349496208155
10
-1.8356098670360694
20
0.7669844936446355
10
-1.8143015702891432
20
1.1735710164554136
42
-0.41421356237309742
10
-1.7617532957392668
20
1.2208856953809955
10
-1.3551667729284889
20
1.1995773986340685
42
0.2962134949620801
10
-1.3079996489069232
20
1.2268093503848199
10
-1.1231599137957491
20
1.5895777563487985
42
-0.41421356237308998
10
-1.0559100625993534
20
1.6114285575712395
10
-0.69314165663537453
20
1.4265888224600654
42
0.29621349496208066
10
-0.63897611209590521
20
1.4322818505966353
10
-0.3225654080374829
20
1.6885061866751361
42
-0.41421356237309004
10
-0.25224209041214235
20
1.6811149081547792
10
0.0039822456663580683
20
1.3647042040963573
42
0.29621349496208094
10
0.055780495994332727
20
1.3478739323343958
10
0.44905188376729571
20
1.4532506830944281
42
-0.41421356237309176
10
0.51028912733687526
20
1.4178953440351008
10
0.6156658780969072
20
1.024623956262138
42
0.29621349496208027
10
0.65614044615934908
20
0.98818049148750697
10
1.0582723219425136
20
0.92448905940493442
42
-0.41421356237308893
10
1.099835015720259
20
0.86728291912316557
10
1.0361435836376864
20
0.46515104334000146
42
0.29621349496208055
10
1.0582960489166919
20
0.41539579169071866
10
1.3997561581337445
20
0.19364900399111379
42
-0.4142135623731007
10
1.4144577347802643
20
0.12448352384309075
10
1.1927109470806589
20
-0.21697658537396189
42
0.29621349496207899
10
1.1927109470806587
20
-0.2714404888754644
10
1.4144577347802634
20
-0.61290059809251674
42
-0.41421356237309326
10
1.3997561581337437
20
-0.68206607824053922
10
1.0582960489166913
20
-0.90381286594014354
42
0.29621349496208044
10
1.0361435836376858
20
-0.95356811758942639
10
1.0998350157202581
20
-1.3556999933725902
42
-0.41421356237309997
10
1.0582723219425125
20
-1.4129061336543587
10
0.65614044615934941
20
-1.4765975657369306
42
0.29621349496208033
10
0.61566587809690743
20
-1.5130410305115616
10
0.51028912733687426
20
-1.9063124182845261
42
-0.41421356237309132
10
0.44905188376729493
20
-1.9416677573438532
10
0.055780495994331158
20
-1.8362910065838203
42
0.29621349496208266
10
0.0039822456663561896
20
-1.8531212783457822
10
-0.25224209041214474
20
-2.1695319824042039
42
-0.4142135623730937
10
-0.3225654080374849
20
-2.1769232609245606
10
-0.63897611209590588
20
-1.92069892484606
42
0.29621349496208021
10
-0.69314165663537497
20
-1.9150058967094901
10
-1.0559100625993543
20
-2.0998456318206635
42
-0.41421356237309065
10
-1.12315991379575
20
-2.0779948305982225
10
-1.3079996489069234
20
-1.7152264246342437
42
0.29621349496207949
10
-1.3551667729284889
20
-1.6879944728834921
10
-1.7617532957392679
20
-1.7093027696304184
42
-0.41421356237309331
0
ARC
5
101
100
AcDbEntity
8
0
100
AcDbCircle
10
-6.2401518247182439
20
24.190574070721034
30
-1.5822767083745798e-47
40
0.5476190475999998
210
1.3706601365249426e-33
220
-1.2325951644078312e-32
230
1
100
AcDbArc
50
26.483881037331908
51
180
0
LINE
5
102
100
AcDbEntity
8
0
100
AcDbLine
10
-6.7877708723182444
20
24.190574070721034
30
7.5059959854706104e-34
11
-6.7877708723182471
21
22.136743843049203
31
0
0
LINE
5
103
100
AcDbEntity
8
0
100
AcDbLine
10
-6.7877708723182471
20
22.136743843049203
30
0
11
-4.9543586356420102
21
4.8539504517728282
31
0
0
ARC
5
104
100
AcDbEntity
8
0
100
AcDbCircle
10
-2.6584952409917522
20
4.7160690798003877
30
-3.0814879110195774e-32
40
2.299999999920002
210
1.3373677308996743e-32
220
-8.0317538925789169e-34
230
1
100
AcDbArc
50
176.56314772900257
51
220.27408703516363
0
ARC
5
105
100
AcDbEntity
8
0
100
AcDbCircle
10
-4.5720735235544572
20
3.0947239947192657
30
2.7796752984958835e-48
40
0.20809523918323819
210
-8.6861323716476832e-33
220
7.1808522355796e-34
230
1
100
AcDbArc
50
-39.282498304260926
51
40.27408703516403
0
ARC
5
106
100
AcDbEntity
8
0
100
AcDbCircle
10
-0.4901518249162351
20
-0.24420853712627921
30
0
40
5.0654761508739821
210
2.2824737588181249e-34
220
-1.8670191270312809e-34
230
1
100
AcDbArc
50
140.71750169574298
51
142.13964116139957
0
ARC
5
107
100
AcDbEntity
8
0
100
AcDbCircle
10
-4.6536833758218661
20
2.9923884768134257
30
8.5528470722950261e-49
40
0.20809523918323944
210
-3.7824592988734149e-33
220
-4.8657242662737556e-33
230
1
100
AcDbArc
50
242.5830558219775
51
322.13964116139334
0
ARC
5
108
100
AcDbEntity
8
0
100
AcDbCircle
10
-5.8085667279119519
20
0.76600437440035973
30
0
40
2.2999999999200265
210
2.5250167704793825e-34
220
4.8677272782118793e-34
230
1
100
AcDbArc
50
62.583055821977993
51
87.309358273632085
0
SPLINE
5
109
100
AcDbEntity
8
0
100
AcDbSpline
70
0
71
3
72
11
73
7
74
0
42
0.000000001
43
0.0000000001
44
0.0000000001
40
0.00019249610590087006
40
0.00019249610590087006
40
0.00019249610590087006
40
0.00019249610590087006
40
0.00024322290490327308
40
0.00024322290490327308
40
0.00024322290490327308
40
0.000276938489774473
40
0.000276938489774473
40
0.000276938489774473
40
0.000276938489774473
10
-5.7005971408722438
20
3.0634687523410928
30
0
10
-5.7193056340227608
20
3.0643479600010277
30
0
10
-5.7377998916129789
20
3.064981672626673
30
0
10
-5.7552555610286014
20
3.0653864477161279
30
0
10
-5.7668574778701931
20
3.0656554816222825
30
0
10
-5.7780836939128548
20
3.0658256214337012
30
0
10
-5.7884266060903915
20
3.065916193389326
30
0
0
SPLINE
5
110
100
AcDbEntity
8
0
100
AcDbSpline
70
0
71
3
72
14
73
10
74
0
42
0.000000001
43
0.0000000001
44
0.0000000001
40
-0.013307470997520785
40
-0.013307470997520785
40
-0.013307470997520785
40
-0.013307470997520785
40
-0.011815318192201479
40
-0.011815318192201479
40
-0.0065718704843877795
40
-0.0065718704843877795
40
0
40
0
40
0.00020567783448060428
40
0.00020567783448060428
40
0.00020567783448060428
40
0.00020567783448060428
10
-5.7884266060903897
20
3.0659161933893282
30
0
10
-5.7929709408034729
20
3.0659567294956789
30
0
10
-5.7974193349012122
20
3.0656970840505711
30
0
10
-5.8169226490075578
20
3.0633556398023618
30
0
10
-5.8306365750185716
20
3.0583393956848095
30
0
10
-5.8570462387962738
20
3.0426990584972731
30
0
10
-5.8689690673186963
20
3.0307751506457805
30
0
10
-5.8778318566001477
20
3.0165986994934029
30
0
10
-5.8780976581310025
20
3.0161665366875345
30
0
10
-5.8783602818180807
20
3.0157324579192855
30
0
0
ARC
5
111
100
AcDbEntity
8
0
100
AcDbCircle
10
-0.4901518249162351
20
-0.24420853712627921
30
0
40
6.2976190474025362
210
0
220
0
230
1
100
AcDbArc
50
148.82547892653369
51
151.17452107345855
0
SPLINE
5
112
100
AcDbEntity
8
0
100
AcDbSpline
70
0
71
3
72
14
73
10
74
0
42
0.000000001
43
0.0000000001
44
0.0000000001
40
0.055641293296546497
40
0.055641293296546497
40
0.055641293296546497
40
0.055641293296546497
40
0.057133446103764668
40
0.057133446103764668
40
0.062376893815898941
40
0.062376893815898941
40
0.068948764305716601
40
0.068948764305716601
40
0.069154442140375638
40
0.069154442140375638
40
0.069154442140375638
40
0.069154442140375638
10
-6.0059413218214281
20
2.6891696543386425
30
0
10
-6.0082485944771502
20
2.6930848955919955
30
0
10
-6.0102479319756066
20
2.6970671406110154
30
0
10
-6.0179718388290491
20
2.7151282282109959
30
0
10
-6.0204846069971722
20
2.7295129585809286
30
0
10
-6.0201445095578592
20
2.7602045669116366
30
0
10
-6.0157795167071288
20
2.7764919932230403
30
0
10
-6.0079337445145296
20
2.7912556194650744
30
0
10
-6.0076923813115375
20
2.7917018917460279
30
0
10
-6.0074477699145179
20
2.7921463699148186
30
0
0
SPLINE
5
113
100
AcDbEntity
8
0
100
AcDbSpline
70
0
71
3
72
11
73
7
74
0
42
0.000000001
43
0.0000000001
44
0.0000000001
40
0.00019249610590086965
40
0.00019249610590086965
40
0.00019249610590086965
40
0.00019249610590086965
40
0.00024322290490327308
40
0.00024322290490327308
40
0.00024322290490327308
40
0.00027693848977095064
40
0.00027693848977095064
40
0.00027693848977095064
40
0.00027693848977095064
10
-5.9599070430934233
20
2.6143308267883052
30
0
10
-5.9700227058374358
20
2.6300932532931451
30
0
10
-5.9798186458650022
20
2.645792893877652
30
0
10
-5.9888970260831043
20
2.6607075594869212
30
0
10
-5.9949309747004795
20
2.6706205972502244
30
0
10
-6.000691428123277
20
2.6802577156265666
30
0
10
-6.00594132180961
20
2.6891696543487722
30
0
0
ARC
5
114
100
AcDbEntity
8
0
100
AcDbCircle
10
-4.0242293210267777
20
3.8565674209711154
30
0
40
2.2999999999200056
210
0
220
0
230
1
100
AcDbArc
50
212.69064172636652
51
237.41694417802086
0
ARC
5
115
100
AcDbEntity
8
0
100
AcDbCircle
10
-5.3748928362532933
20
1.7432170484468867
30
2.3520329448811322e-48
40
0.2080952391832348
210
-3.7481995005846934e-33
220
1.702378243423391e-32
230
1
100
AcDbArc
50
-22.13964116140254
51
57.416944178021495
0
ARC
5
116
100
AcDbEntity
8
0
100
AcDbCircle
10
-0.4901518249162351
20
-0.24420853712627921
30
0
40
5.0654761508738888
210
-4.2387292329422393e-33
220
-1.1495858939928296e-32
230
1
100
AcDbArc
50
157.86035883859159
51
159.28249830424804
0
ARC
5
117
100
AcDbEntity
8
0
100
AcDbCircle
10
-5.4227130683354918
20
1.6213730842312954
30
8.5528470722950261e-48
40
0.20809523918323919
210
1.4782090606876069e-33
220
1.2619015399420687e-32
230
1
100
AcDbArc
50
259.72591296483535
51
339.28249830425608
0
ARC
5
118
100
AcDbEntity
8
0
100
AcDbCircle
10
-5.8700499590354882
20
-0.84650686313877066
30
-3.0814879110195801e-32
40
2.2999999999200171
210
2.4788680846552318e-33
220
-1.5231388475577953e-32
230
1
100
AcDbArc
50
79.725912964835103
51
104.45221541648928
0
SPLINE
5
119
100
AcDbEntity
8
0
100
AcDbSpline
70
0
71
3
72
11
73
7
74
0
42
0.000000001
43
0.0000000001
44
0.0000000001
40
0.00019249610590086954
40
0.00019249610590086954
40
0.00019249610590086954
40
0.00019249610590086954
40
0.00024322290490327202
40
0.00024322290490327202
40
0.00024322290490327202
40
0.00027693848977447273
40
0.00027693848977447273
40
0.00027693848977447273
40
0.00027693848977447273
10
-6.4440666712311447
20
1.3807122131427187
30
0
10
-6.4622031495302021
20
1.376037934911738
30
0
10
-6.4800625492220778
20
1.3711922153417919
30
0
10
-6.496862021774529
20
1.366433858526674
30
0
10
-6.5080277971392766
20
1.3632712149890849
30
0
10
-6.5188054134913118
20
1.3601248106984278
30
0
10
-6.5287155156533778
20
1.357162731913383
30
0
0
SPLINE
5
120
100
AcDbEntity
8
0
100
AcDbSpline
70
0
71
3
72
14
73
10
74
0
42
0.000000001
43
0.0000000001
44
0.0000000001
40
-0.013307470997582735
40
-0.013307470997582735
40
-0.013307470997582735
40
-0.013307470997582735
40
-0.011815318192253711
40
-0.011815318192253711
40
-0.0065718704844152541
40
-0.0065718704844152541
40
0
40
0
40
0.00020567783449454533
40
0.00020567783449454533
40
0.00020567783449454533
40
0.00020567783449454533
10
-6.5287155156533778
20
1.3571627319133859
30
0
10
-6.5330699065526954
20
1.3558620009433269
30
0
10
-6.5372441391434633
20
1.3543027036387045
30
0
10
-6.5551908229184441
20
1.3463165804378383
30
0
10
-6.5668169137653729
20
1.3374809433186843
30
0
10
-6.5874431999657359
20
1.3147510773760163
30
0
10
-6.5953216971314266
20
1.2998425998936334
30
0
10
-6.599612155220191
20
1.2836836156896914
30
0
10
-6.5997387657115922
20
1.2831923062881465
30
0
10
-6.5998617748020845
20
1.2827001027309164
30
0
0
ARC
5
121
100
AcDbEntity
8
0
100
AcDbCircle
10
-0.4901518249162351
20
-0.24420853712627921
30
0
40
6.2976190474023364
210
1.5311355600733534e-35
220
6.1266233760253786e-35
230
1
100
AcDbArc
50
165.96833606938426
51
168.31737821630921
0
SPLINE
5
122
100
AcDbEntity
8
0
100
AcDbSpline
70
0
71
3
72
14
73
10
74
0
42
0.000000001
43
0.0000000001
44
0.0000000001
40
0.055641293257749178
40
0.055641293257749178
40
0.055641293257749178
40
0.055641293257749178
40
0.057133446062484362
40
0.057133446062484362
40
0.062376893765058568
40
0.062376893765058568
40
0.068948764242880253
40
0.068948764242880253
40
0.069154442077169989
40
0.069154442077169989
40
0.069154442077169989
40
0.069154442077169989
10
-6.6255186710360547
20
0.93304039654879556
30
0
10
-6.628877475660512
20
0.93610161406498071
30
0
10
-6.6319617755292875
20
0.93931762403856611
30
0
10
-6.6446661298988943
20
0.95429964668083234
30
0
10
-6.6513072365366419
20
0.96730465242125196
30
0
10
-6.6600287590387826
20
0.99673296418792745
30
0
10
-6.6606584937563076
20
1.0135833900763376
30
0
10
-6.6575129424365951
20
1.0300036917790147
30
0
10
-6.6574138433874905
20
1.0305012804877476
30
0
10
-6.6573111116286734
20
1.0309981122136151
30
0
0
SPLINE
5
123
100
AcDbEntity
8
0
100
AcDbSpline
70
0
71
3
72
11
73
7
74
0
42
0.000000001
43
0.0000000001
44
0.0000000001
40
0.00019249610590086914
40
0.00019249610590086914
40
0.00019249610590086914
40
0.00019249610590086914
40
0.00024322290490327235
40
0.00024322290490327235
40
0.00024322290490327235
40
0.00027693848976969519
40
0.00027693848976969519
40
0.00027693848976969519
40
0.00027693848976969519
10
-6.5594704344839014
20
0.87509528998160202
30
0
10
-6.5737827434881124
20
0.88717579216642972
30
0
10
-6.5877710276842896
20
0.89929053775826229
30
0
10
-6.6008422558042348
20
0.91086668707731944
30
0
10
-6.6095300521890508
20
0.91856077880927856
30
0
10
-6.617875175337681
20
0.92607182360251283
30
0
10
-6.6255186710247935
20
0.93304039656663584
30
0
0
ARC
5
124
100
AcDbEntity
8
0
100
AcDbCircle
10
-5.0759451064889136
20
2.6326938223061425
30
0
40
2.2999999999200034
210
0
220
0
230
1
100
AcDbArc
50
229.83349886922363
51
254.55980132087797
0
ARC
5
125
100
AcDbEntity
8
0
100
AcDbCircle
10
-5.7436814737621598
20
0.21511861722294351
30
0
40
0.20809523918323791
210
0
220
0
230
1
100
AcDbArc
50
-4.9967840185366805
51
74.55980132087879
0
ARC
5
126
100
AcDbEntity
8
0
100
AcDbCircle
10
-0.4901518249162351
20
-0.24420853712627921
30
0
40
5.0654761508735744
210
0
220
0
230
1
100
AcDbArc
50
175.0032159814406
51
176.42535544709708
0
ARC
5
127
100
AcDbEntity
8
0
100
AcDbCircle
10
-5.7534630481830025
20
0.084592577621586368
30
1.2615449431635163e-47
40
0.20809523918323564
210
7.6850891760463465e-34
220
1.2301970491580574e-32
230
1
100
AcDbArc
50
276.86877010769138
51
356.42535544712467
0
ARC
5
128
100
AcDbEntity
8
0
100
AcDbCircle
10
-5.4535056316486248
20
-2.4055012512688578
30
-3.0814879110195774e-32
40
2.2999999999199869
210
1.7334804910554734e-33
220
-1.4390472898290455e-32
230
1
100
AcDbArc
50
96.868770107692058
51
121.59507255934658
0
SPLINE
5
129
100
AcDbEntity
8
0
100
AcDbSpline
70
0
71
3
72
11
73
7
74
0
42
0.000000001
43
0.0000000001
44
0.0000000001
40
0.00019249610590086925
40
0.00019249610590086925
40
0.00019249610590086925
40
0.00019249610590086925
40
0.00024322290490327224
40
0.00024322290490327224
40
0.00024322290490327224
40
0.00027693848977447267
40
0.00027693848977447267
40
0.00027693848977447267
40
0.00027693848977447267
10
-6.6585047391701941
20
-0.4464256655641729
30
0
10
-6.6744576969302614
20
-0.45623809955261024
30
0
10
-6.690095352686523
20
-0.46613268786917306
30
0
10
-6.7047459215162464
20
-0.4756313757041345
30
0
10
-6.7144834272627953
20
-0.48194468192812057
30
0
10
-6.7238548054145379
20
-0.48812805849185947
30
0
10
-6.7324515414942656
20
-0.49387959431865408
30
0
0
SPLINE
5
130
100
AcDbEntity
8
0
100
AcDbSpline
70
0
71
3
72
14
73
10
74
0
42
0.000000001
43
0.0000000001
44
0.0000000001
40
-0.013307470997545135
40
-0.013307470997545135
40
-0.013307470997545135
40
-0.013307470997545135
40
-0.011815318192225806
40
-0.011815318192225806
40
-0.0065718704844032038
40
-0.0065718704844032038
40
0
40
0
40
0.00020567783448644802
40
0.00020567783448644802
40
0.00020567783448644802
40
0.00020567783448644802
10
-6.7324515414942665
20
-0.49387959431865164
30
0
10
-6.7362290818394621
20
-0.49640601671025575
30
0
10
-6.7397582540392325
20
-0.49912641546600162
30
0
10
-6.7545536658716987
20
-0.51204761552657874
30
0
10
-6.7630588923625385
20
-0.52391756051473359
30
0
10
-6.7760690649397226
20
-0.55171730687515741
30
0
10
-6.7792031917012183
20
-0.56828567033905375
30
0
10
-6.7785400925678587
20
-0.58499139093589814
30
0
10
-6.7785162621220287
20
-0.58549819193670949
30
0
10
-6.7784887267184111
20
-0.58600478583681181
30
0
0
ARC
5
131
100
AcDbEntity
8
0
100
AcDbCircle
10
-0.4901518249162351
20
-0.24420853712627921
30
0
40
6.2976190474019287
210
6.6841511965050778e-34
220
-1.2297441760926153e-32
230
1
100
AcDbArc
50
183.11119321223543
51
185.46023535916092
0
SPLINE
5
132
100
AcDbEntity
8
0
100
AcDbSpline
70
0
71
3
72
14
73
10
74
0
42
0.000000001
43
0.0000000001
44
0.0000000001
40
0.055641293308087925
40
0.055641293308087925
40
0.055641293308087925
40
0.055641293308087925
40
0.057133446116039301
40
0.057133446116039301
40
0.062376893830978331
40
0.062376893830978331
40
0.068948764324314488
40
0.068948764324314488
40
0.069154442159084187
40
0.069154442159084187
40
0.069154442159084187
40
0.069154442159084187
10
-6.6999417513627826
20
-0.92769259526673709
30
0
10
-6.7040536434238298
20
-0.92575740409887386
30
3.0814879110195774e-32
10
-6.7079488520831543
20
-0.9235933857711407
30
0
10
-6.7245048163300272
20
-0.91302164654698936
30
-3.0814879110195774e-32
10
-6.7346841699686175
20
-0.90255191726764461
30
0
10
-6.7516923668641473
20
-0.87700173670943449
30
-3.0814879110195774e-32
10
-6.7572608744567217
20
-0.86108554553092742
30
-3.0814879110195774e-32
10
-6.759095040048634
20
-0.84446758423327362
30
-3.0814879110195774e-32
10
-6.7591470105388538
20
-0.84396289203727159
30
0
10
-6.7591952865858476
20
-0.84345785243350457
30
0
0
SPLINE
5
133
100
AcDbEntity
8
0
100
AcDbSpline
70
0
71
3
72
11
73
7
74
0
42
0.000000001
43
0.0000000001
44
0.0000000001
40
0.00019249610590087076
40
0.00019249610590087076
40
0.00019249610590087076
40
0.00019249610590087076
40
0.0002432229049032734
40
0.0002432229049032734
40
0.0002432229049032734
40
0.00027693848977127579
40
0.00027693848977127579
40
0.00027693848977127579
40
0.00027693848977127579
10
-6.6197482326484511
20
-0.96359530384743775
30
0
10
-6.636985476449472
20
-0.956270131616065
30
0
10
-6.6539231843766835
20
-0.9488167293275156
30
0
10
-6.669825824417873
20
-0.94160768796676442
30
-3.0814879110195774e-32
10
-6.6803955197362921
20
-0.93681619608091116
30
-3.0814879110195774e-32
10
-6.6905838117949354
20
-0.93209861416222772
30
0
10
-6.6999417513590966
20
-0.92769259525309578
30
0
0
ARC
5
134
100
AcDbEntity
8
0
100
AcDbCircle
10
-5.7201930344611451
20
1.153194823927701
30
2.5316427333993277e-46
40
2.2999999999200202
210
4.745060723651963e-33
220
-2.0164701184439875e-33
230
1
100
AcDbArc
50
246.97635601208097
51
271.70265846373508
0
ARC
5
135
100
AcDbEntity
8
0
100
AcDbCircle
10
-5.6456709472361144
20
-1.3537930473888045
30
0
40
0.20809523918323913
210
0
220
-0
230
1
100
AcDbArc
50
12.146073124311497
51
91.702658463734821
0
ARC
5
136
100
AcDbEntity
8
0
100
AcDbCircle
10
-0.4901518249162351
20
-0.24420853712627921
30
0
40
5.0654761508730726
210
-1.6091294595625356e-35
220
7.4765803076150221e-35
230
1
100
AcDbArc
50
192.1460731242916
51
193.56821258994782
0
ARC
5
137
100
AcDbEntity
8
0
100
AcDbCircle
10
-5.616544728182582
20
-1.4814033509532516
30
0
40
0.20809523918323852
210
0
220
0
230
1
100
AcDbArc
50
-65.988372749451187
51
13.56821258998084
0
ARC
5
138
100
AcDbEntity
8
0
100
AcDbCircle
10
-4.5959455372143214
20
-3.7724552970704393
30
3.0814879110195774e-32
40
2.2999999999200185
210
-5.4518491199527341e-33
220
1.2238369035306627e-32
230
1
100
AcDbArc
50
114.01162725054947
51
138.73792970220359
0
SPLINE
5
139
100
AcDbEntity
8
0
100
AcDbSpline
70
0
71
3
72
11
73
7
74
0
42
0.000000001
43
0.0000000001
44
0.0000000001
40
0.00019249610590086998
40
0.00019249610590086998
40
0.00019249610590086998
40
0.00019249610590086998
40
0.00024322290490327327
40
0.00024322290490327327
40
0.00024322290490327327
40
0.00027693848977447224
40
0.00027693848977447224
40
0.00027693848977447224
40
0.00027693848977447224
10
-6.324857581307052
20
-2.2555956649939666
30
3.0814879110195774e-32
10
-6.3372095282227132
20
-2.2696743769188905
30
0
10
-6.349235965704727
20
-2.2837386563883988
30
-3.0814879110195774e-32
10
-6.360435863478239
20
-2.297133675144766
30
0
10
-6.3678798794886671
20
-2.306036679091656
30
3.0814879110195774e-32
10
-6.375012331365717
20
-2.314707607785488
30
3.0814879110195774e-32
10
-6.3815318436362674
20
-2.3227375514556221
30
-3.0814879110195774e-32
0
SPLINE
5
140
100
AcDbEntity
8
0
100
AcDbSpline
70
0
71
3
72
14
73
10
74
0
42
0.000000001
43
0.0000000001
44
0.0000000001
40
-0.013307470997665376
40
-0.013307470997665376
40
-0.013307470997665376
40
-0.013307470997665376
40
-0.011815318192331746
40
-0.011815318192331746
40
-0.0065718704844657475
40
-0.0065718704844657475
40
0
40
0
40
0.00020567783450940337
40
0.00020567783450940337
40
0.00020567783450940337
40
0.00020567783450940337
10
-6.38153184363627
20
-2.3227375514556186
30
-3.0814879110195774e-32
10
-6.3843968823902308
20
-2.3262651815522628
30
-3.0814879110195774e-32
10
-6.3869674117615549
20
-2.3299049623914239
30
-3.0814879110195774e-32
10
-6.3972969143816112
20
-2.3466131339825997
30
3.0814879110195774e-32
10
-6.4019255498180794
20
-2.3604626901371688
30
-3.0814879110195774e-32
10
-6.4061635978443734
20
-2.3908621874540836
30
3.0814879110195774e-32
10
-6.4042748732848658
20
-2.407618265097188
30
-3.0814879110195774e-32
10
-6.3987171361974742
20
-2.4233863454994213
30
0
10
-6.3985449822541192
20
-2.4238636066064725
30
3.0814879110195774e-32
10
-6.3983693489978268
20
-2.424339577758345
30
3.0814879110195774e-32
0
ARC
5
141
100
AcDbEntity
8
0
100
AcDbCircle
10
-0.4901518249162351
20
-0.24420853712627921
30
0
40
6.2976190474013478
210
4.5905441944127207e-33
220
1.6939098553566189e-33
230
1
100
AcDbArc
50
200.25405035508817
51
202.60309250201357
0
SPLINE
5
142
100
AcDbEntity
8
0
100
AcDbSpline
70
0
71
3
72
14
73
10
74
0
42
0.000000001
43
0.0000000001
44
0.0000000001
40
0.055641293274470344
40
0.055641293274470344
40
0.055641293274470344
40
0.055641293274470344
40
0.057133446079956671
40
0.057133446079956671
40
0.062376893786601405
40
0.062376893786601405
40
0.068948764269540622
40
0.068948764269540622
40
0.069154442103976629
40
0.069154442103976629
40
0.069154442103976629
40
0.069154442103976629
10
-6.222597745509538
20
-2.7276950290976973
30
-3.0814879110195774e-32
10
-6.22709736535327
20
-2.7270578145053079
30
-3.0814879110195774e-32
10
-6.231457376420285
20
-2.7261380703478997
30
0
10
-6.2503938804667118
20
-2.720915959964656
30
0
10
-6.2632070008639982
20
-2.71391178853851
30
0
10
-6.2869906192194822
20
-2.6945099848565413
30
3.0814879110195774e-32
10
-6.2970031133504705
20
-2.6809422518215351
30
3.0814879110195774e-32
10
-6.3036540221921546
20
-2.6656032097166071
30
0
10
-6.3038524444155932
20
-2.6651362581496714
30
0
10
-6.3040474387297554
20
-2.6646678856531389
30
-3.0814879110195774e-32
0
SPLINE
5
143
100
AcDbEntity
8
0
100
AcDbSpline
70
0
71
3
72
11
73
7
74
0
42
0.000000001
43
0.0000000001
44
0.0000000001
40
0.00019249610590086903
40
0.00019249610590086903
40
0.00019249610590086903
40
0.00019249610590086903
40
0.00024322290490327262
40
0.00024322290490327262
40
0.00024322290490327262
40
0.00027693848977179984
40
0.00027693848977179984
40
0.00027693848977179984
40
0.00027693848977179984
10
-6.1353844906953912
20
-2.7383652264763403
30
3.0814879110195774e-32
10
-6.1540150645368907
20
-2.7364462578973159
30
0
10
-6.1723972065161048
20
-2.7343164664139574
30
-3.0814879110195774e-32
10
-6.1897182391232963
20
-2.7321150879727725
30
3.0814879110195774e-32
10
-6.2012306695617037
20
-2.7306519410145338
30
0
10
-6.2123568560712652
20
-2.7291469998264328
30
0
10
-6.2225977455099581
20
-2.7276950290858877
30
0
0
ARC
5
144
100
AcDbEntity
8
0
100
AcDbCircle
10
-5.8997288493076798
20
-0.45046959548393162
30
0
40
2.2999999999200011
210
1.3727221363900087e-33
220
1.332726413812486e-32
230
1
100
AcDbArc
50
264.119213154938
51
288.84551560659247
0
ARC
5
145
100
AcDbEntity
8
0
100
AcDbCircle
10
-5.0895699220690975
20
-2.8241132589321682
30
3.0814879110195774e-32
40
0.20809523918323614
210
-2.9162984482994543e-33
220
-9.9537485712980615e-34
230
1
100
AcDbArc
50
29.288930267166236
51
108.84551560659217
0
ARC
5
146
100
AcDbEntity
8
0
100
AcDbCircle
10
-0.4901518249162351
20
-0.24420853712627921
30
0
40
5.0654761508724233
210
5.3393967667977173e-33
220
3.1703482874635224e-33
230
1
100
AcDbArc
50
209.28893026714442
51
210.71106973280104
0
ARC
5
147
100
AcDbEntity
8
0
100
AcDbCircle
10
-5.02412390192241
20
-2.937469090979417
30
3.0814879110195735e-32
40
0.20809523918323983
210
-1.159361561984285e-32
220
7.4497940759818084e-33
230
1
100
AcDbArc
50
-48.845515606592919
51
30.711069732831092
0
ARC
5
148
100
AcDbEntity
8
0
100
AcDbCircle
10
-3.3735676534636254
20
-4.8259091347949079
30
-1.9414962854109709e-46
40
2.2999999999199709
210
8.6347365837498891e-33
220
-1.1837803195618293e-32
230
1
100
AcDbArc
50
131.15448439340634
51
155.88078684506104
0
SPLINE
5
149
100
AcDbEntity
8
0
100
AcDbSpline
70
0
71
3
72
11
73
7
74
0
42
0.000000001
43
0.0000000001
44
0.0000000001
40
0.00019249610590086962
40
0.00019249610590086962
40
0.00019249610590086962
40
0.00019249610590086962
40
0.00024322290490327305
40
0.00024322290490327305
40
0.00024322290490327305
40
0.000276938489774473
40
0.000276938489774473
40
0.000276938489774473
40
0.000276938489774473
10
-5.4727712118042904
20
-3.8860450912855566
30
0
10
-5.4804246231866216
20
-3.9031391258088615
30
0
10
-5.4877712406467971
20
-3.9201234234805438
30
-3.0814879110195774e-32
10
-5.4945253072969802
20
-3.9362245669587379
30
3.0814879110195774e-32
10
-5.4990144000812355
20
-3.9469261976576639
30
3.0814879110195774e-32
10
-5.5032741760340702
20
-3.9573142284153979
30
0
10
-5.5071371772197963
20
-3.9669090841949535
30
3.0814879110195774e-32
0
SPLINE
5
150
100
AcDbEntity
8
0
100
AcDbSpline
70
0
71
3
72
14
73
10
74
0
42
0.000000001
43
0.0000000001
44
0.0000000001
40
-0.013307470997568533
40
-0.013307470997568533
40
-0.013307470997568533
40
-0.013307470997568533
40
-0.011815318192247123
40
-0.011815318192247123
40
-0.0065718704844165352
40
-0.0065718704844165352
40
0
40
0
40
0.00020567783449089086
40
0.00020567783449089086
40
0.00020567783449089086
40
0.00020567783449089086
10
-5.5071371772197981
20
-3.9669090841949517
30
0
10
-5.5088351431162099
20
-3.9711244765817879
30
0
10
-5.5102186268438551
20
-3.975360229003877
30
-3.0814879110195774e-32
10
-5.515164398613436
20
-3.9943707777571564
30
0
10
-5.5155051684245731
20
-4.0089693512360274
30
-3.0814879110195774e-32
10
-5.5105945227344737
20
-4.0392674707667755
30
3.0814879110195774e-32
10
-5.5038507683198876
20
-4.0547224115569378
30
0
10
-5.4938922226081246
20
-4.0681517886245713
30
0
10
-5.493587041800585
20
-4.0685571030941503
30
3.0814879110195774e-32
10
-5.4932789164772222
20
-4.0689601593720912
30
-3.0814879110195774e-32
0
ARC
5
151
100
AcDbEntity
8
0
100
AcDbCircle
10
-0.4901518249162351
20
-0.24420853712627921
30
0
40
6.2976190474006515
210
-3.887310501088824e-33
220
-2.9717408478971521e-33
230
1
100
AcDbArc
50
217.39690749794261
51
219.74594964486809
0
SPLINE
5
152
100
AcDbEntity
8
0
100
AcDbSpline
70
0
71
3
72
14
73
10
74
0
42
0.000000001
43
0.0000000001
44
0.0000000001
40
0.055641293275825246
40
0.055641293275825246
40
0.055641293275825246
40
0.055641293275825246
40
0.057133446081414622
40
0.057133446081414622
40
0.062376893788400473
40
0.062376893788400473
40
0.068948764271755295
40
0.068948764271755295
40
0.069154442106227704
40
0.069154442106227704
40
0.069154442106227704
40
0.069154442106227704
10
-5.2359007631863363
20
-4.3070287895162771
30
0
10
-5.2403882998437199
20
-4.3077461708121669
30
0
10
-5.2448257072018372
20
-4.3081524241295588
30
0
10
-5.2644601595620868
20
-4.3087439500114488
30
0
10
-5.2787685447413155
20
-4.305827687807005
30
0
10
-5.3072143056931553
20
-4.2942981964018028
30
0
10
-5.3207811323199197
20
-4.2842844741312325
30
0
10
-5.331657821973721
20
-4.2715872924245977
30
0
10
-5.3319850652450089
20
-4.2711995721827449
30
0
10
-5.3323094517258447
20
-4.2708094837451158
30
0
0
SPLINE
5
153
100
AcDbEntity
8
0
100
AcDbSpline
70
0
71
3
72
11
73
7
74
0
42
0.000000001
43
0.0000000001
44
0.0000000001
40
0.00019249610590086935
40
0.00019249610590086935
40
0.00019249610590086935
40
0.00019249610590086935
40
0.00024322290490327286
40
0.00024322290490327286
40
0.00024322290490327286
40
0.00027693848977178634
40
0.00027693848977178634
40
0.00027693848977178634
40
0.00027693848977178634
10
-5.149417052692522
20
-4.2915183818299969
30
0
10
-5.1677855483298876
20
-4.295176125682695
30
0
10
-5.1859787903774235
20
-4.298559186324387
30
0
10
-5.2031791657913669
20
-4.3015610729378553
30
0
10
-5.2146114013836717
20
-4.3035562779354599
30
0
10
-5.2256868718466958
20
-4.3053976981069644
30
0
10
-5.2359007631902363
20
-4.3070287895050585
30
0
0
ARC
5
154
100
AcDbEntity
8
0
100
AcDbCircle
10
-5.5986000059994545
20
-2.0358068146985744
30
0
40
2.2999999999200087
210
0
220
0
230
1
100
AcDbArc
50
281.26207029779533
51
305.98837274944958
0
ARC
5
155
100
AcDbEntity
8
0
100
AcDbCircle
10
-4.1247904147563643
20
-4.0651976142175474
30
-3.0814879110195779e-32
40
0.20809523918323908
210
-4.9866872022674687e-33
220
-3.6214944055985036e-33
230
1
100
AcDbArc
50
46.43178741002211
51
125.98837274944941
0
ARC
5
156
100
AcDbEntity
8
0
100
AcDbCircle
10
-0.4901518249162351
20
-0.24420853712627921
30
0
40
5.0654761508716852
210
-3.9102957996859471e-33
220
-4.3327058542204253e-33
230
1
100
AcDbArc
50
226.43178740999957
51
227.85392687565619
0
ARC
5
157
100
AcDbEntity
8
0
100
AcDbCircle
10
-4.0288397596116745
20
-4.1542268116163203
30
-7.7510176592673674e-48
40
0.20809523918323874
210
-4.5694551769732113e-33
220
4.1354988053041725e-33
230
1
100
AcDbArc
50
-31.702658463735602
51
47.85392687569118
0
ARC
5
158
100
AcDbEntity
8
0
100
AcDbCircle
10
-1.8949856196846573
20
-5.4722587679545267
30
-6.1629758220391547e-32
40
2.2999999999200114
210
2.3263837918987962e-32
220
-1.4369530339757631e-32
230
1
100
AcDbArc
50
148.29734153626373
51
173.02364398791804
0
SPLINE
5
159
100
AcDbEntity
8
0
100
AcDbSpline
70
0
71
3
72
11
73
7
74
0
42
0.000000001
43
0.0000000001
44
0.0000000001
40
0.00019249610590087052
40
0.00019249610590087052
40
0.00019249610590087052
40
0.00019249610590087052
40
0.00024322290490327414
40
0.00024322290490327414
40
0.00024322290490327414
40
0.00027693848977447413
40
0.00027693848977447413
40
0.00027693848977447413
40
0.00027693848977447413
10
-4.1779572439116759
20
-5.1929013578034722
30
0
10
-4.1802320805726376
20
-5.211491834941949
30
6.1629758220391547e-32
10
-4.1822460988098173
20
-5.2298870214331874
30
0
10
-4.1839542058750698
20
-5.2472636323764688
30
6.1629758220391547e-32
10
-4.1850894998392096
20
-5.2588130029764999
30
-6.1629758220391547e-32
10
-4.1860981000806969
20
-5.2699951136781875
30
0
10
-4.1869613455737493
20
-5.2803023365248176
30
-6.1629758220391547e-32
0
SPLINE
5
160
100
AcDbEntity
8
0
100
AcDbSpline
70
0
71
3
72
14
73
10
74
0
42
0.000000001
43
0.0000000001
44
0.0000000001
40
-0.013307470997612021
40
-0.013307470997612021
40
-0.013307470997612021
40
-0.013307470997612021
40
-0.011815318192284513
40
-0.011815318192284513
40
-0.0065718704844349397
40
-0.0065718704844349397
40
0
40
0
40
0.00020567783450013938
40
0.00020567783450013938
40
0.00020567783450013938
40
0.00020567783450013938
10
-4.1869613455737502
20
-5.2803023365248176
30
-6.1629758220391547e-32
10
-4.1873413668913209
20
-5.2848309350893352
30
0
10
-4.1874148763747723
20
-5.2892862939033636
30
0
10
-4.1865374637679889
20
-5.308910049135612
30
0
10
-4.1825600890606269
20
-5.3229604926204086
30
0
10
-4.1689370820737199
20
-5.3504651134835761
30
0
10
-4.1579375099779874
20
-5.3632456781091253
30
0
10
-4.1444630161310583
20
-5.3731430927553223
30
0
10
-4.1440519251132928
20
-5.3734404466181349
30
0
10
-4.143638686009993
20
-5.3737347747031219
30
0
0
ARC
5
161
100
AcDbEntity
8
0
100
AcDbCircle
10
-0.4901518249162351
20
-0.24420853712627921
30
0
40
6.2976190473998948
210
0
220
0
230
1
100
AcDbArc
50
234.53976464079904
51
236.88880678772497
0
SPLINE
5
162
100
AcDbEntity
8
0
100
AcDbSpline
70
0
71
3
72
14
73
10
74
0
42
0.000000001
43
0.0000000001
44
0.0000000001
40
0.055641293266708608
40
0.055641293266708608
40
0.055641293266708608
40
0.055641293266708608
40
0.057133446071778379
40
0.057133446071778379
40
0.062376893776547947
40
0.062376893776547947
40
0.068948764257118308
40
0.068948764257118308
40
0.069154442091475338
40
0.069154442091475338
40
0.069154442091475338
40
0.069154442091475338
10
-3.8275231613209697
20
-5.5253631411164186
30
0
10
-3.8315998774670428
20
-5.5273713758244671
30
0
10
-3.8357203979995398
20
-5.529067529226749
30
6.1629758220391547e-32
10
-3.8543081914173283
20
-5.5354201317034102
30
-6.1629758220391547e-32
10
-3.86884047856402
20
-5.5368509014153364
30
-6.1629758220391547e-32
10
-3.8994208514194844
20
-5.5342181681945766
30
0
10
-3.9153365384590155
20
-5.5286482198568176
30
0
10
-3.9294725673177897
20
-5.5197210988636369
30
0
10
-3.9298995546362732
20
-5.5194470605917401
30
6.1629758220391547e-32
10
-3.9303245101213347
20
-5.5191699172826656
30
0
0
SPLINE
5
163
100
AcDbEntity
8
0
100
AcDbSpline
70
0
71
3
72
11
73
7
74
0
42
0.000000001
43
0.0000000001
44
0.0000000001
40
0.00019249610590087006
40
0.00019249610590087006
40
0.00019249610590087006
40
0.00019249610590087006
40
0.00024322290490327319
40
0.00024322290490327319
40
0.00024322290490327319
40
0.00027693848977122202
40
0.00027693848977122202
40
0.00027693848977122202
40
0.00027693848977122202
10
-3.7494534523532339
20
-5.4850502961548813
30
0
10
-3.7659277483402613
20
-5.4939597458463094
30
0
10
-3.7823155410604761
20
-5.5025550588286567
30
-6.1629758220391547e-32
10
-3.7978669304430364
20
-5.5104934796976117
30
0
10
-3.808203166887159
20
-5.515769753931119
30
-6.1629758220391547e-32
10
-3.8182438171492459
20
-5.5207939171994518
30
0
10
-3.8275231613294771
20
-5.5253631411048429
30
0
0
ARC
5
164
100
AcDbEntity
8
0
100
AcDbCircle
10
-4.843563123746554
20
-3.4619526646512493
30
0
40
2.2999999999200003
210
0
220
0
230
1
100
AcDbArc
50
298.40492744065239
51
323.13122989230675
0
ARC
5
165
100
AcDbEntity
8
0
100
AcDbCircle
10
-2.8370573183877763
20
-4.9667703218688457
30
-3.8487811825327617e-48
40
0.20809523918323752
210
-4.9304534263335078e-33
220
3.69768846629824e-33
230
1
100
AcDbArc
50
63.574644552884664
51
143.13122989230652
0
ARC
5
166
100
AcDbEntity
8
0
100
AcDbCircle
10
-0.4901518249162351
20
-0.24420853712627921
30
0
40
5.0654761508709258
210
-2.0423753509363293e-35
220
-4.1097708490018479e-35
230
1
100
AcDbArc
50
243.57464455285697
51
244.99678401851432
0
ARC
5
167
100
AcDbEntity
8
0
100
AcDbCircle
10
-2.7191276650272087
20
-5.0235622497320662
30
5.1317082433770156e-48
40
0.20809523918323916
210
5.2097992781163462e-33
220
1.1170813552015597e-32
230
1
100
AcDbArc
50
-14.559801320878998
51
64.99678401854176
0
ARC
5
168
100
AcDbEntity
8
0
100
AcDbCircle
10
-0.29157793822915667
20
-5.6540731951843437
30
0
40
2.2999999999200176
210
-1.9565517269538658e-34
220
5.0817796462407691e-35
230
1
100
AcDbArc
50
165.44019867912101
51
190.16650113077512
0
SPLINE
5
169
100
AcDbEntity
8
0
100
AcDbSpline
70
0
71
3
72
11
73
7
74
0
42
0.000000001
43
0.0000000001
44
0.0000000001
40
0.00019249610590086984
40
0.00019249610590086984
40
0.00019249610590086984
40
0.00019249610590086984
40
0.00024322290490327297
40
0.00024322290490327297
40
0.00024322290490327297
40
0.00027693848977447332
40
0.00027693848977447332
40
0.00027693848977447332
40
0.00027693848977447332
10
-2.555465580873971
20
-6.0600445502233313
30
6.1629758220391547e-32
10
-2.5521597135934693
20
-6.0784796245002157
30
-6.1629758220391547e-32
10
-2.5486621782487151
20
-6.0966512067653644
30
-6.1629758220391547e-32
10
-2.5451725529203841
20
-6.113759297035422
30
0
10
-2.5428531722135439
20
-6.1251301952751653
30
0
10
-2.5405209781860618
20
-6.1361128063130792
30
0
10
-2.5383077648360879
20
-6.1462165542443614
30
0
0
SPLINE
5
170
100
AcDbEntity
8
0
100
AcDbSpline
70
0
71
3
72
14
73
10
74
0
42
0.000000001
43
0.0000000001
44
0.0000000001
40
-0.013307470997557358
40
-0.013307470997557358
40
-0.013307470997557358
40
-0.013307470997557358
40
-0.011815318192231684
40
-0.011815318192231684
40
-0.0065718704843996329
40
-0.0065718704843996329
40
0
40
0
40
0.00020567783448440083
40
0.00020567783448440083
40
0.00020567783448440083
40
0.00020567783448440083
10
-2.5383077648360897
20
-6.1462165542443614
30
0
10
-2.5373360750130547
20
-6.1506559731306876
30
-6.1629758220391547e-32
10
-2.5360930786121125
20
-6.1549350601540187
30
-6.1629758220391547e-32
10
-2.5294704435895285
20
-6.1734283650954236
30
0
10
-2.5215283315608361
20
-6.1856822350231644
30
0
10
-2.5004034272314888
20
-6.2079494509530155
30
6.1629758220391547e-32
10
-2.4861253977064139
20
-6.2169200301602014
30
-6.1629758220391547e-32
10
-2.4703322236341703
20
-6.2224060536597889
30
0
10
-2.4698517496471322
20
-6.2225690257201718
30
0
10
-2.4693701148717442
20
-6.2227284732701849
30
0
0
ARC
5
171
100
AcDbEntity
8
0
100
AcDbCircle
10
-0.4901518249162351
20
-0.24420853712627921
30
0
40
6.2976190473991469
210
4.7960561526472685e-34
220
-1.5877578662212596e-34
230
1
100
AcDbArc
50
251.68262178365759
51
254.03166393058353
0
SPLINE
5
172
100
AcDbEntity
8
0
100
AcDbSpline
70
0
71
3
72
14
73
10
74
0
42
0.000000001
43
0.0000000001
44
0.0000000001
40
0.055641293284977397
40
0.055641293284977397
40
0.055641293284977397
40
0.055641293284977397
40
0.057133446091671758
40
0.057133446091671758
40
0.062376893801031931
40
0.062376893801031931
40
0.068948764287374925
40
0.068948764287374925
40
0.06915444212192795
40
0.06915444212192795
40
0.06915444212192795
40
0.06915444212192795
10
-2.1226054704021813
20
-6.2744437301847871
30
0
10
-2.1259091319172958
20
-6.277564377838881
30
6.1629758220391547e-32
10
-2.1293466392926308
20
-6.2803997206534268
30
-6.1629758220391547e-32
10
-2.1452361667520128
20
-6.2919489431174158
30
-6.1629758220391547e-32
10
-2.1587010983792791
20
-6.2975996145779911
30
0
10
-2.1886988828104705
20
-6.3040975694419252
30
-6.1629758220391547e-32
10
-2.2055492516248751
20
-6.3034663093898562
30
6.1629758220391547e-32
10
-2.221688571489238
20
-6.2991024629866086
30
-6.1629758220391547e-32
10
-2.2221773631577206
20
-6.2989664561877978
30
-6.1629758220391547e-32
10
-2.2226651284873582
20
-6.2988268834064449
30
0
0
SPLINE
5
173
100
AcDbEntity
8
0
100
AcDbSpline
70
0
71
3
72
11
73
7
74
0
42
0.000000001
43
0.0000000001
44
0.0000000001
40
0.00019249610590087017
40
0.00019249610590087017
40
0.00019249610590087017
40
0.00019249610590087017
40
0.00024322290490327378
40
0.00024322290490327378
40
0.00024322290490327378
40
0.00027693848976954161
40
0.00027693848976954161
40
0.00027693848976954161
40
0.00027693848976954161
10
-2.0598865992067439
20
-6.2129104211346871
30
-6.1629758220391547e-32
10
-2.0730028820487125
20
-6.2262799329612779
30
-6.1629758220391547e-32
10
-2.0861290981417877
20
-6.2393237670058959
30
0
10
-2.0986496923001812
20
-6.2514933585989443
30
0
10
-2.1069715096280097
20
-6.2595818819477911
30
0
10
-2.1150851838505105
20
-6.2673423693593406
30
0
10
-2.122605470419678
20
-6.2744437301718179
30
0
0
ARC
5
174
100
AcDbEntity
8
0
100
AcDbCircle
10
-3.7017065429619538
20
-4.6021878280356603
30
0
40
2.2999999999200034
210
1.9127592851056538e-32
220
-1.8765301319417869e-32
230
1
100
AcDbArc
50
315.54778458350955
51
340.27408703516392
0
ARC
5
175
100
AcDbEntity
8
0
100
AcDbCircle
10
-1.3407913696993017
20
-5.4487226903245904
30
-6.1629758220391536e-32
40
0.2080952391832411
210
-2.9006600116002019e-33
220
1.0400669415299651e-33
230
1
100
AcDbArc
50
80.717501695747657
51
160.27408703516389
0
ARC
5
176
100
AcDbEntity
8
0
100
AcDbCircle
10
-0.4901518249162351
20
-0.24420853712627921
30
0
40
5.0654761508702082
210
-1.4420208944120677e-34
220
-1.2327744531575384e-32
230
1
100
AcDbArc
50
260.71750169571686
51
262.13964116137407
0
ARC
5
177
100
AcDbEntity
8
0
100
AcDbCircle
10
-1.2113612853497022
20
-5.4682311366343361
30
1.3497461785965588e-48
40
0.20809523918323658
210
-1.5262676179600441e-33
220
2.107109271170299e-34
230
1
100
AcDbArc
50
2.583055821978089
51
82.139641161411021
0
ARC
5
178
100
AcDbEntity
8
0
100
AcDbCircle
10
1.294185581966848
20
-5.3551974067455426
30
-4.1053665947016125e-47
40
2.299999999920006
210
2.0773574341218361e-35
220
2.5814338574000095e-33
230
1
100
AcDbArc
50
182.58305582197795
51
207.3093582736324
0
SPLINE
5
179
100
AcDbEntity
8
0
100
AcDbSpline
70
0
71
3
72
11
73
7
74
0
42
0.000000001
43
0.0000000001
44
0.0000000001
40
0.00019249610590086903
40
0.00019249610590086903
40
0.00019249610590086903
40
0.00019249610590086903
40
0.00024322290490327159
40
0.00024322290490327159
40
0.00024322290490327159
40
0.00027693848977447164
40
0.00027693848977447164
40
0.00027693848977447164
40
0.00027693848977447164
10
-0.74946172713946824
20
-6.4104251905034104
30
0
10
-0.74086889673292244
20
-6.4270668246681781
30
0
10
-0.73217057917031247
20
-6.4434001778783365
30
-6.1629758220391547e-32
10
-0.72379328997279124
20
-6.4587196185770557
30
0
10
-0.71822532174920273
20
-6.4689016902475434
30
0
10
-0.71275955912675593
20
-6.4787089484345728
30
6.1629758220391547e-32
10
-0.70766654065242984
20
-6.4877114591072438
30
0
0
SPLINE
5
180
100
AcDbEntity
8
0
100
AcDbSpline
70
0
71
3
72
14
73
10
74
0
42
0.000000001
43
0.0000000001
44
0.0000000001
40
-0.013307470997624991
40
-0.013307470997624991
40
-0.013307470997624991
40
-0.013307470997624991
40
-0.011815318192297112
40
-0.011815318192297112
40
-0.0065718704844439863
40
-0.0065718704844439863
40
0
40
0
40
0.00020567783450459764
40
0.00020567783450459764
40
0.00020567783450459764
40
0.00020567783450459764
10
-0.70766654065243073
20
-6.4877114591072447
30
6.1629758220391547e-32
10
-0.70542947859376259
20
-6.4916672364652417
30
0
10
-0.70298042199345712
20
-6.4953898360373685
30
-6.1629758220391547e-32
10
-0.69120101473980267
20
-6.5111094793873381
30
0
10
-0.67999985689691922
20
-6.5204779656397207
30
0
10
-0.65325009567989745
20
-6.5355292367828657
30
-6.1629758220391547e-32
10
-0.63696227430653951
20
-6.539892755242505
30
0
10
-0.62025371283275654
20
-6.5404799303324426
30
0
10
-0.61974654809887753
20
-6.5404940398075917
30
0
10
-0.61923931301473267
20
-6.5405044392081138
30
0
0
ARC
5
181
100
AcDbEntity
8
0
100
AcDbCircle
10
-0.4901518249162351
20
-0.24420853712627921
30
0
40
6.2976190473984754
210
0
220
0
230
1
100
AcDbArc
50
268.82547892651797
51
271.17452107344428
0
SPLINE
5
182
100
AcDbEntity
8
0
100
AcDbSpline
70
0
71
3
72
14
73
10
74
0
42
0.000000001
43
0.0000000001
44
0.0000000001
40
0.05564129330966832
40
0.05564129330966832
40
0.05564129330966832
40
0.05564129330966832
40
0.057133446117778569
40
0.057133446117778569
40
0.062376893833097094
40
0.062376893833097094
40
0.068948764326882087
40
0.068948764326882087
40
0.069154442161683705
40
0.069154442161683705
40
0.069154442161683705
40
0.069154442161683705
10
-0.27263710918121442
20
-6.4877114591020355
30
-6.1629758220391547e-32
10
-0.27487417124068159
20
-6.4916672364619803
30
0
10
-0.27732322784199565
20
-6.4953898360358515
30
0
10
-0.28910263509680695
20
-6.5111094793873603
30
0
10
-0.30030379293969961
20
-6.520477965639742
30
6.1629758220391547e-32
10
-0.32705355415669335
20
-6.5355292367828612
30
0
10
-0.34334137553002675
20
-6.5398927552424926
30
-6.1629758220391547e-32
10
-0.36004993700375854
20
-6.5404799303324426
30
0
10
-0.36055710173770683
20
-6.5404940398075944
30
6.1629758220391547e-32
10
-0.36106433682186218
20
-6.5405044392081155
30
0
0
SPLINE
5
183
100
AcDbEntity
8
0
100
AcDbSpline
70
0
71
3
72
11
73
7
74
0
42
0.000000001
43
0.0000000001
44
0.0000000001
40
0.00019249610590086832
40
0.00019249610590086832
40
0.00019249610590086832
40
0.00019249610590086832
40
0.00024322290490327145
40
0.00024322290490327145
40
0.00024322290490327145
40
0.00027693848977101813
40
0.00027693848977101813
40
0.00027693848977101813
40
0.00027693848977101813
10
-0.23084192269712475
20
-6.410425190503414
30
0
10
-0.23943475310366794
20
-6.427066824668243
30
0
10
-0.24813307066627793
20
-6.4434001778783419
30
6.1629758220391547e-32
10
-0.256510359863802
20
-6.4587196185770672
30
0
10
-0.2620783280868218
20
-6.4689016902465166
30
6.1629758220391547e-32
10
-0.26754409070862939
20
-6.4787089484360934
30
6.1629758220391547e-32
10
-0.2726371091956068
20
-6.4877114590969684
30
-6.1629758220391547e-32
0
ARC
5
184
100
AcDbEntity
8
0
100
AcDbCircle
10
-2.2744892318034311
20
-5.3551974067455177
30
6.1629758220391547e-32
40
2.2999999999200105
210
2.3808977231897165e-32
220
-1.2293654666344463e-32
230
1
100
AcDbArc
50
332.69064172636683
51
357.41694417802125
0
ARC
5
185
100
AcDbEntity
8
0
100
AcDbCircle
10
0.23105763551312519
20
-5.4682311366343495
30
6.1629758220391547e-32
40
0.2080952391832378
210
0
220
0
230
1
100
AcDbArc
50
97.860358838598913
51
177.4169441780212
0
ARC
5
186
100
AcDbEntity
8
0
100
AcDbCircle
10
-0.4901518249162351
20
-0.24420853712627921
30
0
40
5.0654761508696042
210
-1.6638982858919803e-33
220
1.2052313129126901e-32
230
1
100
AcDbArc
50
277.86035883857949
51
279.28249830423715
0
ARC
5
187
100
AcDbEntity
8
0
100
AcDbCircle
10
0.36048771986272626
20
-5.448722690324602
30
0
40
0.20809523918323913
210
0
220
-0
230
1
100
AcDbArc
50
19.725912964836002
51
99.282498304256521
0
ARC
5
188
100
AcDbEntity
8
0
100
AcDbCircle
10
2.7214028931254068
20
-4.6021878280356994
30
0
40
2.299999999920022
210
0
220
0
230
1
100
AcDbArc
50
199.72591296483523
51
224.45221541648942
0
SPLINE
5
189
100
AcDbEntity
8
0
100
AcDbSpline
70
0
71
3
72
11
73
7
74
0
42
0.000000001
43
0.0000000001
44
0.0000000001
40
0.00019249610590086865
40
0.00019249610590086865
40
0.00019249610590086865
40
0.00019249610590086865
40
0.00024322290490327194
40
0.00024322290490327194
40
0.00024322290490327194
40
0.00027693848977447121
40
0.00027693848977447121
40
0.00027693848977447121
40
0.00027693848977447121
10
1.0795829493701539
20
-6.2129104211347101
30
-6.1629758220391547e-32
10
1.092699232212123
20
-6.2262799329613046
30
0
10
1.1058254483051979
20
-6.2393237670059207
30
0
10
1.1183460424635867
20
-6.2514933585989638
30
0
10
1.1266678597926261
20
-6.2595818819489928
30
0
10
1.1347815340149277
20
-6.2673423693567702
30
6.1629758220391547e-32
10
1.1423018205718216
20
-6.2744437301906935
30
0
0
SPLINE
5
190
100
AcDbEntity
8
0
100
AcDbSpline
70
0
71
3
72
14
73
10
74
0
42
0.000000001
43
0.0000000001
44
0.0000000001
40
-0.013307470997764401
40
-0.013307470997764401
40
-0.013307470997764401
40
-0.013307470997764401
40
-0.011815318192416845
40
-0.011815318192416845
40
-0.0065718704845116587
40
-0.0065718704845116587
40
0
40
0
40
0.0002056778345191752
40
0.0002056778345191752
40
0.0002056778345191752
40
0.0002056778345191752
10
1.1423018205718185
20
-6.2744437301906952
30
0
10
1.1456054820850381
20
-6.2775643778424808
30
0
10
1.1490429894582781
20
-6.2803997206550815
30
0
10
1.1649325169154687
20
-6.2919489431174656
30
6.1629758220391547e-32
10
1.1783974485427409
20
-6.2975996145780355
30
0
10
1.2083952329739325
20
-6.3040975694419519
30
0
10
1.2252456017889148
20
-6.3034663093896848
30
-6.1629758220391547e-32
10
1.2413849216525055
20
-6.2991024629866761
30
0
10
1.241873713321068
20
-6.2989664561878413
30
0
10
1.2423614786507666
20
-6.2988268834064707
30
0
0
ARC
5
191
100
AcDbEntity
8
0
100
AcDbCircle
10
-0.4901518249162351
20
-0.24420853712627921
30
0
40
6.297619047397939
210
-2.7786007690691789e-49
220
9.7103826901401261e-49
230
1
100
AcDbArc
50
-74.031663930619928
51
26.483881037352624
0
LINE
5
192
100
AcDbEntity
8
0
100
AcDbLine
10
5.1465941637002688
20
2.5641896408351572
30
0
11
-5.7499999996209814
21
24.434782607934938
31
2.3382710532638677e-33
0
ENDSEC
0
SECTION
2
OBJECTS
0
DICTIONARY
5
C
100
AcDbDictionary
3
ACAD_GROUP
350
D
3
ACAD_MLINESTYLE
350
17
0
DICTIONARY
5
D
100
AcDbDictionary
0
DICTIONARY
5
1A
330
C
100
AcDbDictionary
0
DICTIONARY
5
17
100
AcDbDictionary
0
ENDSEC
0
EOF
