0
SECTION
2
HEADER
9
$INSUNITS
70
4
9
$ACADVER
1
AC1014
9
$HANDSEED
5
FFFF
0
ENDSEC
0
SECTION
2
TABLES
0
TABLE
2
VPORT
5
8
100
AcDbSymbolTable
0
ENDTAB
0
TABLE
2
LTYPE
5
5
100
AcDbSymbolTable
0
LTYPE
5
14
100
AcDbSymbolTableRecord
100
AcDbLinetypeTableRecord
2
BYBLOCK
70
0
0
LTYPE
5
15
100
AcDbSymbolTableRecord
100
AcDbLinetypeTableRecord
2
BYLAYER
70
0
0
ENDTAB
0
TABLE
2
LAYER
5
2
100
AcDbSymbolTable
70
2
0
LAYER
5
50
100
AcDbSymbolTableRecord
100
AcDbLayerTableRecord
2
0
70
0
6
CONTINUOUS
0
ENDTAB
0
TABLE
2
STYLE
5
3
100
AcDbSymbolTable
70
1
0
STYLE
5
11
100
AcDbSymbolTableRecord
100
AcDbTextStyleTableRecord
2
STANDARD
70
0
0
ENDTAB
0
TABLE
2
VIEW
5
6
100
AcDbSymbolTable
70
0
0
ENDTAB
0
TABLE
2
UCS
5
7
100
AcDbSymbolTable
70
0
0
ENDTAB
0
TABLE
2
APPID
5
9
100
AcDbSymbolTable
70
2
0
APPID
5
12
100
AcDbSymbolTableRecord
100
AcDbRegAppTableRecord
2
ACAD
70
0
0
ENDTAB
0
TABLE
2
DIMSTYLE
5
A
100
AcDbSymbolTable
70
1
0
ENDTAB
0
TABLE
2
BLOCK_RECORD
5
1
100
AcDbSymbolTable
70
1
0
BLOCK_RECORD
5
1F
100
AcDbSymbolTableRecord
100
AcDbBlockTableRecord
2
*MODEL_SPACE
0
BLOCK_RECORD
5
1B
100
AcDbSymbolTableRecord
100
AcDbBlockTableRecord
2
*PAPER_SPACE
0
ENDTAB
0
ENDSEC
0
SECTION
2
BLOCKS
0
BLOCK
5
20
100
AcDbEntity
100
AcDbBlockBegin
2
*MODEL_SPACE
0
ENDBLK
5
21
100
AcDbEntity
100
AcDbBlockEnd
0
BLOCK
5
1C
100
AcDbEntity
100
AcDbBlockBegin
2
*PAPER_SPACE
0
ENDBLK
5
1D
100
AcDbEntity
100
AcDbBlockEnd
0
ENDSEC
0
SECTION
2
ENTITIES
0
LWPOLYLINE
5
100
100
AcDbEntity
8
OUTER_PROFILES
100
AcDbPolyline
90
18
70
1
43
0.0
10
24.3859345295255
20
5.1980285540946838
10
20.993014463648521
20
5.1980285540946802
10
20.993014463648517
20
32.405031455210718
42
0.19891236737965928
10
20.700121244835064
20
33.112138236397264
10
12.962947354188612
20
40.849312127043717
42
0.41421356237309365
10
11.54873379181552
20
40.849312127043717
10
-9.730247624446319
20
19.570330710781874
42
0.41929874865234734
10
-9.7178874338666361
20
18.143969332918921
10
-1.3052534093931358
20
10.017988861561825
42
-0.20342036851351511
10
-1.0000000000000018
20
9.2987342648854181
10
-0.99999999999999578
20
1.0000000000000009
42
0.41421356237309503
10
4.2327252813834093e-15
20
6.9388939039072284e-16
10
49.35186035581458
20
4.9960036108132044e-15
42
0.41421356237309481
10
50.351860355814573
20
1.0000000000000009
10
50.351860355814573
20
11.000000000000004
42
0.4142135623730957
10
49.35186035581458
20
12.000000000000007
10
25.385934529525507
20
12.000000000000007
42
0.41421356237309437
10
24.3859345295255
20
11.000000000000007
0
LWPOLYLINE
5
101
100
AcDbEntity
8
INTERIOR_PROFILES
100
AcDbPolyline
90
60
70
1
43
0.0
10
35.927833058704486
20
4.5349057674942976
42
-0.41421356237310403
10
35.875284784154616
20
4.5822204464198775
10
35.853976487407685
20
4.9888069692306578
42
0.29621349496207994
10
35.821963408147219
20
5.0328691927433686
10
35.441861272006228
20
5.1787767324480329
42
-0.41421356237310109
10
35.413100648158633
20
5.2433741512501575
10
35.559008187863299
20
5.623476287391151
42
0.29621349496207877
10
35.547684505597758
20
5.6767500239277444
10
35.259789868584832
20
5.9646446609406762
42
-0.41421356237309964
10
35.259789868584832
20
6.0353553390593309
10
35.547684505597758
20
6.32324997607226
42
0.29621349496206184
10
35.559008187863299
20
6.3765237126088508
10
35.413100648158633
20
6.7566258487498487
42
-0.41421356237310347
10
35.441861272006228
20
6.8212232675519751
10
35.821963408147219
20
6.9671308072566358
42
0.296213494962077
10
35.853976487407685
20
7.0111930307693466
10
35.875284784154609
20
7.4177795535801261
42
-0.41421356237309537
10
35.927833058704486
20
7.4650942325057104
10
36.334419581515263
20
7.4437859357587834
42
0.29621349496207144
10
36.381586705536833
20
7.4710178875095341
10
36.566426440648002
20
7.8337862934735121
42
-0.41421356237310097
10
36.633676291844402
20
7.8556370946959531
10
36.996444697808371
20
7.67079735958478
42
0.29621349496206428
10
37.050610242347844
20
7.6764903877213486
10
37.367020946406271
20
7.9327147237998519
42
-0.41421356237308177
10
37.437344264031609
20
7.9253234452794965
10
37.693568600110112
20
7.6089127412210713
42
0.2962134949620705
10
37.745366850438089
20
7.5920824694591094
10
38.138638238211051
20
7.6974592202191428
42
-0.41421356237309848
10
38.19987548178063
20
7.6621038811598137
10
38.305252232540667
20
7.268832493386852
42
0.296213494962076
10
38.345726800603103
20
7.2323890286122205
10
38.747858676386272
20
7.1686975965296469
42
-0.4142135623730886
10
38.789421370164014
20
7.1114914562478795
10
38.725729938081443
20
6.7093595804647164
42
0.29621349496207605
10
38.747882403360443
20
6.6596043288154334
10
39.089342512577495
20
6.4378575411158279
42
-0.41421356237308959
10
39.104044089224018
20
6.3686920609678053
10
38.882297301524417
20
6.0272319517507533
42
0.29621349496208083
10
38.882297301524417
20
5.9727680482492502
10
39.104044089224018
20
5.6313079390321992
42
-0.41421356237309154
10
39.089342512577502
20
5.5621424588841775
10
38.747882403360443
20
5.3403956711845693
42
0.29621349496207283
10
38.725729938081443
20
5.2906404195352872
10
38.789421370164014
20
4.888508543752125
42
-0.4142135623730886
10
38.747858676386272
20
4.8313024034703567
10
38.345726800603103
20
4.7676109713877839
42
0.29621349496208565
10
38.30525223254066
20
4.7311675066131516
10
38.19987548178063
20
4.337896118840189
42
-0.41421356237308854
10
38.138638238211051
20
4.3025407797808608
10
37.745366850438089
20
4.4079175305408942
42
0.2962134949621138
10
37.693568600110105
20
4.3910872587789314
10
37.437344264031609
20
4.0746765547205097
42
-0.41421356237309304
10
37.367020946406271
20
4.0672852762001552
10
37.205566444298242
20
4.198028554094682
10
36.739001057945643
20
4.1980285540946829
10
36.633676291844395
20
4.1443629053040523
42
-0.41421356237308354
10
36.566426440648002
20
4.1662137065264933
10
36.381586705536833
20
4.5289821124904721
42
0.29621349496206845
10
36.334419581515263
20
4.5562140642412245
0
CIRCLE
5
102
100
AcDbEntity
8
INTERIOR_PROFILES
100
AcDbCircle
10
-13.73478543605362
20
34.067066405093058
30
0
40
1.0499999999999998
210
0
220
0
230
-1
0
CIRCLE
5
103
100
AcDbEntity
8
INTERIOR_PROFILES
100
AcDbCircle
10
2.864586150443631
20
17.432419275822568
30
0
40
1.0499999999999998
210
0
220
0
230
-1
0
LWPOLYLINE
5
104
100
AcDbEntity
8
INTERIOR_PROFILES
100
AcDbPolyline
90
4
70
1
43
0.0
10
9.4567894098750038
20
35.870188697118756
10
15.537907728079317
20
29.789070378914445
10
1.3957721043483629
20
15.646934755183487
10
-4.6853462138559543
20
21.728053073387798
0
LINE
5
105
100
AcDbEntity
8
BEND
100
AcDbLine
10
22.68947449658701
20
-3.3306690738754696e-15
30
2.3265753949039208e-15
11
22.68947449658701
21
5.198028554094682
31
1.0612934565360718e-16
0
LINE
5
106
100
AcDbEntity
8
BEND
100
AcDbLine
10
-1.0000000000000009
20
6.6117452482100791
30
-1.3705871490372613e-14
11
20.993014463648532
21
6.6117452482100809
31
-6.3865501558536804e-15
0
LINE
5
107
100
AcDbEntity
8
BEND_EXTENT
100
AcDbLine
10
20.993014463648521
20
-2.2204460492503131e-15
30
9.819420404200524e-17
11
20.993014463648521
21
5.1980285540946802
31
9.819420404200524e-17
0
LINE
5
108
100
AcDbEntity
8
BEND_EXTENT
100
AcDbLine
10
20.993014463648521
20
5.1980285540946802
30
9.819420404200524e-17
11
-0.99999999999999201
21
5.198028554094682
31
-4.6774704134100415e-18
0
LINE
5
109
100
AcDbEntity
8
BEND_EXTENT
100
AcDbLine
10
24.3859345295255
20
5.1980285540946838
30
1.1406448726521008e-16
11
24.3859345295255
21
2.2204460492503131e-15
31
1.1406448726521008e-16
0
LINE
5
110
100
AcDbEntity
8
BEND_EXTENT
100
AcDbLine
10
-1.0000000000000009
20
8.0254619423254994
30
-1.6102911327478182e-14
11
20.993014463648528
21
8.0254619423254994
31
-9.3387015052718263e-15
0
ENDSEC
0
SECTION
2
OBJECTS
0
DICTIONARY
5
C
100
AcDbDictionary
3
ACAD_GROUP
350
D
3
ACAD_MLINESTYLE
350
17
0
DICTIONARY
5
D
100
AcDbDictionary
0
DICTIONARY
5
1A
330
C
100
AcDbDictionary
0
DICTIONARY
5
17
100
AcDbDictionary
0
ENDSEC
0
EOF
