0
SECTION
2
HEADER
9
$INSUNITS
70
4
9
$ACADVER
1
AC1014
9
$HANDSEED
5
FFFF
0
ENDSEC
0
SECTION
2
TABLES
0
TABLE
2
VPORT
5
8
100
AcDbSymbolTable
0
ENDTAB
0
TABLE
2
LTYPE
5
5
100
AcDbSymbolTable
0
LTYPE
5
14
100
AcDbSymbolTableRecord
100
AcDbLinetypeTableRecord
2
BYBLOCK
70
0
0
LTYPE
5
15
100
AcDbSymbolTableRecord
100
AcDbLinetypeTableRecord
2
BYLAYER
70
0
0
ENDTAB
0
TABLE
2
LAYER
5
2
100
AcDbSymbolTable
70
2
0
LAYER
5
50
100
AcDbSymbolTableRecord
100
AcDbLayerTableRecord
2
0
70
0
6
CONTINUOUS
0
ENDTAB
0
TABLE
2
STYLE
5
3
100
AcDbSymbolTable
70
1
0
STYLE
5
11
100
AcDbSymbolTableRecord
100
AcDbTextStyleTableRecord
2
STANDARD
70
0
0
ENDTAB
0
TABLE
2
VIEW
5
6
100
AcDbSymbolTable
70
0
0
ENDTAB
0
TABLE
2
UCS
5
7
100
AcDbSymbolTable
70
0
0
ENDTAB
0
TABLE
2
APPID
5
9
100
AcDbSymbolTable
70
2
0
APPID
5
12
100
AcDbSymbolTableRecord
100
AcDbRegAppTableRecord
2
ACAD
70
0
0
ENDTAB
0
TABLE
2
DIMSTYLE
5
A
100
AcDbSymbolTable
70
1
0
ENDTAB
0
TABLE
2
BLOCK_RECORD
5
1
100
AcDbSymbolTable
70
1
0
BLOCK_RECORD
5
1F
100
AcDbSymbolTableRecord
100
AcDbBlockTableRecord
2
*MODEL_SPACE
0
BLOCK_RECORD
5
1B
100
AcDbSymbolTableRecord
100
AcDbBlockTableRecord
2
*PAPER_SPACE
0
ENDTAB
0
ENDSEC
0
SECTION
2
BLOCKS
0
BLOCK
5
20
100
AcDbEntity
100
AcDbBlockBegin
2
*MODEL_SPACE
0
ENDBLK
5
21
100
AcDbEntity
100
AcDbBlockEnd
0
BLOCK
5
1C
100
AcDbEntity
100
AcDbBlockBegin
2
*PAPER_SPACE
0
ENDBLK
5
1D
100
AcDbEntity
100
AcDbBlockEnd
0
ENDSEC
0
SECTION
2
ENTITIES
0
LWPOLYLINE
5
100
100
AcDbEntity
8
OUTER_PROFILES
100
AcDbPolyline
90
20
70
1
43
0.0
10
54.98584013175396
20
23.053999999999995
10
44.041486758187396
20
23.054000000000002
42
0.29859493556371058
10
43.124416701934152
20
22.452726111414453
10
40.968770075500728
20
17.494738870617553
42
0.10289265059382612
10
40.885840131753959
20
17.096012759203102
10
40.885840131753959
20
4.8039999999999967
10
29.000000000000004
20
4.8039999999999949
10
29.000000000000007
20
22.60092006587697
42
0.41421356237309637
10
28.000000000000004
20
23.60092006587697
10
8.9430165369586199e-15
20
23.60092006587697
42
0.41421356237309637
10
-0.99999999999999101
20
22.600920065876963
10
-0.99999999999999101
20
0.99999999999999667
42
0.41421356237309193
10
3.4694469519535945e-16
20
-1.2490009027033011e-15
10
40.885840131753959
20
2.2204460492503131e-15
10
40.885840131753959
20
-3.1959999999999966
10
43.124416701934152
20
-8.3447261114144471
42
0.29859493556370903
10
44.041486758187389
20
-8.945999999999998
10
54.98584013175396
20
-8.9459999999999944
42
0.4142135623730947
10
55.98584013175396
20
-7.9459999999999988
10
55.98584013175396
20
22.053999999999995
42
0.41421356237309637
0
LWPOLYLINE
5
101
100
AcDbEntity
8
INTERIOR_PROFILES
100
AcDbPolyline
90
4
70
1
43
0.0
10
53.98584013175396
20
17.054000000000002
10
53.98584013175396
20
-2.9459999999999975
10
45.385840131753966
20
-2.9459999999999975
10
45.385840131753966
20
17.054000000000002
0
LWPOLYLINE
5
102
100
AcDbEntity
8
INTERIOR_PROFILES
100
AcDbPolyline
90
4
70
1
43
0.0
10
24.999999999999996
20
21.600920065876966
10
24.999999999999996
20
13.000920065876969
10
4.9999999999999956
20
13.000920065876969
10
4.9999999999999956
20
21.600920065876966
0
CIRCLE
5
103
100
AcDbEntity
8
INTERIOR_PROFILES
100
AcDbCircle
10
49.685840131753963
20
-4.6959999999999997
30
0
40
1.0499999999999998
210
-0
220
0
230
1
0
CIRCLE
5
104
100
AcDbEntity
8
INTERIOR_PROFILES
100
AcDbCircle
10
-26.75
20
17.300920065876969
30
0
40
1.0499999999999998
210
0
220
0
230
-1
0
CIRCLE
5
105
100
AcDbEntity
8
INTERIOR_PROFILES
100
AcDbCircle
10
-3.2499999999999929
20
17.300920065876969
30
0
40
1.0499999999999998
210
0
220
0
230
-1
0
CIRCLE
5
106
100
AcDbEntity
8
INTERIOR_PROFILES
100
AcDbCircle
10
49.685840131753963
20
18.803999999999998
30
0
40
1.0499999999999998
210
-0
220
0
230
1
0
LINE
5
107
100
AcDbEntity
8
BEND
100
AcDbLine
10
39.189380098815477
20
2.2204460492503131e-15
30
1.5462120991516468e-14
11
39.189380098815477
21
4.8039999999999967
31
1.5462120991516468e-14
0
LINE
5
108
100
AcDbEntity
8
BEND
100
AcDbLine
10
30.696460032938493
20
4.8039999999999949
30
3.9850256401578045e-15
11
30.696460032938493
21
2.2204460492503131e-15
31
3.9850256401578045e-15
0
LINE
5
109
100
AcDbEntity
8
BEND
100
AcDbLine
10
29.000000000000007
20
6.5004600329384825
30
-2.9203868223865329e-16
11
-0.99999999999999645
21
6.5004600329384825
31
-1.8953749679423886e-15
0
LINE
5
110
100
AcDbEntity
8
BEND_EXTENT
100
AcDbLine
10
37.492920065876987
20
0
30
1.3980600294055453e-14
11
37.492920065876987
21
4.8039999999999967
31
1.3980600294055453e-14
0
LINE
5
111
100
AcDbEntity
8
BEND_EXTENT
100
AcDbLine
10
32.392920065876979
20
4.8039999999999949
30
1.0630036816827414e-14
11
32.392920065876979
21
0
31
8.4095907675771006e-15
0
LINE
5
112
100
AcDbEntity
8
BEND_EXTENT
100
AcDbLine
10
29.000000000000004
20
-2.2204460492503131e-15
30
1.0056572741544629e-15
11
29.000000000000004
21
4.8039999999999949
31
-1.045657504706936e-16
0
LINE
5
113
100
AcDbEntity
8
BEND_EXTENT
100
AcDbLine
10
29.000000000000004
20
4.8039999999999949
30
-1.045657504706936e-16
11
-0.99999999999999645
21
4.8039999999999949
31
-1.5277363873977779e-15
0
LINE
5
114
100
AcDbEntity
8
BEND_EXTENT
100
AcDbLine
10
-0.99999999999999645
20
8.1969200658769683
30
-2.6379594120229345e-15
11
29.000000000000014
21
8.1969200658769665
31
-9.3723301893955706e-16
0
LINE
5
115
100
AcDbEntity
8
BEND_EXTENT
100
AcDbLine
10
40.885840131753959
20
4.8039999999999967
30
1.8053864713602617e-14
11
40.885840131753959
21
2.2204460492503131e-15
31
1.694364168897746e-14
0
ENDSEC
0
SECTION
2
OBJECTS
0
DICTIONARY
5
C
100
AcDbDictionary
3
ACAD_GROUP
350
D
3
ACAD_MLINESTYLE
350
17
0
DICTIONARY
5
D
100
AcDbDictionary
0
DICTIONARY
5
1A
330
C
100
AcDbDictionary
0
DICTIONARY
5
17
100
AcDbDictionary
0
ENDSEC
0
EOF
