<?xml version="1.0" encoding="UTF-8" standalone="no"?>
<!DOCTYPE svg PUBLIC "-//W3C//DTD SVG 1.1//EN" "http://www.w3.org/Graphics/SVG/1.1/DTD/svg11.dtd">
<svg width="100%" height="100%" viewBox="0 0 108 304" version="1.1" xmlns="http://www.w3.org/2000/svg" xmlns:xlink="http://www.w3.org/1999/xlink" xml:space="preserve" xmlns:serif="http://www.serif.com/" style="fill-rule:evenodd;clip-rule:evenodd;stroke-linecap:round;stroke-linejoin:round;stroke-miterlimit:10;">
    <g id="Artboard1" transform="matrix(0.398676,0,0,0.806669,-193.405,-153.49)">
        <rect x="485.118" y="190.277" width="268.89" height="376.611" style="fill:none;"/>
        <clipPath id="_clip1">
            <rect x="485.118" y="190.277" width="268.89" height="376.611"/>
        </clipPath>
        <g clip-path="url(#_clip1)">
            <g id="Visible" transform="matrix(2.5083,0,0,1.23967,-731.408,-45.2599)">
                <g transform="matrix(0.0599371,-0.00319799,0.00319799,0.0599371,500.516,189.498)">
                    <path d="M135.737,110.12C115.866,42.637 49.436,0 -20.192,10.039C-89.82,20.077 -141.5,79.742 -141.5,150.091" style="fill:none;fill-rule:nonzero;stroke:black;stroke-width:23.99px;"/>
                </g>
                <g transform="matrix(0.0200025,0.0565914,0.0565914,-0.0200025,-132.056,-109.122)">
                    <path d="M8347.51,8377.5L12353.5,8377.5" style="fill:none;fill-rule:nonzero;stroke:black;stroke-width:23.99px;"/>
                </g>
                <g transform="matrix(-0.0326893,-0.0503398,-0.0503398,0.0326893,1157.93,752.11)">
                    <path d="M9972.69,6061.93C9975.18,6060.31 9978.38,6060.31 9980.86,6061.93" style="fill:none;fill-rule:nonzero;stroke:black;stroke-width:23.99px;"/>
                </g>
                <g transform="matrix(-0.0550612,-0.0238945,-0.0238945,0.0550612,1217.8,350.278)">
                    <path d="M9918.61,6076.5L9976.39,6076.5" style="fill:none;fill-rule:nonzero;stroke:black;stroke-width:23.99px;"/>
                </g>
                <g transform="matrix(0.0215106,0.0560356,0.0560356,-0.0215106,523.078,446.431)">
                    <path d="M-9.053,3.75C-6.124,0.821 -1.376,0.821 1.553,3.75" style="fill:none;fill-rule:nonzero;stroke:black;stroke-width:23.99px;"/>
                </g>
                <g transform="matrix(0.0251529,-0.0544978,-0.0544978,-0.0251529,607.777,1139.46)">
                    <path d="M9900.36,6124L9957.64,6124" style="fill:none;fill-rule:nonzero;stroke:black;stroke-width:23.99px;"/>
                </g>
                <g transform="matrix(-0.00939201,-0.059283,-0.059283,0.00939201,982.739,974.034)">
                    <path d="M9937.32,6155.08C9939.81,6153.47 9943.01,6153.47 9945.49,6155.08" style="fill:none;fill-rule:nonzero;stroke:black;stroke-width:23.99px;"/>
                </g>
                <g transform="matrix(-0.0403239,-0.0444597,-0.0444597,0.0403239,1198.04,632.865)">
                    <path d="M9891.47,6179.5L9949.53,6179.5" style="fill:none;fill-rule:nonzero;stroke:black;stroke-width:23.99px;"/>
                </g>
                <g transform="matrix(-0.00314072,0.0599403,0.0599403,0.00314072,521.869,439.56)">
                    <path d="M-9.053,3.75C-6.124,0.821 -1.376,0.821 1.553,3.75" style="fill:none;fill-rule:nonzero;stroke:black;stroke-width:23.99px;"/>
                </g>
                <g transform="matrix(0.0449765,-0.0397467,-0.0397467,-0.0449765,324.742,1112.58)">
                    <path d="M9894.81,6230L9952.19,6230" style="fill:none;fill-rule:nonzero;stroke:black;stroke-width:23.99px;"/>
                </g>
                <g transform="matrix(0.015533,-0.0579777,-0.0579777,-0.015533,732.935,1110.37)">
                    <path d="M9942.83,6254.31C9945.31,6252.7 9948.51,6252.7 9951,6254.31" style="fill:none;fill-rule:nonzero;stroke:black;stroke-width:23.99px;"/>
                </g>
                <g transform="matrix(-0.0186693,-0.0570451,-0.0570451,0.0186693,1068.35,884.269)">
                    <path d="M9909.07,6284.5L9966.93,6284.5" style="fill:none;fill-rule:nonzero;stroke:black;stroke-width:23.99px;"/>
                </g>
                <g transform="matrix(-0.0272483,0.053481,0.053481,0.0272483,523.578,432.835)">
                    <path d="M-9.053,3.75C-6.124,0.821 -1.376,0.821 1.553,3.75" style="fill:none;fill-rule:nonzero;stroke:black;stroke-width:23.99px;"/>
                </g>
                <g transform="matrix(0.0570451,-0.0186693,-0.0186693,-0.0570451,75.6444,979.002)">
                    <path d="M9931.57,6330L9989.43,6330" style="fill:none;fill-rule:nonzero;stroke:black;stroke-width:23.99px;"/>
                </g>
                <g transform="matrix(0.0377741,-0.0466455,-0.0466455,-0.0377741,445.908,1136.86)">
                    <path d="M9987.3,6341.54C9989.79,6339.93 9992.99,6339.93 9995.47,6341.54" style="fill:none;fill-rule:nonzero;stroke:black;stroke-width:23.99px;"/>
                </g>
                <g transform="matrix(0.00628343,-0.0596925,-0.0596925,-0.00628343,845.437,1066.07)">
                    <path d="M9967.34,6373.5L10024.7,6373.5" style="fill:none;fill-rule:nonzero;stroke:black;stroke-width:23.99px;"/>
                </g>
                <g transform="matrix(-0.0466448,0.0377744,0.0377744,0.0466448,527.909,427.379)">
                    <path d="M-9.053,3.75C-6.124,0.821 -1.376,0.821 1.553,3.75" style="fill:none;fill-rule:nonzero;stroke:black;stroke-width:23.99px;"/>
                </g>
                <g transform="matrix(0.0596925,0.00628343,0.00628343,-0.0596925,-109.123,746.723)">
                    <path d="M10006.8,6405L10064.2,6405" style="fill:none;fill-rule:nonzero;stroke:black;stroke-width:23.99px;"/>
                </g>
                <g transform="matrix(0.0534803,-0.0272495,-0.0272495,-0.0534803,168.179,1044.36)">
                    <path d="M10064.3,6403.88C10066.8,6402.27 10070,6402.27 10072.5,6403.88" style="fill:none;fill-rule:nonzero;stroke:black;stroke-width:23.99px;"/>
                </g>
                <g transform="matrix(0.0301143,-0.0519212,-0.0519212,-0.0301143,563.355,1143.21)">
                    <path d="M10056.6,6431L10114.4,6431" style="fill:none;fill-rule:nonzero;stroke:black;stroke-width:23.99px;"/>
                </g>
                <g transform="matrix(-0.0579765,0.0155368,0.0155368,0.0579765,534.07,424.132)">
                    <path d="M-9.053,3.75C-6.124,0.821 -1.376,0.821 1.553,3.75" style="fill:none;fill-rule:nonzero;stroke:black;stroke-width:23.99px;"/>
                </g>
                <g transform="matrix(0.0523699,0.0293271,0.0293271,-0.0523699,-183.613,465.35)">
                    <path d="M10106.3,6444L10163.7,6444" style="fill:none;fill-rule:nonzero;stroke:black;stroke-width:23.99px;"/>
                </g>
                <g transform="matrix(0.05994,-0.0031427,-0.0031427,-0.05994,-51.1447,843.305)">
                    <path d="M10159.8,6430.22C10162.3,6428.6 10165.5,6428.6 10168,6430.22" style="fill:none;fill-rule:nonzero;stroke:black;stroke-width:23.99px;"/>
                </g>
                <g transform="matrix(0.0486316,-0.0351803,-0.0351803,-0.0486316,270.698,1096.96)">
                    <path d="M10161.5,6447L10219.5,6447" style="fill:none;fill-rule:nonzero;stroke:black;stroke-width:23.99px;"/>
                </g>
                <g transform="matrix(-0.0592837,-0.00938694,-0.00938694,0.0592837,541.014,423.666)">
                    <path d="M-9.053,3.75C-6.124,0.821 -1.376,0.821 1.553,3.75" style="fill:none;fill-rule:nonzero;stroke:black;stroke-width:23.99px;"/>
                </g>
                <g transform="matrix(0.0356767,0.0482685,0.0482685,-0.0356767,-133.665,160.813)">
                    <path d="M10212.4,6439L10269.6,6439" style="fill:none;fill-rule:nonzero;stroke:black;stroke-width:23.99px;"/>
                </g>
                <g transform="matrix(0.0560368,0.0215071,0.0215071,-0.0560368,-169.241,565.617)">
                    <path d="M10258.1,6414.61C10260.5,6412.99 10263.7,6412.99 10266.2,6414.61" style="fill:none;fill-rule:nonzero;stroke:black;stroke-width:23.99px;"/>
                </g>
                <g transform="matrix(0.0587349,-0.0123652,-0.0123652,-0.0587349,20.4378,930.91)">
                    <path d="M10264.4,6419L10322.6,6419" style="fill:none;fill-rule:nonzero;stroke:black;stroke-width:23.99px;"/>
                </g>
                <g transform="matrix(-0.0503407,-0.0326881,-0.0326881,0.0503407,547.56,426.061)">
                    <path d="M-9.053,3.75C-6.124,0.821 -1.376,0.821 1.553,3.75" style="fill:none;fill-rule:nonzero;stroke:black;stroke-width:23.99px;"/>
                </g>
                <g transform="matrix(0.0125764,0.05869,0.05869,-0.0125764,43.1258,-97.9541)">
                    <path d="M10307.4,6391L10364.6,6391" style="fill:none;fill-rule:nonzero;stroke:black;stroke-width:23.99px;"/>
                </g>
                <g transform="matrix(0.0424422,0.0424422,0.0424422,-0.0424422,-160.255,261.015)">
                    <path d="M10341,6360.05C10343.5,6358.44 10346.7,6358.44 10349.1,6360.05" style="fill:none;fill-rule:nonzero;stroke:black;stroke-width:23.99px;"/>
                </g>
                <g transform="matrix(0.0587349,0.0123652,0.0123652,-0.0587349,-137.361,675.42)">
                    <path d="M10346.4,6351L10404.6,6351" style="fill:none;fill-rule:nonzero;stroke:black;stroke-width:23.99px;"/>
                </g>
                <g transform="matrix(-0.0326881,-0.0503407,-0.0503407,0.0326881,552.528,430.956)">
                    <path d="M-9.053,3.75C-6.124,0.821 -1.376,0.821 1.553,3.75" style="fill:none;fill-rule:nonzero;stroke:black;stroke-width:23.99px;"/>
                </g>
                <g transform="matrix(-0.0125764,0.05869,0.05869,0.0125764,312.782,-256.685)">
                    <path d="M10374.4,6309L10431.6,6309" style="fill:none;fill-rule:nonzero;stroke:black;stroke-width:23.99px;"/>
                </g>
                <g transform="matrix(0.0215103,0.0560356,0.0560356,-0.0215103,-23.4758,-12.5335)">
                    <path d="M10394.3,6277.53C10396.8,6275.92 10400,6275.92 10402.5,6277.53" style="fill:none;fill-rule:nonzero;stroke:black;stroke-width:23.99px;"/>
                </g>
                <g transform="matrix(0.0486316,0.0351803,0.0351803,-0.0486316,-173.544,373.93)">
                    <path d="M10394.5,6256L10452.5,6256" style="fill:none;fill-rule:nonzero;stroke:black;stroke-width:23.99px;"/>
                </g>
                <g transform="matrix(-0.00938694,-0.0592837,-0.0592837,0.00938694,555.157,437.376)">
                    <path d="M-9.053,3.75C-6.124,0.821 -1.376,0.821 1.553,3.75" style="fill:none;fill-rule:nonzero;stroke:black;stroke-width:23.99px;"/>
                </g>
                <g transform="matrix(-0.0351803,0.0486316,0.0486316,0.0351803,619.039,-286.258)">
                    <path d="M10402,6206.5L10460,6206.5" style="fill:none;fill-rule:nonzero;stroke:black;stroke-width:23.99px;"/>
                </g>
                <g transform="matrix(-0.00314251,0.05994,0.05994,0.00314251,215.159,-202.64)">
                    <path d="M10409.4,6180.57C10411.8,6178.96 10415,6178.95 10417.5,6180.57" style="fill:none;fill-rule:nonzero;stroke:black;stroke-width:23.99px;"/>
                </g>
                <g transform="matrix(0.0301143,0.0519212,0.0519212,-0.0301143,-79.6067,86.4978)">
                    <path d="M10399.6,6150L10457.4,6150" style="fill:none;fill-rule:nonzero;stroke:black;stroke-width:23.99px;"/>
                </g>
                <g transform="matrix(0.0155368,-0.0579765,-0.0579765,-0.0155368,554.879,444.329)">
                    <path d="M-9.053,3.75C-6.124,0.821 -1.376,0.821 1.553,3.75" style="fill:none;fill-rule:nonzero;stroke:black;stroke-width:23.99px;"/>
                </g>
                <g transform="matrix(-0.0523699,0.0293271,0.0293271,0.0523699,919.453,-179.254)">
                    <path d="M10386.3,6101L10443.7,6101" style="fill:none;fill-rule:nonzero;stroke:black;stroke-width:23.99px;"/>
                </g>
                <g transform="matrix(-0.027251,0.0534796,0.0534796,0.027251,509.137,-274.608)">
                    <path d="M10384.6,6083.49C10387.1,6081.88 10390.3,6081.88 10392.8,6083.49" style="fill:none;fill-rule:nonzero;stroke:black;stroke-width:23.99px;"/>
                </g>
                <g transform="matrix(0.00617625,0.0597037,0.0597037,-0.00617625,126.006,-134.252)">
                    <path d="M10360.8,6051L10419.2,6051" style="fill:none;fill-rule:nonzero;stroke:black;stroke-width:23.99px;"/>
                </g>
                <g transform="matrix(0.0377744,-0.0466448,-0.0466448,-0.0377744,551.799,450.575)">
                    <path d="M-9.053,3.75C-6.124,0.821 -1.376,0.821 1.553,3.75" style="fill:none;fill-rule:nonzero;stroke:black;stroke-width:23.99px;"/>
                </g>
                <g transform="matrix(-0.0595899,0.00719189,0.00719189,0.0595899,1123.52,18.3498)">
                    <path d="M10328.8,6011.5L10387.2,6011.5" style="fill:none;fill-rule:nonzero;stroke:black;stroke-width:23.99px;"/>
                </g>
                <g transform="matrix(-0.0466458,0.0377737,0.0377737,0.0466458,802.442,-218.869)">
                    <path d="M10322.5,6006.39C10324.9,6004.78 10328.1,6004.78 10330.6,6006.39" style="fill:none;fill-rule:nonzero;stroke:black;stroke-width:23.99px;"/>
                </g>
                <g transform="matrix(-0.0186693,0.0570451,0.0570451,0.0186693,398.508,-246.771)">
                    <path d="M10285.1,5976.5L10342.9,5976.5" style="fill:none;fill-rule:nonzero;stroke:black;stroke-width:23.99px;"/>
                </g>
                <g transform="matrix(0.053481,-0.0272483,-0.0272483,-0.053481,546.46,455.052)">
                    <path d="M-9.053,3.75C-6.124,0.821 -1.376,0.821 1.553,3.75" style="fill:none;fill-rule:nonzero;stroke:black;stroke-width:23.99px;"/>
                </g>
                <g transform="matrix(-0.0570451,-0.0186693,-0.0186693,0.0570451,1241.06,306.696)">
                    <path d="M10239.6,5953L10297.4,5953" style="fill:none;fill-rule:nonzero;stroke:black;stroke-width:23.99px;"/>
                </g>
                <g transform="matrix(-0.0579772,0.0155348,0.0155348,0.0579772,1043.26,-50.6674)">
                    <path d="M10233.9,5962.48C10236.4,5960.86 10239.6,5960.86 10242.1,5962.48" style="fill:none;fill-rule:nonzero;stroke:black;stroke-width:23.99px;"/>
                </g>
                <g transform="matrix(-0.0403239,0.0444597,0.0444597,0.0403239,688.775,-238.147)">
                    <path d="M10185.5,5938.5L10243.5,5938.5" style="fill:none;fill-rule:nonzero;stroke:black;stroke-width:23.99px;"/>
                </g>
                <g transform="matrix(0.0599403,-0.00314072,-0.00314072,-0.0599403,539.723,456.941)">
                    <path d="M-9.053,3.75C-6.124,0.821 -1.376,0.821 1.553,3.75" style="fill:none;fill-rule:nonzero;stroke:black;stroke-width:23.99px;"/>
                </g>
                <g transform="matrix(-0.0449765,-0.0397467,-0.0397467,0.0449765,1230.9,592.585)">
                    <path d="M10134.8,5936L10192.2,5936" style="fill:none;fill-rule:nonzero;stroke:black;stroke-width:23.99px;"/>
                </g>
                <g transform="matrix(-0.0592836,-0.00938794,-0.00938794,0.0592836,1193.44,196.338)">
                    <path d="M10135.3,5957.91C10137.8,5956.3 10141,5956.3 10143.5,5957.91" style="fill:none;fill-rule:nonzero;stroke:black;stroke-width:23.99px;"/>
                </g>
                <g transform="matrix(-0.0550612,0.0238945,0.0238945,0.0550612,949.094,-113.759)">
                    <path d="M10079.6,5944.5L10137.4,5944.5" style="fill:none;fill-rule:nonzero;stroke:black;stroke-width:23.99px;"/>
                </g>
                <g transform="matrix(0.0560356,0.0215106,0.0215106,-0.0560356,532.823,455.978)">
                    <path d="M-9.053,3.75C-6.124,0.821 -1.376,0.821 1.553,3.75" style="fill:none;fill-rule:nonzero;stroke:black;stroke-width:23.99px;"/>
                </g>
                <g transform="matrix(-0.0251529,-0.0544978,-0.0544978,0.0251529,1109.73,852.296)">
                    <path d="M10032.4,5963L10089.6,5963" style="fill:none;fill-rule:nonzero;stroke:black;stroke-width:23.99px;"/>
                </g>
                <g transform="matrix(-0.0503381,-0.0326918,-0.0326918,0.0503381,1232.48,479.09)">
                    <path d="M10042.8,5991.78C10045.3,5990.16 10048.5,5990.16 10051,5991.78" style="fill:none;fill-rule:nonzero;stroke:black;stroke-width:23.99px;"/>
                </g>
                <g transform="matrix(-0.0600223,0,0,0.0600223,1129.94,92.4647)">
                    <path d="M9985,5993L10043,5993" style="fill:none;fill-rule:nonzero;stroke:black;stroke-width:23.99px;"/>
                </g>
                <g transform="matrix(0.0424422,0.0424422,0.0424422,-0.0424422,526.941,452.212)">
                    <path d="M-9.053,3.75C-6.124,0.821 -1.376,0.821 1.553,3.75" style="fill:none;fill-rule:nonzero;stroke:black;stroke-width:23.99px;"/>
                </g>
                <g transform="matrix(0,-0.0600223,-0.0600223,0,888.62,1048.89)">
                    <path d="M9949.5,6029.5L10006.5,6029.5" style="fill:none;fill-rule:nonzero;stroke:black;stroke-width:23.99px;"/>
                </g>
                <g transform="matrix(-0.0381644,0.0463269,0.0463269,0.0381644,482.272,477.553)">
                    <path d="M-381.436,68.281C-335.382,58.187 -287.687,58.187 -241.633,68.281" style="fill:none;fill-rule:nonzero;stroke:black;stroke-width:23.99px;"/>
                </g>
                <g transform="matrix(0.0600223,0,0,0.0600223,-72.1874,127.638)">
                    <path d="M9443,5687L9441,5693L9439,5696L9437,5700L9437,5708L9438,5710L9438,5711L9439,5713" style="fill:none;fill-rule:nonzero;stroke:black;stroke-width:23.99px;"/>
                </g>
                <g transform="matrix(0.0349135,0.0488236,0.0488236,-0.0349135,525.317,515.614)">
                    <path d="M-910.434,18.306C-898.229,18.056 -886.02,18.056 -873.814,18.306" style="fill:none;fill-rule:nonzero;stroke:black;stroke-width:23.99px;"/>
                </g>
                <g transform="matrix(0.0600223,0,0,0.0600223,-72.1874,133.16)">
                    <path d="M9486,5655L9480,5656L9477,5656L9474,5657L9472,5657L9470,5656L9468,5656L9464,5654L9461,5651" style="fill:none;fill-rule:nonzero;stroke:black;stroke-width:23.99px;"/>
                </g>
                <g transform="matrix(0.0561756,-0.0211419,-0.0211419,-0.0561756,520.081,468.334)">
                    <path d="M-381.436,68.281C-335.382,58.187 -287.687,58.187 -241.633,68.281" style="fill:none;fill-rule:nonzero;stroke:black;stroke-width:23.99px;"/>
                </g>
                <g transform="matrix(-0.0596011,-0.00709893,-0.00709893,0.0596011,505.263,468.776)">
                    <path d="M-36.298,14.506C-25.362,5.401 -9.485,5.401 1.451,14.506" style="fill:none;fill-rule:nonzero;stroke:black;stroke-width:23.99px;"/>
                </g>
                <g transform="matrix(0.0418004,0.0430739,0.0430739,-0.0418004,537.328,501.612)">
                    <path d="M-727.31,8.92C-721.363,8.846 -715.416,8.846 -709.469,8.92" style="fill:none;fill-rule:nonzero;stroke:black;stroke-width:23.99px;"/>
                </g>
                <g transform="matrix(-0.00530741,-0.0597869,-0.0597869,0.00530741,508.948,470.657)">
                    <path d="M-36.298,14.506C-25.362,5.401 -9.485,5.401 1.451,14.506" style="fill:none;fill-rule:nonzero;stroke:black;stroke-width:23.99px;"/>
                </g>
                <g transform="matrix(-0.0228127,0.055518,0.055518,0.0228127,495.741,492.483)">
                    <path d="M-381.436,68.281C-335.382,58.187 -287.687,58.187 -241.633,68.281" style="fill:none;fill-rule:nonzero;stroke:black;stroke-width:23.99px;"/>
                </g>
                <g transform="matrix(0.0600223,0,0,0.0600223,-72.1874,151.047)">
                    <path d="M9617,5492L9616,5498L9616,5501L9615,5504L9615,5508L9616,5510L9616,5512L9617,5514L9621,5518" style="fill:none;fill-rule:nonzero;stroke:black;stroke-width:23.99px;"/>
                </g>
                <g transform="matrix(0.0477543,0.0363627,0.0363627,-0.0477543,548.12,516.19)">
                    <path d="M-910.434,18.306C-898.229,18.056 -886.02,18.056 -873.814,18.306" style="fill:none;fill-rule:nonzero;stroke:black;stroke-width:23.99px;"/>
                </g>
                <g transform="matrix(0.0600223,0,0,0.0600223,-72.1874,155.188)">
                    <path d="M9676,5467L9670,5470L9664,5472L9660,5474L9656,5474L9655,5473L9653,5473L9651,5472L9650,5471" style="fill:none;fill-rule:nonzero;stroke:black;stroke-width:23.99px;"/>
                </g>
                <g transform="matrix(0.0474474,-0.036762,-0.036762,-0.0474474,529.232,472.573)">
                    <path d="M-381.436,68.281C-335.382,58.187 -287.687,58.187 -241.633,68.281" style="fill:none;fill-rule:nonzero;stroke:black;stroke-width:23.99px;"/>
                </g>
                <g transform="matrix(-0.0590454,0.0107857,0.0107857,0.0590454,515.172,477.332)">
                    <path d="M-36.298,14.506C-25.362,5.401 -9.485,5.401 1.451,14.506" style="fill:none;fill-rule:nonzero;stroke:black;stroke-width:23.99px;"/>
                </g>
                <g transform="matrix(0.0526403,0.0288387,0.0288387,-0.0526403,555.47,499.27)">
                    <path d="M-727.31,8.92C-721.363,8.846 -715.416,8.846 -709.469,8.92" style="fill:none;fill-rule:nonzero;stroke:black;stroke-width:23.99px;"/>
                </g>
                <g transform="matrix(-0.0226951,-0.0555662,-0.0555662,0.0226951,519.232,478.067)">
                    <path d="M-36.298,14.506C-25.362,5.401 -9.485,5.401 1.451,14.506" style="fill:none;fill-rule:nonzero;stroke:black;stroke-width:23.99px;"/>
                </g>
                <g transform="matrix(-0.00543341,0.0597757,0.0597757,0.00543341,513.071,502.82)">
                    <path d="M-381.436,68.281C-335.382,58.187 -287.687,58.187 -241.633,68.281" style="fill:none;fill-rule:nonzero;stroke:black;stroke-width:23.99px;"/>
                </g>
                <g transform="matrix(0.0600223,0,0,0.0600223,-72.1874,167.072)">
                    <path d="M9840,5360L9841,5366L9842,5369L9842,5372L9843,5374L9843,5376L9844,5378L9846,5379L9847,5380L9848,5382L9850,5383L9851,5383" style="fill:none;fill-rule:nonzero;stroke:black;stroke-width:23.99px;"/>
                </g>
                <g transform="matrix(0.0563509,0.0206701,0.0206701,-0.0563509,570.079,510.019)">
                    <path d="M-910.434,18.306C-898.229,18.056 -886.02,18.056 -873.814,18.306" style="fill:none;fill-rule:nonzero;stroke:black;stroke-width:23.99px;"/>
                </g>
                <g transform="matrix(0.0600223,0,0,0.0600223,-72.1874,169.413)">
                    <path d="M9909,5346L9905,5350L9902,5352L9900,5354L9898,5355L9897,5356L9895,5357L9893,5357L9891,5358L9889,5358L9887,5357L9886,5357" style="fill:none;fill-rule:nonzero;stroke:black;stroke-width:23.99px;"/>
                </g>
                <g transform="matrix(0.0345024,-0.0491149,-0.0491149,-0.0345024,539.166,473.916)">
                    <path d="M-381.436,68.281C-335.382,58.187 -287.687,58.187 -241.633,68.281" style="fill:none;fill-rule:nonzero;stroke:black;stroke-width:23.99px;"/>
                </g>
                <g transform="matrix(-0.0532424,0.0277117,0.0277117,0.0532424,527.129,482.584)">
                    <path d="M-36.298,14.506C-25.362,5.401 -9.485,5.401 1.451,14.506" style="fill:none;fill-rule:nonzero;stroke:black;stroke-width:23.99px;"/>
                </g>
                <g transform="matrix(0.0588024,0.0120398,0.0120398,-0.0588024,572.116,491.684)">
                    <path d="M-727.31,8.92C-721.363,8.846 -715.416,8.846 -709.469,8.92" style="fill:none;fill-rule:nonzero;stroke:black;stroke-width:23.99px;"/>
                </g>
                <g transform="matrix(-0.0380666,-0.046407,-0.046407,0.0380666,531.229,482.097)">
                    <path d="M-36.298,14.506C-25.362,5.401 -9.485,5.401 1.451,14.506" style="fill:none;fill-rule:nonzero;stroke:black;stroke-width:23.99px;"/>
                </g>
                <g transform="matrix(0.0124229,0.0587226,0.0587226,-0.0124229,532.667,507.545)">
                    <path d="M-381.436,68.281C-335.382,58.187 -287.687,58.187 -241.633,68.281" style="fill:none;fill-rule:nonzero;stroke:black;stroke-width:23.99px;"/>
                </g>
                <g transform="matrix(0.0600223,0,0,0.0600223,-72.1874,174.395)">
                    <path d="M10094,5301L10096,5307L10098,5309L10099,5312L10100,5314L10104,5318L10106,5319L10108,5319L10109,5320L10111,5320" style="fill:none;fill-rule:nonzero;stroke:black;stroke-width:23.99px;"/>
                </g>
                <g transform="matrix(0.0599399,0.00314026,0.00314026,-0.0599399,589.244,497.648)">
                    <path d="M-910.434,18.306C-898.229,18.056 -886.02,18.056 -873.814,18.306" style="fill:none;fill-rule:nonzero;stroke:black;stroke-width:23.99px;"/>
                </g>
                <g transform="matrix(0.0600223,0,0,0.0600223,-72.1874,174.695)">
                    <path d="M10167,5299L10164,5305L10162,5308L10160,5310L10159,5312L10158,5313L10156,5314L10155,5315L10151,5317L10148,5317" style="fill:none;fill-rule:nonzero;stroke:black;stroke-width:23.99px;"/>
                </g>
                <g transform="matrix(0.0184913,-0.057103,-0.057103,-0.0184913,549.035,472.251)">
                    <path d="M-381.436,68.281C-335.382,58.187 -287.687,58.187 -241.633,68.281" style="fill:none;fill-rule:nonzero;stroke:black;stroke-width:23.99px;"/>
                </g>
                <g transform="matrix(-0.0427077,0.042175,0.042175,0.0427077,540.099,484.068)">
                    <path d="M-36.298,14.506C-25.362,5.401 -9.485,5.401 1.451,14.506" style="fill:none;fill-rule:nonzero;stroke:black;stroke-width:23.99px;"/>
                </g>
                <g transform="matrix(0.0597386,-0.00582882,-0.00582882,-0.0597386,585.785,479.529)">
                    <path d="M-727.31,8.92C-721.363,8.846 -715.416,8.846 -709.469,8.92" style="fill:none;fill-rule:nonzero;stroke:black;stroke-width:23.99px;"/>
                </g>
                <g transform="matrix(-0.0500549,-0.0331238,-0.0331238,0.0500549,543.911,482.423)">
                    <path d="M-36.298,14.506C-25.362,5.401 -9.485,5.401 1.451,14.506" style="fill:none;fill-rule:nonzero;stroke:black;stroke-width:23.99px;"/>
                </g>
                <g transform="matrix(0.0291807,0.0524515,0.0524515,-0.0291807,552.74,506.318)">
                    <path d="M-381.436,68.281C-335.382,58.187 -287.687,58.187 -241.633,68.281" style="fill:none;fill-rule:nonzero;stroke:black;stroke-width:23.99px;"/>
                </g>
                <g transform="matrix(0.0600223,0,0,0.0600223,-72.1874,172.294)">
                    <path d="M10354,5321L10358,5326L10364,5332L10366,5333L10367,5334L10369,5334L10371,5335L10376,5335" style="fill:none;fill-rule:nonzero;stroke:black;stroke-width:23.99px;"/>
                </g>
                <g transform="matrix(-0.0565927,0.0199988,-0.0199988,-0.0565927,556.94,492.077)">
                    <path d="M101.009,28.78C-151.652,0 -404.592,80.365 -594.309,249.698C-784.025,419.031 -892.5,661.251 -892.5,915.546" style="fill:none;fill-rule:nonzero;stroke:black;stroke-width:23.99px;"/>
                </g>
                <g transform="matrix(0.0159589,0.0578619,0.0578619,-0.0159589,-43.9451,-45.0907)">
                    <path d="M9489.36,6834.47C9567.38,6803.18 9654.46,6803.18 9732.47,6834.47" style="fill:none;fill-rule:nonzero;stroke:black;stroke-width:23.99px;"/>
                </g>
                <g transform="matrix(-0.00321153,-0.0599364,-0.0599364,0.00321153,1042.38,838.475)">
                    <path d="M7859.16,8579L11129.8,8579" style="fill:none;fill-rule:nonzero;stroke:black;stroke-width:23.99px;"/>
                </g>
                <g transform="matrix(0.00262051,-0.0599649,-0.0599649,-0.00262051,507.713,409.126)">
                    <path d="M-36.298,14.506C-25.362,5.401 -9.485,5.401 1.451,14.506" style="fill:none;fill-rule:nonzero;stroke:black;stroke-width:23.99px;"/>
                </g>
                <g transform="matrix(-0.0398266,0.0449057,0.0449057,0.0398266,477.356,443.555)">
                    <path d="M-727.31,8.92C-721.363,8.846 -715.416,8.846 -709.469,8.92" style="fill:none;fill-rule:nonzero;stroke:black;stroke-width:23.99px;"/>
                </g>
                <g transform="matrix(0.0592227,-0.00976495,-0.00976495,-0.0592227,506.112,412.885)">
                    <path d="M-36.298,14.506C-25.362,5.401 -9.485,5.401 1.451,14.506" style="fill:none;fill-rule:nonzero;stroke:black;stroke-width:23.99px;"/>
                </g>
                <g transform="matrix(-0.0570673,-0.0186009,-0.0186009,0.0570673,483.277,401.388)">
                    <path d="M-381.436,68.281C-335.382,58.187 -287.687,58.187 -241.633,68.281" style="fill:none;fill-rule:nonzero;stroke:black;stroke-width:23.99px;"/>
                </g>
                <g transform="matrix(0.0600223,0,0,0.0600223,-72.1874,8.0733)">
                    <path d="M9463,6694L9456,6693L9444,6693L9443,6694L9441,6695L9437,6699" style="fill:none;fill-rule:nonzero;stroke:black;stroke-width:23.99px;"/>
                </g>
                <g transform="matrix(-0.032693,0.0503373,0.0503373,0.032693,463.626,455.4)">
                    <path d="M-910.434,18.306C-898.229,18.056 -886.02,18.056 -873.814,18.306" style="fill:none;fill-rule:nonzero;stroke:black;stroke-width:23.99px;"/>
                </g>
                <g transform="matrix(0.0600223,0,0,0.0600223,-72.1874,13.6554)">
                    <path d="M9423,6662L9420,6657L9418,6654L9417,6651L9415,6647L9415,6642L9416,6640L9416,6638L9417,6637" style="fill:none;fill-rule:nonzero;stroke:black;stroke-width:23.99px;"/>
                </g>
                <g transform="matrix(0.0402041,0.0445685,0.0445685,-0.0402041,505.687,433.283)">
                    <path d="M-381.436,68.281C-335.382,58.187 -287.687,58.187 -241.633,68.281" style="fill:none;fill-rule:nonzero;stroke:black;stroke-width:23.99px;"/>
                </g>
                <g transform="matrix(-0.0151669,-0.0580748,-0.0580748,0.0151669,499.89,419.601)">
                    <path d="M-36.298,14.506C-25.362,5.401 -9.485,5.401 1.451,14.506" style="fill:none;fill-rule:nonzero;stroke:black;stroke-width:23.99px;"/>
                </g>
                <g transform="matrix(-0.024825,0.0546483,0.0546483,0.024825,481.047,461.466)">
                    <path d="M-727.31,8.92C-721.363,8.846 -715.416,8.846 -709.469,8.92" style="fill:none;fill-rule:nonzero;stroke:black;stroke-width:23.99px;"/>
                </g>
                <g transform="matrix(0.0537154,-0.0267837,-0.0267837,-0.0537154,499.446,423.728)">
                    <path d="M-36.298,14.506C-25.362,5.401 -9.485,5.401 1.451,14.506" style="fill:none;fill-rule:nonzero;stroke:black;stroke-width:23.99px;"/>
                </g>
                <g transform="matrix(-0.060015,-0.000952277,-0.000952277,0.060015,474.325,419.43)">
                    <path d="M-381.436,68.281C-335.382,58.187 -287.687,58.187 -241.633,68.281" style="fill:none;fill-rule:nonzero;stroke:black;stroke-width:23.99px;"/>
                </g>
                <g transform="matrix(0.0600223,0,0,0.0600223,-72.1874,36.4639)">
                    <path d="M9345,6453L9339,6455L9336,6455L9333,6456L9327,6459L9325,6461L9324,6463L9323,6464L9322,6466" style="fill:none;fill-rule:nonzero;stroke:black;stroke-width:23.99px;"/>
                </g>
                <g transform="matrix(-0.0164018,0.0577377,0.0577377,0.0164018,471.421,476.838)">
                    <path d="M-910.434,18.306C-898.229,18.056 -886.02,18.056 -873.814,18.306" style="fill:none;fill-rule:nonzero;stroke:black;stroke-width:23.99px;"/>
                </g>
                <g transform="matrix(0.0600223,0,0,0.0600223,-72.1874,42.8262)">
                    <path d="M9325,6418L9320,6414L9318,6411L9315,6408L9312,6402L9312,6395" style="fill:none;fill-rule:nonzero;stroke:black;stroke-width:23.99px;"/>
                </g>
                <g transform="matrix(0.0515551,0.0307366,0.0307366,-0.0515551,505.096,443.272)">
                    <path d="M-381.436,68.281C-335.382,58.187 -287.687,58.187 -241.633,68.281" style="fill:none;fill-rule:nonzero;stroke:black;stroke-width:23.99px;"/>
                </g>
                <g transform="matrix(-0.0316118,-0.0510231,-0.0510231,0.0316118,495.56,431.958)">
                    <path d="M-36.298,14.506C-25.362,5.401 -9.485,5.401 1.451,14.506" style="fill:none;fill-rule:nonzero;stroke:black;stroke-width:23.99px;"/>
                </g>
                <g transform="matrix(-0.00761292,0.0595375,0.0595375,0.00761292,489.855,477.498)">
                    <path d="M-727.31,8.92C-721.363,8.846 -715.416,8.846 -709.469,8.92" style="fill:none;fill-rule:nonzero;stroke:black;stroke-width:23.99px;"/>
                </g>
                <g transform="matrix(0.0434332,-0.0414273,-0.0414273,-0.0434332,496.33,435.995)">
                    <path d="M-36.298,14.506C-25.362,5.401 -9.485,5.401 1.451,14.506" style="fill:none;fill-rule:nonzero;stroke:black;stroke-width:23.99px;"/>
                </g>
                <g transform="matrix(-0.0576285,0.0167809,0.0167809,0.0576285,471.023,439.324)">
                    <path d="M-381.436,68.281C-335.382,58.187 -287.687,58.187 -241.633,68.281" style="fill:none;fill-rule:nonzero;stroke:black;stroke-width:23.99px;"/>
                </g>
                <g transform="matrix(0.0600223,0,0,0.0600223,-72.1874,67.6755)">
                    <path d="M9301,6190L9295,6194L9293,6195L9290,6197L9289,6198L9287,6199L9286,6201L9285,6202L9284,6204L9284,6206L9283,6208L9283,6209" style="fill:none;fill-rule:nonzero;stroke:black;stroke-width:23.99px;"/>
                </g>
                <g transform="matrix(0.00134657,0.0600074,0.0600074,-0.00134657,485.187,495.024)">
                    <path d="M-910.434,18.306C-898.229,18.056 -886.02,18.056 -873.814,18.306" style="fill:none;fill-rule:nonzero;stroke:black;stroke-width:23.99px;"/>
                </g>
                <g transform="matrix(0.0600223,0,0,0.0600223,-72.1874,76.3187)">
                    <path d="M9438,6153L9403,6150L9369,6144L9335,6134L9303,6120L9297,6117L9294,6116L9292,6114L9288,6112L9287,6110L9286,6109L9285,6107L9285,6105L9284,6104L9284,6102" style="fill:none;fill-rule:nonzero;stroke:black;stroke-width:23.99px;"/>
                </g>
                <g transform="matrix(-0.0452477,-0.0394372,-0.0394372,0.0452477,495.011,444.978)">
                    <path d="M-36.298,14.506C-25.362,5.401 -9.485,5.401 1.451,14.506" style="fill:none;fill-rule:nonzero;stroke:black;stroke-width:23.99px;"/>
                </g>
                <g transform="matrix(0.0102759,0.0591365,0.0591365,-0.0102759,502.998,490.222)">
                    <path d="M-727.31,8.92C-721.363,8.846 -715.416,8.846 -709.469,8.92" style="fill:none;fill-rule:nonzero;stroke:black;stroke-width:23.99px;"/>
                </g>
                <g transform="matrix(0.0292916,-0.0523901,-0.0523901,-0.0292916,496.972,448.663)">
                    <path d="M-36.298,14.506C-25.362,5.401 -9.485,5.401 1.451,14.506" style="fill:none;fill-rule:nonzero;stroke:black;stroke-width:23.99px;"/>
                </g>
                <g transform="matrix(-0.0501244,0.0330181,0.0330181,0.0501244,473.736,459.292)">
                    <path d="M-381.436,68.281C-335.382,58.187 -287.687,58.187 -241.633,68.281" style="fill:none;fill-rule:nonzero;stroke:black;stroke-width:23.99px;"/>
                </g>
                <g transform="matrix(0.0600223,0,0,0.0600223,-72.1874,99.0072)">
                    <path d="M9335,5927L9326,5936L9324,5940L9323,5941L9323,5950" style="fill:none;fill-rule:nonzero;stroke:black;stroke-width:23.99px;"/>
                </g>
                <g transform="matrix(0.0189757,0.0569441,0.0569441,-0.0189757,503.704,508.345)">
                    <path d="M-910.434,18.306C-898.229,18.056 -886.02,18.056 -873.814,18.306" style="fill:none;fill-rule:nonzero;stroke:black;stroke-width:23.99px;"/>
                </g>
                <g transform="matrix(0.0600223,0,0,0.0600223,-72.1874,105.49)">
                    <path d="M9498,5880L9463,5888L9428,5892L9393,5892L9358,5889L9352,5888L9349,5887L9346,5887L9340,5884L9336,5880L9336,5879L9335,5877" style="fill:none;fill-rule:nonzero;stroke:black;stroke-width:23.99px;"/>
                </g>
                <g transform="matrix(-0.0548624,-0.0243473,-0.0243473,0.0548624,498.364,457.668)">
                    <path d="M-36.298,14.506C-25.362,5.401 -9.485,5.401 1.451,14.506" style="fill:none;fill-rule:nonzero;stroke:black;stroke-width:23.99px;"/>
                </g>
                <g transform="matrix(0.0272509,0.0534796,0.0534796,-0.0272509,519.308,498.505)">
                    <path d="M-727.31,8.92C-721.363,8.846 -715.416,8.846 -709.469,8.92" style="fill:none;fill-rule:nonzero;stroke:black;stroke-width:23.99px;"/>
                </g>
                <g transform="matrix(0.0125469,-0.0586963,-0.0586963,-0.0125469,501.296,460.536)">
                    <path d="M-36.298,14.506C-25.362,5.401 -9.485,5.401 1.451,14.506" style="fill:none;fill-rule:nonzero;stroke:black;stroke-width:23.99px;"/>
                </g>
            </g>
        </g>
    </g>
</svg>
