<?xml version="1.0" encoding="UTF-8" standalone="no"?>
<!DOCTYPE svg PUBLIC "-//W3C//DTD SVG 1.1//EN" "http://www.w3.org/Graphics/SVG/1.1/DTD/svg11.dtd">
<svg width="100%" height="100%" viewBox="0 0 107 304" version="1.1" xmlns="http://www.w3.org/2000/svg" xmlns:xlink="http://www.w3.org/1999/xlink" xml:space="preserve" xmlns:serif="http://www.serif.com/" style="fill-rule:evenodd;clip-rule:evenodd;stroke-linecap:round;stroke-linejoin:round;stroke-miterlimit:10;">
    <g id="Artboard1" transform="matrix(0.612448,0,0,0.93404,-330.708,-192.707)">
        <rect x="539.977" y="206.315" width="174.382" height="324.933" style="fill:none;"/>
        <clipPath id="_clip1">
            <rect x="539.977" y="206.315" width="174.382" height="324.933"/>
        </clipPath>
        <g clip-path="url(#_clip1)">
            <g id="Visible" transform="matrix(1.63279,0,0,1.07062,-340.097,-14.232)">
                <g transform="matrix(0.0599928,0,0,0.06,-22.9992,190.6)">
                    <path d="M10213,5298L10209,5304L10206,5309L10205,5310L10203,5311L10202,5313L10200,5314L10198,5314L10197,5315L10193,5315" style="fill:none;fill-rule:nonzero;stroke:black;stroke-width:24px;"/>
                </g>
                <g transform="matrix(0.0209566,-0.0562202,-0.0562134,-0.0209592,679.099,1192.94)">
                    <path d="M10168.4,5380.09C10214.5,5369.99 10262.2,5369.99 10308.3,5380.09" style="fill:none;fill-rule:nonzero;stroke:black;stroke-width:24px;"/>
                </g>
                <g transform="matrix(-0.0444842,0.0402576,0.0402528,0.0444896,830.924,-156.656)">
                    <path d="M10257.4,5458.31C10268.4,5449.21 10284.2,5449.21 10295.2,5458.31" style="fill:none;fill-rule:nonzero;stroke:black;stroke-width:24px;"/>
                </g>
                <g transform="matrix(0.0599928,0,0,0.06,-22.9992,189.94)">
                    <path d="M10156,5322L10154,5322L10153,5321L10151,5321L10149,5320L10148,5318L10146,5317L10145,5315L10145,5314L10142,5308L10140,5302" style="fill:none;fill-rule:nonzero;stroke:black;stroke-width:24px;"/>
                </g>
                <g transform="matrix(0.0597167,0.00574887,0.00574818,-0.059724,-50.6578,767.422)">
                    <path d="M10156.7,5300.29C10168.9,5300.04 10181.1,5300.04 10193.3,5300.29" style="fill:none;fill-rule:nonzero;stroke:black;stroke-width:24px;"/>
                </g>
                <g transform="matrix(-0.0339514,-0.049467,-0.0494611,0.0339555,605.014,395.299)">
                    <path d="M-743.941,26.394C-726.339,25.746 -708.719,25.746 -691.118,26.394" style="fill:none;fill-rule:nonzero;stroke:black;stroke-width:24px;"/>
                </g>
                <g transform="matrix(-0.0164634,-0.0576967,-0.0576897,0.0164653,622.691,402.645)">
                    <path d="M-727.31,8.92C-721.363,8.846 -715.416,8.846 -709.469,8.92" style="fill:none;fill-rule:nonzero;stroke:black;stroke-width:24px;"/>
                </g>
                <g transform="matrix(0.0012739,-0.0599864,-0.0599792,-0.00127405,637.098,413.903)">
                    <path d="M-727.31,8.92C-721.363,8.846 -715.416,8.846 -709.469,8.92" style="fill:none;fill-rule:nonzero;stroke:black;stroke-width:24px;"/>
                </g>
                <g transform="matrix(0.0188922,-0.0569474,-0.0569405,-0.0188945,647.545,428.903)">
                    <path d="M-727.31,8.92C-721.363,8.846 -715.416,8.846 -709.469,8.92" style="fill:none;fill-rule:nonzero;stroke:black;stroke-width:24px;"/>
                </g>
                <g transform="matrix(0.0348373,-0.0488474,-0.0488415,-0.0348415,653.109,446.321)">
                    <path d="M-727.31,8.92C-721.363,8.846 -715.416,8.846 -709.469,8.92" style="fill:none;fill-rule:nonzero;stroke:black;stroke-width:24px;"/>
                </g>
                <g transform="matrix(0.0476867,-0.0364061,-0.0364017,-0.0476925,653.291,464.606)">
                    <path d="M-727.31,8.92C-721.363,8.846 -715.416,8.846 -709.469,8.92" style="fill:none;fill-rule:nonzero;stroke:black;stroke-width:24px;"/>
                </g>
                <g transform="matrix(0.0562985,-0.0207297,-0.0207272,-0.0563053,648.077,482.132)">
                    <path d="M-727.31,8.92C-721.363,8.846 -715.416,8.846 -709.469,8.92" style="fill:none;fill-rule:nonzero;stroke:black;stroke-width:24px;"/>
                </g>
                <g transform="matrix(0.0599065,-0.003217,-0.00321661,-0.0599138,637.932,497.338)">
                    <path d="M-727.31,8.92C-721.363,8.846 -715.416,8.846 -709.469,8.92" style="fill:none;fill-rule:nonzero;stroke:black;stroke-width:24px;"/>
                </g>
                <g transform="matrix(0.0599928,0,0,0.06,-22.9992,129.88)">
                    <path d="M11056,5800L11060,5805L11063,5810L11065,5814L11065,5815L11066,5817L11066,5821L11064,5825" style="fill:none;fill-rule:nonzero;stroke:black;stroke-width:24px;"/>
                </g>
                <g transform="matrix(-0.0446713,-0.0400499,-0.040045,0.0446767,1364.05,653.38)">
                    <path d="M10935.5,5872.98C10981.5,5862.88 11029.2,5862.88 11075.3,5872.98" style="fill:none;fill-rule:nonzero;stroke:black;stroke-width:24px;"/>
                </g>
                <g transform="matrix(0.0212185,0.0561219,0.0561151,-0.021221,68.2191,-17.0271)">
                    <path d="M10925.9,5938.66C10936.9,5929.55 10952.7,5929.55 10963.7,5938.66" style="fill:none;fill-rule:nonzero;stroke:black;stroke-width:24px;"/>
                </g>
                <g transform="matrix(-0.0578297,0.0159663,0.0159644,0.0578366,1165.16,-28.1038)">
                    <path d="M10850.4,5790.11C10861.3,5781.01 10877.2,5781.01 10888.1,5790.11" style="fill:none;fill-rule:nonzero;stroke:black;stroke-width:24px;"/>
                </g>
                <g transform="matrix(0.0599928,0,0,0.06,-22.9992,134.44)">
                    <path d="M10886,5760L10919,5773L10953,5782L10988,5788L11023,5789L11037,5789L11039,5788L11041,5788L11043,5787L11047,5783L11048,5781" style="fill:none;fill-rule:nonzero;stroke:black;stroke-width:24px;"/>
                </g>
                <g transform="matrix(0.0271685,-0.0534948,-0.0534883,-0.0271718,649.306,1228.93)">
                    <path d="M11037.8,5784.4C11050,5784.15 11062.2,5784.15 11074.4,5784.4" style="fill:none;fill-rule:nonzero;stroke:black;stroke-width:24px;"/>
                </g>
                <g transform="matrix(0.0599928,0,0,0.06,-22.9992,38.68)">
                    <path d="M10903,6584L10936,6573L10970,6565L11005,6561L11047,6561L11053,6562L11055,6562L11057,6563L11058,6563L11060,6564L11064,6568L11065,6570" style="fill:none;fill-rule:nonzero;stroke:black;stroke-width:24px;"/>
                </g>
                <g transform="matrix(0.0571014,0.0184023,0.0184001,-0.0571083,-112.308,608.079)">
                    <path d="M10865.9,6566.79C10876.8,6557.69 10892.7,6557.69 10903.6,6566.79" style="fill:none;fill-rule:nonzero;stroke:black;stroke-width:24px;"/>
                </g>
                <g transform="matrix(-0.0235762,0.0551727,0.0551661,0.023579,538.691,-312.82)">
                    <path d="M10933.9,6413.28C10944.9,6404.18 10960.8,6404.18 10971.7,6413.28" style="fill:none;fill-rule:nonzero;stroke:black;stroke-width:24px;"/>
                </g>
                <g transform="matrix(0.0463276,-0.0381213,-0.0381167,-0.0463332,374.304,1158.94)">
                    <path d="M10948.2,6473.22C10994.3,6463.12 11042,6463.12 11088,6473.22" style="fill:none;fill-rule:nonzero;stroke:black;stroke-width:24px;"/>
                </g>
                <g transform="matrix(0.0599928,0,0,0.06,-22.9992,43.84)">
                    <path d="M11080,6517L11081,6519L11081,6527L11080,6529L11079,6530L11078,6532L11075,6537L11071,6542" style="fill:none;fill-rule:nonzero;stroke:black;stroke-width:24px;"/>
                </g>
                <g transform="matrix(-0.0248776,-0.0545981,-0.0545915,0.0248806,1274.77,875.224)">
                    <path d="M11054.2,6558.53C11066.4,6558.28 11078.6,6558.28 11090.8,6558.53" style="fill:none;fill-rule:nonzero;stroke:black;stroke-width:24px;"/>
                </g>
                <g transform="matrix(0.0599928,0,0,0.06,-22.9992,156.1)">
                    <path d="M10914,5581L10918,5593L10918,5601L10917,5603L10916,5604L10915,5606L10914,5607" style="fill:none;fill-rule:nonzero;stroke:black;stroke-width:24px;"/>
                </g>
                <g transform="matrix(-0.0308843,-0.0514386,-0.0514324,0.030888,1257.15,871.851)">
                    <path d="M10809,5667.69C10855.1,5657.59 10902.8,5657.59 10948.8,5667.69" style="fill:none;fill-rule:nonzero;stroke:black;stroke-width:24px;"/>
                </g>
                <g transform="matrix(0.00373255,0.0598838,0.0598765,-0.003733,242.618,-144.876)">
                    <path d="M10818.1,5750.28C10829,5741.18 10844.9,5741.18 10855.8,5750.28" style="fill:none;fill-rule:nonzero;stroke:black;stroke-width:24px;"/>
                </g>
                <g transform="matrix(-0.059966,-0.00179199,-0.00179178,0.0599732,1273.3,171.439)">
                    <path d="M10703.2,5631.93C10714.1,5622.83 10730,5622.83 10740.9,5631.93" style="fill:none;fill-rule:nonzero;stroke:black;stroke-width:24px;"/>
                </g>
                <g transform="matrix(0.0524073,0.0292029,0.0291993,-0.0524137,-104.222,469.531)">
                    <path d="M10732.4,5587.9C10778.4,5577.8 10826.1,5577.8 10872.2,5587.9" style="fill:none;fill-rule:nonzero;stroke:black;stroke-width:24px;"/>
                </g>
                <g transform="matrix(0.0599928,0,0,0.06,-22.9992,161.14)">
                    <path d="M10889,5550L10887,5551L10886,5552L10884,5553L10882,5553L10880,5554L10877,5554L10875,5553L10869,5552L10863,5550" style="fill:none;fill-rule:nonzero;stroke:black;stroke-width:24px;"/>
                </g>
                <g transform="matrix(0.0417286,-0.0431081,-0.0431029,-0.0417336,416.099,1195.62)">
                    <path d="M10883.3,5567.85C10895.5,5567.6 10907.7,5567.6 10919.9,5567.85" style="fill:none;fill-rule:nonzero;stroke:black;stroke-width:24px;"/>
                </g>
                <g transform="matrix(0.0599928,0,0,0.06,-22.9992,179.56)">
                    <path d="M10481,5318L10484,5353L10484,5388L10480,5423L10473,5457L10469,5469L10467,5473L10466,5474L10465,5476L10463,5477L10462,5478L10460,5479L10458,5479" style="fill:none;fill-rule:nonzero;stroke:black;stroke-width:24px;"/>
                </g>
                <g transform="matrix(-0.0306471,0.0515803,0.0515741,0.0306508,644.347,-211.916)">
                    <path d="M10470.4,5497.04C10481.4,5487.94 10497.3,5487.94 10508.2,5497.04" style="fill:none;fill-rule:nonzero;stroke:black;stroke-width:24px;"/>
                </g>
                <g transform="matrix(-0.0485386,-0.0352624,-0.0352582,0.0485444,1289.91,598.593)">
                    <path d="M10303.7,5461.69C10314.6,5452.59 10330.5,5452.59 10341.4,5461.69" style="fill:none;fill-rule:nonzero;stroke:black;stroke-width:24px;"/>
                </g>
                <g transform="matrix(0.0268525,0.0536542,0.0536477,-0.0268557,31.6023,92.4504)">
                    <path d="M10299.4,5387.75C10345.5,5377.65 10393.1,5377.65 10439.2,5387.75" style="fill:none;fill-rule:nonzero;stroke:black;stroke-width:24px;"/>
                </g>
                <g transform="matrix(0.0599928,0,0,0.06,-22.9992,189.28)">
                    <path d="M10422,5325L10417,5325L10411,5322L10404,5315L10400,5310" style="fill:none;fill-rule:nonzero;stroke:black;stroke-width:24px;"/>
                </g>
                <g transform="matrix(0.0587583,-0.0121088,-0.0121074,-0.0587654,54.2339,947.242)">
                    <path d="M10422.3,5314.55C10434.5,5314.3 10446.7,5314.3 10458.8,5314.55" style="fill:none;fill-rule:nonzero;stroke:black;stroke-width:24px;"/>
                </g>
                <g transform="matrix(0.0599928,0,0,0.06,-22.9992,99.52)">
                    <path d="M11128,6055L11138,6063L11139,6064L11140,6066L11141,6067L11143,6071L11143,6076" style="fill:none;fill-rule:nonzero;stroke:black;stroke-width:24px;"/>
                </g>
                <g transform="matrix(-0.0544895,-0.0251034,-0.0251004,0.054496,1397.01,406.015)">
                    <path d="M10995,6106.17C11041.1,6096.08 11088.8,6096.08 11134.8,6106.17" style="fill:none;fill-rule:nonzero;stroke:black;stroke-width:24px;"/>
                </g>
                <g transform="matrix(0.0368116,0.047377,0.0473713,-0.036816,-59.5668,164.165)">
                    <path d="M10970.6,6149.78C10981.6,6140.67 10997.4,6140.67 11008.4,6149.78" style="fill:none;fill-rule:nonzero;stroke:black;stroke-width:24px;"/>
                </g>
                <g transform="matrix(-0.050554,0.0323059,0.032302,0.0505601,995.49,-188.16)">
                    <path d="M10942.9,5983.25C10953.8,5974.14 10969.7,5974.14 10980.6,5983.25" style="fill:none;fill-rule:nonzero;stroke:black;stroke-width:24px;"/>
                </g>
                <g transform="matrix(0.0599928,0,0,0.06,-22.9992,107.02)">
                    <path d="M10976,6015L11011,6018L11047,6016L11081,6011L11115,6003L11127,5999L11131,5997L11132,5996L11133,5994L11135,5993L11136,5991L11136,5989L11137,5988" style="fill:none;fill-rule:nonzero;stroke:black;stroke-width:24px;"/>
                </g>
                <g transform="matrix(0.0101973,-0.0591269,-0.0591198,-0.0101985,888.61,1185.4)">
                    <path d="M11121.6,6036.83C11133.7,6036.58 11145.9,6036.58 11158.1,6036.83" style="fill:none;fill-rule:nonzero;stroke:black;stroke-width:24px;"/>
                </g>
                <g transform="matrix(0.0599928,0,0,0.06,-22.9992,66.76)">
                    <path d="M10984,6322L11019,6321L11054,6324L11089,6330L11122,6340L11128,6343L11134,6345L11136,6346L11137,6347L11139,6348L11140,6349L11142,6353L11143,6354L11143,6356" style="fill:none;fill-rule:nonzero;stroke:black;stroke-width:24px;"/>
                </g>
                <g transform="matrix(0.0491404,0.0344186,0.0344144,-0.0491463,-123.014,380.738)">
                    <path d="M10950.3,6365.82C10961.2,6356.72 10977.1,6356.72 10988,6365.82" style="fill:none;fill-rule:nonzero;stroke:black;stroke-width:24px;"/>
                </g>
                <g transform="matrix(-0.0387877,0.0457728,0.0457673,0.0387924,779.089,-287.951)">
                    <path d="M10972.3,6197.16C10983.3,6188.06 10999.1,6188.06 11010.1,6197.16" style="fill:none;fill-rule:nonzero;stroke:black;stroke-width:24px;"/>
                </g>
                <g transform="matrix(0.0555039,-0.0227722,-0.0227695,-0.0555106,168.705,1051.41)">
                    <path d="M10997.6,6237.43C11043.7,6227.34 11091.4,6227.34 11137.4,6237.43" style="fill:none;fill-rule:nonzero;stroke:black;stroke-width:24px;"/>
                </g>
                <g transform="matrix(0.0599928,0,0,0.06,-22.9992,74.5)">
                    <path d="M11148,6264L11148,6267L11147,6269L11147,6271L11146,6273L11142,6277L11137,6281L11132,6284" style="fill:none;fill-rule:nonzero;stroke:black;stroke-width:24px;"/>
                </g>
                <g transform="matrix(-0.00768438,-0.0595058,-0.0594986,0.00768531,1106.3,1063.99)">
                    <path d="M11127.2,6302.78C11139.4,6302.53 11151.6,6302.53 11163.7,6302.78" style="fill:none;fill-rule:nonzero;stroke:black;stroke-width:24px;"/>
                </g>
                <g transform="matrix(0.0599928,0,0,0.06,-22.9992,176.08)">
                    <path d="M10713,5415L10713,5431L10711,5435L10710,5436L10709,5438L10708,5439L10706,5440" style="fill:none;fill-rule:nonzero;stroke:black;stroke-width:24px;"/>
                </g>
                <g transform="matrix(-0.0143509,-0.0582581,-0.058251,0.0143526,1093.1,1041.06)">
                    <path d="M10627.3,5507.79C10673.3,5497.7 10721,5497.7 10767.1,5507.79" style="fill:none;fill-rule:nonzero;stroke:black;stroke-width:24px;"/>
                </g>
                <g transform="matrix(-0.0140827,0.0583235,0.0583165,0.0140844,442.012,-210.007)">
                    <path d="M10661.7,5596.88C10672.6,5587.77 10688.5,5587.77 10699.5,5596.88" style="fill:none;fill-rule:nonzero;stroke:black;stroke-width:24px;"/>
                </g>
                <g transform="matrix(-0.0567745,-0.0193876,-0.0193853,0.0567813,1314.02,387.635)">
                    <path d="M10515.1,5516.9C10526.1,5507.8 10541.9,5507.8 10552.9,5516.9" style="fill:none;fill-rule:nonzero;stroke:black;stroke-width:24px;"/>
                </g>
                <g transform="matrix(0.0414734,0.0433537,0.0433485,-0.0414784,-63.141,266.749)">
                    <path d="M10531.2,5455.02C10577.2,5444.93 10624.9,5444.93 10671,5455.02" style="fill:none;fill-rule:nonzero;stroke:black;stroke-width:24px;"/>
                </g>
                <g transform="matrix(0.0599928,0,0,0.06,-22.9992,179.38)">
                    <path d="M10674,5403L10672,5404L10663,5404L10659,5402L10649,5396" style="fill:none;fill-rule:nonzero;stroke:black;stroke-width:24px;"/>
                </g>
                <g transform="matrix(0.0525796,-0.0288915,-0.028888,-0.052586,212.43,1096.15)">
                    <path d="M10671.8,5406.44C10684.1,5406.19 10696.3,5406.19 10708.5,5406.44" style="fill:none;fill-rule:nonzero;stroke:black;stroke-width:24px;"/>
                </g>
                <g transform="matrix(-0.0543733,0.0253536,0.0253506,0.0543799,579.208,497.87)">
                    <path d="M-36.298,14.506C-25.362,5.401 -9.485,5.401 1.451,14.506" style="fill:none;fill-rule:nonzero;stroke:black;stroke-width:24px;"/>
                </g>
                <g transform="matrix(0.0365958,-0.0475439,-0.0475382,-0.0366002,468.796,1175.98)">
                    <path d="M9931.3,5422.95C9977.36,5412.86 10025.1,5412.86 10071.1,5422.95" style="fill:none;fill-rule:nonzero;stroke:black;stroke-width:24px;"/>
                </g>
                <g transform="matrix(0.0599928,0,0,0.06,-22.9992,184)">
                    <path d="M9933,5366L9937,5366L9939,5367L9941,5366L9943,5366L9944,5365L9948,5363L9953,5360L9957,5356" style="fill:none;fill-rule:nonzero;stroke:black;stroke-width:24px;"/>
                </g>
                <g transform="matrix(0.00984552,0.0591865,0.0591794,-0.00984671,165.781,-42.3681)">
                    <path d="M10057,5392.34C10103,5382.25 10150.7,5382.25 10196.8,5392.34" style="fill:none;fill-rule:nonzero;stroke:black;stroke-width:24px;"/>
                </g>
                <g transform="matrix(-0.0359889,-0.0480051,-0.0479993,0.0359932,583.335,497.515)">
                    <path d="M-36.298,14.506C-25.362,5.401 -9.485,5.401 1.451,14.506" style="fill:none;fill-rule:nonzero;stroke:black;stroke-width:24px;"/>
                </g>
                <g transform="matrix(0.0581926,0.0145877,0.0145859,-0.0581997,-84.9436,670.364)">
                    <path d="M10076.9,5491.61C10082.9,5491.54 10088.8,5491.54 10094.8,5491.61" style="fill:none;fill-rule:nonzero;stroke:black;stroke-width:24px;"/>
                </g>
                <g transform="matrix(0.0249123,0.0545825,0.0545759,-0.0249153,544.683,508.388)">
                    <path d="M-1081.82,445.977C-735.972,112.027 -187.753,112.027 158.092,445.977" style="fill:none;fill-rule:nonzero;stroke:black;stroke-width:24px;"/>
                </g>
                <g transform="matrix(-0.00320217,0.0599145,0.0599072,0.00320256,163.971,-359.325)">
                    <path d="M9134.44,8412L12731.6,8412" style="fill:none;fill-rule:nonzero;stroke:black;stroke-width:24px;"/>
                </g>
                <g transform="matrix(0.0565648,0.0199914,-0.019989,0.0565716,633.172,205.959)">
                    <path d="M135.737,110.12C115.866,42.637 49.436,0 -20.192,10.039C-89.82,20.077 -141.5,79.742 -141.5,150.091" style="fill:none;fill-rule:nonzero;stroke:black;stroke-width:24px;"/>
                </g>
                <g transform="matrix(-0.0199974,0.0565686,0.0565618,0.0199998,310.093,-413.061)">
                    <path d="M8082.98,8374L12088,8374" style="fill:none;fill-rule:nonzero;stroke:black;stroke-width:24px;"/>
                </g>
                <g transform="matrix(0,0.06,0.0599928,0,221.291,-159.56)">
                    <path d="M10260.5,6040C10342.5,6040 10409,6106.48 10409,6188.5C10409,6270.52 10342.5,6337 10260.5,6337C10178.5,6337 10112,6270.52 10112,6188.5C10112,6106.48 10178.5,6040 10260.5,6040" style="fill:none;fill-rule:nonzero;stroke:black;stroke-width:24px;"/>
                </g>
            </g>
        </g>
    </g>
</svg>
