<?xml version="1.0" encoding="UTF-8" standalone="no"?>
<!DOCTYPE svg PUBLIC "-//W3C//DTD SVG 1.1//EN" "http://www.w3.org/Graphics/SVG/1.1/DTD/svg11.dtd">
<svg width="100%" height="100%" viewBox="0 0 82 35" version="1.1" xmlns="http://www.w3.org/2000/svg" xmlns:xlink="http://www.w3.org/1999/xlink" xml:space="preserve" xmlns:serif="http://www.serif.com/" style="fill-rule:evenodd;clip-rule:evenodd;stroke-linejoin:round;stroke-miterlimit:2;">
    <g transform="matrix(1,0,0,-1,2.83465,34.0157)">
        <path d="M78.313,2.835L78.313,31.181C78.313,32.736 77.033,34.016 75.478,34.016L0,34.016C-1.555,34.016 -2.835,32.736 -2.835,31.181L-2.835,2.835C-2.835,1.28 -1.555,0 0,0L75.478,0C77.033,0 78.313,1.28 78.313,2.835Z" style="fill:none;fill-rule:nonzero;stroke:black;stroke-width:0.1px;"/>
    </g>
    <g transform="matrix(1,0,0,-1,2.83465,34.0157)">
        <rect x="52.801" y="14.74" width="17.008" height="4.535" style="fill:none;fill-rule:nonzero;stroke:black;stroke-width:0.1px;stroke-linecap:round;stroke-miterlimit:4;"/>
    </g>
    <g transform="matrix(1,0,0,-1,2.83465,34.0157)">
        <rect x="5.669" y="14.74" width="17.008" height="4.535" style="fill:none;fill-rule:nonzero;stroke:black;stroke-width:0.1px;stroke-linecap:round;stroke-miterlimit:4;"/>
    </g>
    <g transform="matrix(1,0,0,-1,2.83465,34.0157)">
        <path d="M30.652,17.008C30.652,13.12 33.851,9.921 37.739,9.921C41.627,9.921 44.826,13.12 44.826,17.008C44.826,20.895 41.627,24.094 37.739,24.094C33.851,24.094 30.652,20.895 30.652,17.008Z" style="fill:none;fill-rule:nonzero;stroke:black;stroke-width:0.1px;stroke-linecap:round;stroke-miterlimit:4;"/>
    </g>
</svg>
