<?xml version="1.0" encoding="UTF-8" standalone="no"?>
<!DOCTYPE svg PUBLIC "-//W3C//DTD SVG 1.1//EN" "http://www.w3.org/Graphics/SVG/1.1/DTD/svg11.dtd">
<svg width="100%" height="100%" viewBox="0 0 89 36" version="1.1" xmlns="http://www.w3.org/2000/svg" xmlns:xlink="http://www.w3.org/1999/xlink" xml:space="preserve" xmlns:serif="http://www.serif.com/" style="fill-rule:evenodd;clip-rule:evenodd;stroke-linejoin:round;stroke-miterlimit:2;">
    <g>
        <g transform="matrix(1,0,0,-1,17.8515,35.6621)">
            <path d="M0,0L69.264,0C70.116,0 70.816,0.701 70.816,1.552C70.816,2.14 70.482,2.68 69.956,2.942L64.745,5.538L18.578,22.733C17.124,23.57 15.401,23.814 13.772,23.414C13.497,23.347 13.21,23.487 13.094,23.745C13.045,23.854 12.995,23.961 12.943,24.068C12.821,24.324 12.898,24.633 13.127,24.8C13.888,25.355 14.52,26.068 14.979,26.89L15.096,27.11L15.123,27.189L15.127,27.266L15.113,27.337L15.082,27.401C14.952,27.608 14.817,27.811 14.678,28.012L14.631,28.065L14.571,28.106L14.498,28.132L14.415,28.138L14.167,28.116C13.231,28.014 12.328,27.711 11.52,27.227C11.277,27.081 10.962,27.13 10.775,27.343C10.696,27.432 10.616,27.52 10.536,27.607C10.343,27.815 10.326,28.134 10.496,28.361C11.059,29.115 11.453,29.983 11.649,30.904L11.696,31.148L11.699,31.231L11.68,31.306L11.645,31.37L11.597,31.423C11.412,31.581 11.223,31.736 11.031,31.887L10.97,31.924L10.901,31.945L10.824,31.949L10.743,31.93L10.512,31.836C9.648,31.462 8.874,30.906 8.245,30.206C8.056,29.995 7.74,29.949 7.498,30.097C7.397,30.159 7.295,30.22 7.192,30.279C6.947,30.421 6.837,30.721 6.932,30.988C7.248,31.875 7.368,32.82 7.284,33.757L7.257,34.005L7.235,34.085L7.196,34.151L7.143,34.202L7.082,34.238C6.858,34.335 6.632,34.427 6.404,34.515L6.335,34.532L6.262,34.532L6.188,34.513L6.116,34.471L5.923,34.313C5.207,33.701 4.632,32.942 4.237,32.087C4.119,31.83 3.83,31.693 3.556,31.763C3.441,31.793 3.325,31.821 3.209,31.847C2.933,31.91 2.74,32.164 2.752,32.447C2.793,33.388 2.629,34.326 2.272,35.198L2.174,35.426L2.129,35.497L2.072,35.548L2.007,35.581L1.937,35.598C1.695,35.624 1.452,35.646 1.208,35.662L1.137,35.658L1.067,35.637L1.002,35.596L0.945,35.535L0.808,35.327C0.304,34.532 -0.022,33.637 -0.147,32.704C-0.185,32.423 -0.42,32.207 -0.703,32.193C-0.821,32.187 -0.94,32.18 -1.058,32.171C-1.341,32.15 -1.601,32.336 -1.673,32.61C-1.911,33.521 -2.344,34.369 -2.941,35.097L-3.103,35.286L-3.167,35.34L-3.237,35.372L-3.309,35.385L-3.38,35.38C-3.619,35.334 -3.858,35.283 -4.095,35.227L-4.162,35.202L-4.222,35.161L-4.273,35.103L-4.309,35.028L-4.379,34.789C-4.626,33.881 -4.674,32.929 -4.518,32.001C-4.471,31.721 -4.632,31.446 -4.899,31.349C-5.01,31.308 -5.122,31.266 -5.232,31.223C-5.496,31.12 -5.799,31.221 -5.948,31.461C-6.445,32.262 -7.109,32.945 -7.894,33.464L-8.104,33.597L-8.181,33.63L-8.257,33.64L-8.33,33.631L-8.396,33.605C-8.611,33.491 -8.824,33.371 -9.035,33.248L-9.091,33.205L-9.137,33.148L-9.168,33.077L-9.18,32.995L-9.177,32.746C-9.145,31.805 -8.91,30.882 -8.488,30.04C-8.361,29.787 -8.433,29.476 -8.66,29.305C-8.754,29.234 -8.848,29.161 -8.941,29.087C-9.163,28.91 -9.482,28.917 -9.696,29.104C-10.406,29.722 -11.241,30.179 -12.145,30.443L-12.385,30.509L-12.468,30.518L-12.544,30.505L-12.611,30.475L-12.667,30.431C-12.839,30.257 -13.007,30.081 -13.172,29.901L-13.213,29.843L-13.24,29.775L-13.249,29.698L-13.236,29.616L-13.159,29.379C-12.852,28.489 -12.355,27.677 -11.704,26.997C-11.508,26.792 -11.485,26.474 -11.651,26.244C-11.72,26.148 -11.789,26.05 -11.856,25.952C-12.015,25.718 -12.322,25.631 -12.582,25.746C-13.442,26.127 -14.376,26.318 -15.317,26.304L-15.566,26.296L-15.648,26.28L-15.716,26.245L-15.771,26.197L-15.812,26.138C-15.925,25.922 -16.034,25.704 -16.138,25.483L-16.16,25.416L-16.166,25.343L-16.152,25.267L-16.116,25.192L-15.973,24.988C-15.416,24.229 -14.702,23.598 -13.879,23.141C-13.632,23.003 -13.516,22.706 -13.607,22.437C-13.645,22.324 -13.681,22.211 -13.717,22.098C-13.8,21.827 -14.068,21.653 -14.349,21.687C-15.284,21.797 -16.232,21.704 -17.128,21.414L-17.363,21.333L-17.437,21.293L-17.492,21.24L-17.53,21.177L-17.552,21.109C-19.339,11.481 -12.887,2.087 -3.258,0.3C-2.183,0.1 -1.093,0 0,0Z" style="fill:none;fill-rule:nonzero;stroke:black;stroke-width:0.1px;"/>
        </g>
        <g transform="matrix(1,0,0,-1,17.8515,35.6621)">
            <path d="M-7.087,17.852C-7.087,13.964 -3.888,10.765 0,10.765C3.888,10.765 7.087,13.964 7.087,17.852C7.087,21.739 3.888,24.938 0,24.938C-3.888,24.938 -7.087,21.739 -7.087,17.852Z" style="fill:none;fill-rule:nonzero;stroke:black;stroke-width:0.1px;stroke-linecap:round;stroke-miterlimit:4;"/>
        </g>
    </g>
</svg>
