<?xml version="1.0" encoding="UTF-8" standalone="no"?>
<!DOCTYPE svg PUBLIC "-//W3C//DTD SVG 1.1//EN" "http://www.w3.org/Graphics/SVG/1.1/DTD/svg11.dtd">
<svg width="100%" height="100%" viewBox="0 0 81 66" version="1.1" xmlns="http://www.w3.org/2000/svg" xmlns:xlink="http://www.w3.org/1999/xlink" xml:space="preserve" xmlns:serif="http://www.serif.com/" style="fill-rule:evenodd;clip-rule:evenodd;stroke-linejoin:round;stroke-miterlimit:2;">
    <g transform="matrix(1,0,0,-1,30.712,65.3982)">
        <path d="M-6.895,15.827L-9.16,17.531L-6.434,21.155L-4.169,19.451L-2.465,21.717L2.066,18.309L0.362,16.044L2.627,14.34L-0.099,10.715L-2.364,12.419L-7.476,5.623L0,0L40.084,0C40.975,-0 41.815,0.419 42.35,1.131L49.678,10.874L36.086,21.097L33.359,17.473L26.11,22.925L19.976,14.77C19.041,13.527 17.25,13.273 16.007,14.208L-10.272,33.973C-11.514,34.908 -11.768,36.7 -10.833,37.942L-4.699,46.098L-11.948,51.55L-9.222,55.175L-22.815,65.398L-30.143,55.655C-30.678,54.944 -30.848,54.02 -30.601,53.165L-19.482,14.653L-12.007,9.031L-6.895,15.827Z" style="fill:none;fill-rule:nonzero;stroke:black;stroke-width:0.1px;"/>
    </g>
</svg>
