0
SECTION
2
HEADER
9
$INSUNITS
70
4
9
$ACADVER
1
AC1014
9
$HANDSEED
5
FFFF
0
ENDSEC
0
SECTION
2
TABLES
0
TABLE
2
VPORT
5
8
100
AcDbSymbolTable
0
ENDTAB
0
TABLE
2
LTYPE
5
5
100
AcDbSymbolTable
0
LTYPE
5
14
100
AcDbSymbolTableRecord
100
AcDbLinetypeTableRecord
2
BYBLOCK
70
0
0
LTYPE
5
15
100
AcDbSymbolTableRecord
100
AcDbLinetypeTableRecord
2
BYLAYER
70
0
0
ENDTAB
0
TABLE
2
LAYER
5
2
100
AcDbSymbolTable
70
2
0
LAYER
5
50
100
AcDbSymbolTableRecord
100
AcDbLayerTableRecord
2
0
70
0
6
CONTINUOUS
0
ENDTAB
0
TABLE
2
STYLE
5
3
100
AcDbSymbolTable
70
1
0
STYLE
5
11
100
AcDbSymbolTableRecord
100
AcDbTextStyleTableRecord
2
STANDARD
70
0
0
ENDTAB
0
TABLE
2
VIEW
5
6
100
AcDbSymbolTable
70
0
0
ENDTAB
0
TABLE
2
UCS
5
7
100
AcDbSymbolTable
70
0
0
ENDTAB
0
TABLE
2
APPID
5
9
100
AcDbSymbolTable
70
2
0
APPID
5
12
100
AcDbSymbolTableRecord
100
AcDbRegAppTableRecord
2
ACAD
70
0
0
ENDTAB
0
TABLE
2
DIMSTYLE
5
A
100
AcDbSymbolTable
70
1
0
ENDTAB
0
TABLE
2
BLOCK_RECORD
5
1
100
AcDbSymbolTable
70
1
0
BLOCK_RECORD
5
1F
100
AcDbSymbolTableRecord
100
AcDbBlockTableRecord
2
*MODEL_SPACE
0
BLOCK_RECORD
5
1B
100
AcDbSymbolTableRecord
100
AcDbBlockTableRecord
2
*PAPER_SPACE
0
ENDTAB
0
ENDSEC
0
SECTION
2
BLOCKS
0
BLOCK
5
20
100
AcDbEntity
100
AcDbBlockBegin
2
*MODEL_SPACE
0
ENDBLK
5
21
100
AcDbEntity
100
AcDbBlockEnd
0
BLOCK
5
1C
100
AcDbEntity
100
AcDbBlockBegin
2
*PAPER_SPACE
0
ENDBLK
5
1D
100
AcDbEntity
100
AcDbBlockEnd
0
ENDSEC
0
SECTION
2
ENTITIES
0
LWPOLYLINE
5
100
100
AcDbEntity
8
OUTER_PROFILES
100
AcDbPolyline
90
12
70
1
43
0.0
10
-3.8632074809462136
20
1.3234924447469938
42
-0.23168735962771089
10
-4.2499999337764018
20
2.1134142789141377
10
-4.2499999337764018
20
10.486585721085858
42
-0.231687359627711
10
-3.8632074809462145
20
11.276507555253001
42
-0.1665433616551093
10
6.6223591055347697e-08
20
12.6
10
31.500000066223599
20
12.599999999999998
42
-0.16654336165510955
10
35.363207613393413
20
11.276507555253001
42
-0.23168735962770998
10
35.750000066223599
20
10.486585721085858
10
35.750000066223599
20
2.1134142789141386
42
-0.23168735962771075
10
35.363207613393413
20
1.3234924447469947
42
-0.16654336165510955
10
31.500000066223599
20
-3.3306690738754696e-15
10
-1.7763568394002505e-14
20
-3.3306690738754696e-15
42
-0.16654335895429834
0
LWPOLYLINE
5
101
100
AcDbEntity
8
INTERIOR_PROFILES
100
AcDbPolyline
90
60
70
1
43
0.0
10
30.634985118213358
20
7.7437859357587833
42
0.29621349496210092
10
30.682152242234928
20
7.7710178875095357
10
30.8669919773461
20
8.1337862934735128
42
-0.41421356237310381
10
30.934241828542497
20
8.1556370946959547
10
31.297010234506473
20
7.9707973595847816
42
0.29621349496206056
10
31.351175779045942
20
7.9764903877213484
10
31.667586483104373
20
8.2327147237998517
42
-0.41421356237307166
10
31.737909800729707
20
8.2253234452794945
10
31.994134136808206
20
7.9089127412210747
42
0.29621349496209509
10
32.045932387136183
20
7.892082469459111
10
32.439203774909146
20
7.9974592202191417
42
-0.41421356237312185
10
32.500441018478725
20
7.9621038811598162
10
32.605817769238755
20
7.5688324933868518
42
0.29621349496207733
10
32.646292337301198
20
7.5323890286122204
10
33.048424213084367
20
7.4686975965296485
42
-0.41421356237312612
10
33.089986906862109
20
7.4114914562478793
10
33.026295474779538
20
7.0093595804647171
42
0.29621349496209964
10
33.048447940058544
20
6.9596043288154332
10
33.389908049275597
20
6.7378575411158277
42
-0.41421356237308959
10
33.404609625922113
20
6.668692060967806
10
33.182862838222512
20
6.327231951750754
42
0.29621349496204746
10
33.182862838222505
20
6.2727680482492554
10
33.404609625922113
20
5.931307939032199
42
-0.41421356237313101
10
33.38990804927559
20
5.8621424588841755
10
33.048447940058537
20
5.6403956711845709
42
0.29621349496207605
10
33.026295474779538
20
5.5906404195352879
10
33.089986906862109
20
5.1885085437521274
42
-0.41421356237308121
10
33.048424213084367
20
5.1313024034703574
10
32.646292337301198
20
5.0676109713877837
42
0.29621349496208216
10
32.605817769238755
20
5.0311675066131523
10
32.500441018478725
20
4.6378961188401906
42
-0.41421356237308854
10
32.439203774909146
20
4.6025407797808624
10
32.04593238713619
20
4.707917530540894
42
0.2962134949620876
10
31.99413413680821
20
4.6910872587789347
10
31.737909800729703
20
4.3746765547205131
42
-0.4142135623730539
10
31.667586483104365
20
4.3672852762001542
10
31.351175779045942
20
4.6235096122786548
42
0.29621349496208688
10
31.29701023450647
20
4.6292026404152251
10
30.934241828542493
20
4.4443629053040539
42
-0.41421356237310963
10
30.8669919773461
20
4.4662137065264931
10
30.682152242234928
20
4.828982112490471
42
0.29621349496207683
10
30.634985118213361
20
4.8562140642412235
10
30.228398595402581
20
4.8349057674942966
42
-0.41421356237308599
10
30.175850320852703
20
4.8822204464198782
10
30.154542024105776
20
5.2888069692306559
42
0.29621349496208904
10
30.12252894484531
20
5.3328691927433693
10
29.74242680870432
20
5.4787767324480345
42
-0.41421356237308898
10
29.71366618485672
20
5.5433741512501564
10
29.859573724561383
20
5.9234762873911526
42
0.29621349496208188
10
29.848250042295849
20
5.9767500239277451
10
29.560355405282923
20
6.2646446609406734
42
-0.41421356237309043
10
29.56035540528292
20
6.3353553390593298
10
29.848250042295849
20
6.6232499760722616
42
0.29621349496208188
10
29.859573724561383
20
6.6765237126088541
10
29.713666184856727
20
7.0566258487498494
42
-0.41421356237307916
10
29.74242680870432
20
7.1212232675519749
10
30.12252894484531
20
7.2671308072566365
42
0.2962134949620791
10
30.154542024105776
20
7.3111930307693482
10
30.175850320852703
20
7.7177795535801321
42
-0.4142135623730957
10
30.228398595402584
20
7.7650942325057102
0
LWPOLYLINE
5
102
100
AcDbEntity
8
INTERIOR_PROFILES
100
AcDbPolyline
90
60
70
1
43
0.0
10
-0.86501488178664987
20
7.7437859357587673
42
0.29621349496209154
10
-0.81784775776508334
20
7.7710178875095206
10
-0.6330080226539031
20
8.1337862934734968
42
-0.41421356237306384
10
-0.56575817145751173
20
8.1556370946959404
10
-0.2029897654935289
20
7.9707973595847648
42
0.29621349496206906
10
-0.14882422095406073
20
7.9764903877213325
10
0.16758648310436608
20
8.2327147237998357
42
-0.41421356237307749
10
0.23790980072970336
20
8.2253234452794786
10
0.49413413680820006
20
7.908912741221056
42
0.2962134949620765
10
0.5459323871361742
20
7.8920824694590941
10
0.93920377490914031
20
7.9974592202191257
42
-0.41421356237311213
10
1.0004410184787191
20
7.9621038811598002
10
1.1058177692387505
20
7.5688324933868358
42
0.29621349496206806
10
1.1462923373011904
20
7.5323890286122053
10
1.5484242130843617
20
7.4686975965296316
42
-0.41421356237312201
10
1.5899869068621062
20
7.4114914562478624
10
1.5262954747795332
20
7.0093595804647002
42
0.29621349496208366
10
1.5484479400585389
20
6.9596043288154172
10
1.8899080492755922
20
6.7378575411158126
42
-0.41421356237308415
10
1.9046096259221121
20
6.6686920609677909
10
1.6828628382225022
20
6.3272319517507363
42
0.2962134949620584
10
1.6828628382225013
20
6.2727680482492367
10
1.9046096259221088
20
5.9313079390321812
42
-0.41421356237311935
10
1.8899080492755882
20
5.8621424588841586
10
1.5484479400585371
20
5.640395671184554
42
0.29621349496207561
10
1.5262954747795328
20
5.590640419535271
10
1.5899869068621031
20
5.1885085437521088
42
-0.41421356237310791
10
1.5484242130843584
20
5.1313024034703405
10
1.1462923373011931
20
5.0676109713877686
42
0.29621349496208316
10
1.1058177692387505
20
5.0311675066131372
10
1.0004410184787211
20
4.6378961188401719
42
-0.41421356237308493
10
0.93920377490914309
20
4.6025407797808446
10
0.54593238713617642
20
4.707917530540878
42
0.29621349496208216
10
0.49413413680820106
20
4.691087258778917
10
0.23790980072970086
20
4.3746765547204971
42
-0.41421356237304796
10
0.16758648310436511
20
4.3672852762001355
10
-0.14882422095406245
20
4.623509612278637
42
0.29621349496208677
10
-0.20298976549353295
20
4.6292026404152082
10
-0.56575817145751506
20
4.444362905304037
42
-0.41421356237311285
10
-0.6330080226539091
20
4.4662137065264762
10
-0.81784775776508511
20
4.8289821124904559
42
0.2962134949620589
10
-0.86501488178664765
20
4.8562140642412066
10
-1.2716014045974242
20
4.8349057674942806
42
-0.41421356237308365
10
-1.3241496791472973
20
4.8822204464198613
10
-1.3454579758942242
20
5.2888069692306399
42
0.29621349496208976
10
-1.3774710551546889
20
5.3328691927433525
10
-1.7575731912956885
20
5.4787767324480185
42
-0.41421356237306578
10
-1.7863338151432822
20
5.5433741512501395
10
-1.6404262754386196
20
5.9234762873911375
42
0.29621349496206334
10
-1.6517499577041519
20
5.9767500239277274
10
-1.9396445947170873
20
6.2646446609406601
42
-0.41421356237308354
10
-1.9396445947170873
20
6.3353553390593156
10
-1.6517499577041481
20
6.6232499760722465
42
0.29621349496207272
10
-1.6404262754386159
20
6.6765237126088373
10
-1.7863338151432795
20
7.0566258487498335
42
-0.41421356237306606
10
-1.7575731912956849
20
7.1212232675519571
10
-1.3774710551546865
20
7.2671308072566205
42
0.29621349496207738
10
-1.3454579758942233
20
7.311193030769334
10
-1.324149679147302
20
7.7177795535801135
42
-0.41421356237309515
10
-1.2716014045974267
20
7.7650942325056942
0
ENDSEC
0
SECTION
2
OBJECTS
0
DICTIONARY
5
C
100
AcDbDictionary
3
ACAD_GROUP
350
D
3
ACAD_MLINESTYLE
350
17
0
DICTIONARY
5
D
100
AcDbDictionary
0
DICTIONARY
5
1A
330
C
100
AcDbDictionary
0
DICTIONARY
5
17
100
AcDbDictionary
0
ENDSEC
0
EOF
