0
SECTION
2
HEADER
9
$INSUNITS
70
4
9
$ACADVER
1
AC1014
9
$HANDSEED
5
FFFF
0
ENDSEC
0
SECTION
2
TABLES
0
TABLE
2
VPORT
5
8
100
AcDbSymbolTable
0
ENDTAB
0
TABLE
2
LTYPE
5
5
100
AcDbSymbolTable
0
LTYPE
5
14
100
AcDbSymbolTableRecord
100
AcDbLinetypeTableRecord
2
BYBLOCK
70
0
0
LTYPE
5
15
100
AcDbSymbolTableRecord
100
AcDbLinetypeTableRecord
2
BYLAYER
70
0
0
ENDTAB
0
TABLE
2
LAYER
5
2
100
AcDbSymbolTable
70
2
0
LAYER
5
50
100
AcDbSymbolTableRecord
100
AcDbLayerTableRecord
2
0
70
0
6
CONTINUOUS
0
ENDTAB
0
TABLE
2
STYLE
5
3
100
AcDbSymbolTable
70
1
0
STYLE
5
11
100
AcDbSymbolTableRecord
100
AcDbTextStyleTableRecord
2
STANDARD
70
0
0
ENDTAB
0
TABLE
2
VIEW
5
6
100
AcDbSymbolTable
70
0
0
ENDTAB
0
TABLE
2
UCS
5
7
100
AcDbSymbolTable
70
0
0
ENDTAB
0
TABLE
2
APPID
5
9
100
AcDbSymbolTable
70
2
0
APPID
5
12
100
AcDbSymbolTableRecord
100
AcDbRegAppTableRecord
2
ACAD
70
0
0
ENDTAB
0
TABLE
2
DIMSTYLE
5
A
100
AcDbSymbolTable
70
1
0
ENDTAB
0
TABLE
2
BLOCK_RECORD
5
1
100
AcDbSymbolTable
70
1
0
BLOCK_RECORD
5
1F
100
AcDbSymbolTableRecord
100
AcDbBlockTableRecord
2
*MODEL_SPACE
0
BLOCK_RECORD
5
1B
100
AcDbSymbolTableRecord
100
AcDbBlockTableRecord
2
*PAPER_SPACE
0
ENDTAB
0
ENDSEC
0
SECTION
2
BLOCKS
0
BLOCK
5
20
100
AcDbEntity
100
AcDbBlockBegin
2
*MODEL_SPACE
0
ENDBLK
5
21
100
AcDbEntity
100
AcDbBlockEnd
0
BLOCK
5
1C
100
AcDbEntity
100
AcDbBlockBegin
2
*PAPER_SPACE
0
ENDBLK
5
1D
100
AcDbEntity
100
AcDbBlockEnd
0
ENDSEC
0
SECTION
2
ENTITIES
0
LWPOLYLINE
5
100
100
AcDbEntity
8
OUTER_PROFILES
100
AcDbPolyline
90
42
70
1
43
0.0
10
4.4858112402945851e-15
20
32
42
0.23570744390556195
10
-0.79917958212098328
20
31.601092335270486
10
-2.8299488128902128
20
28.901092335270487
42
0.6185060710477106
10
-2.0307692307692276
20
27.299999999999997
10
-1.3491464667688691
20
27.300000000000001
42
-0.99999999999999989
10
-1.3491464667688682
20
23.000000000000004
10
-6.7692307692307674
20
23
42
0.23570744390556159
10
-7.5684103513517531
20
22.601092335270486
10
-9.2991464667688675
20
20.300000000000004
10
-9.2991464667688675
20
17
10
-6.2991464667688701
20
17
10
-6.2991464667688701
20
18
10
-4.6991464667688687
20
18
10
-4.6991464667688687
20
17
10
-3.6991464667688723
20
17
10
-3.6991464667688723
20
15
10
-4.6991464667688687
20
15
10
-4.6991464667688687
20
14.000000000000002
10
-6.2991464667688701
20
14.000000000000002
10
-6.2991464667688701
20
15
10
-9.2991464667688675
20
15
10
-9.2991464667688675
20
11.700000000000001
10
-0.79917958212098572
20
0.39890766472951533
42
0.23570744390556167
10
6.9388939039072284e-17
20
6.9388939039072284e-16
10
28.287547198216217
20
-1.2490009027033011e-15
42
0.23570744390556272
10
29.086726780337209
20
0.398907664729517
10
37.586693664985084
20
11.700000000000001
10
37.586693664985084
20
15
10
34.586693664985091
20
15
10
34.586693664985091
20
14.000000000000002
10
32.98669366498509
20
14.000000000000002
10
32.98669366498509
20
15
10
31.986693664985086
20
15
10
31.986693664985086
20
17
10
32.98669366498509
20
17
10
32.98669366498509
20
18
10
34.586693664985091
20
18
10
34.586693664985091
20
17
10
37.586693664985084
20
17
10
37.586693664985084
20
20.300000000000004
10
29.086726780337205
20
31.601092335270486
42
0.2357074439055605
10
28.287547198216217
20
32
0
CIRCLE
5
101
100
AcDbEntity
8
INTERIOR_PROFILES
100
AcDbCircle
10
-9.3687735991081098
20
26.150000000000002
30
0
40
1.4999999999999991
210
0
220
0
230
-1
0
LWPOLYLINE
5
102
100
AcDbEntity
8
INTERIOR_PROFILES
100
AcDbPolyline
90
8
70
1
43
0.0
10
20.693773599108106
20
10.200000000000005
42
0.41421356237309509
10
21.693773599108109
20
9.2000000000000046
10
29.186693664985086
20
9.2000000000000028
42
0.41421356237309637
10
30.186693664985089
20
10.200000000000003
10
30.186693664985089
20
21.799999999999997
42
0.41421356237309509
10
29.186693664985089
20
22.799999999999997
10
21.693773599108109
20
22.799999999999997
42
0.41421356237309509
10
20.693773599108106
20
21.799999999999997
0
CIRCLE
5
103
100
AcDbEntity
8
INTERIOR_PROFILES
100
AcDbCircle
10
-9.3687735991081098
20
5.8499999999999979
30
0
40
1.5000000000000013
210
0
220
0
230
-1
0
LINE
5
104
100
AcDbEntity
8
BEND
100
AcDbLine
10
25.390233632046598
20
-4.4408920985006262e-15
30
9.9634689542442495e-15
11
25.390233632046598
21
31.999999999999996
31
9.9634689542442495e-15
0
LINE
5
105
100
AcDbEntity
8
BEND
100
AcDbLine
10
2.8973135661696148
20
-1.3322676295501878e-14
30
-1.3553669984688864e-15
11
2.8973135661696148
21
31.999999999999996
31
-1.3553669984688864e-15
0
LINE
5
106
100
AcDbEntity
8
BEND_EXTENT
100
AcDbLine
10
23.693773599108109
20
22.799999999999997
30
9.8537164080825964e-15
11
23.693773599108109
21
31.999999999999996
31
9.8537164080825964e-15
0
LINE
5
107
100
AcDbEntity
8
BEND_EXTENT
100
AcDbLine
10
4.5937735991081086
20
32
30
-1.4456954991550194e-15
11
4.5937735991081086
21
0
31
-1.4456954991550194e-15
0
LINE
5
108
100
AcDbEntity
8
BEND_EXTENT
100
AcDbLine
10
23.693773599108109
20
-4.4408920985006262e-15
30
9.8537164080825964e-15
11
23.693773599108109
21
9.2000000000000028
31
9.8537164080825964e-15
0
LINE
5
109
100
AcDbEntity
8
BEND_EXTENT
100
AcDbLine
10
1.2008535332311343
20
-1.3322676295501878e-14
30
7.104156393843065e-16
11
1.2008535332311343
21
31.999999999999996
31
7.104156393843065e-16
0
LINE
5
110
100
AcDbEntity
8
BEND_EXTENT
100
AcDbLine
10
27.086693664985088
20
32
30
1.0195607074949874e-14
11
27.086693664985088
21
22.799999999999997
31
1.0195607074949874e-14
0
LINE
5
111
100
AcDbEntity
8
BEND_EXTENT
100
AcDbLine
10
27.086693664985088
20
9.2000000000000028
30
1.0195607074949874e-14
11
27.086693664985088
21
0
31
1.0195607074949874e-14
0
ENDSEC
0
SECTION
2
OBJECTS
0
DICTIONARY
5
C
100
AcDbDictionary
3
ACAD_GROUP
350
D
3
ACAD_MLINESTYLE
350
17
0
DICTIONARY
5
D
100
AcDbDictionary
0
DICTIONARY
5
1A
330
C
100
AcDbDictionary
0
DICTIONARY
5
17
100
AcDbDictionary
0
ENDSEC
0
EOF
