0
SECTION
2
HEADER
9
$INSUNITS
70
4
9
$ACADVER
1
AC1014
9
$HANDSEED
5
FFFF
0
ENDSEC
0
SECTION
2
TABLES
0
TABLE
2
VPORT
5
8
100
AcDbSymbolTable
0
ENDTAB
0
TABLE
2
LTYPE
5
5
100
AcDbSymbolTable
0
LTYPE
5
14
100
AcDbSymbolTableRecord
100
AcDbLinetypeTableRecord
2
BYBLOCK
70
0
0
LTYPE
5
15
100
AcDbSymbolTableRecord
100
AcDbLinetypeTableRecord
2
BYLAYER
70
0
0
ENDTAB
0
TABLE
2
LAYER
5
2
100
AcDbSymbolTable
70
2
0
LAYER
5
50
100
AcDbSymbolTableRecord
100
AcDbLayerTableRecord
2
0
70
0
6
CONTINUOUS
0
ENDTAB
0
TABLE
2
STYLE
5
3
100
AcDbSymbolTable
70
1
0
STYLE
5
11
100
AcDbSymbolTableRecord
100
AcDbTextStyleTableRecord
2
STANDARD
70
0
0
ENDTAB
0
TABLE
2
VIEW
5
6
100
AcDbSymbolTable
70
0
0
ENDTAB
0
TABLE
2
UCS
5
7
100
AcDbSymbolTable
70
0
0
ENDTAB
0
TABLE
2
APPID
5
9
100
AcDbSymbolTable
70
2
0
APPID
5
12
100
AcDbSymbolTableRecord
100
AcDbRegAppTableRecord
2
ACAD
70
0
0
ENDTAB
0
TABLE
2
DIMSTYLE
5
A
100
AcDbSymbolTable
70
1
0
ENDTAB
0
TABLE
2
BLOCK_RECORD
5
1
100
AcDbSymbolTable
70
1
0
BLOCK_RECORD
5
1F
100
AcDbSymbolTableRecord
100
AcDbBlockTableRecord
2
*MODEL_SPACE
0
BLOCK_RECORD
5
1B
100
AcDbSymbolTableRecord
100
AcDbBlockTableRecord
2
*PAPER_SPACE
0
ENDTAB
0
ENDSEC
0
SECTION
2
BLOCKS
0
BLOCK
5
20
100
AcDbEntity
100
AcDbBlockBegin
2
*MODEL_SPACE
0
ENDBLK
5
21
100
AcDbEntity
100
AcDbBlockEnd
0
BLOCK
5
1C
100
AcDbEntity
100
AcDbBlockBegin
2
*PAPER_SPACE
0
ENDBLK
5
1D
100
AcDbEntity
100
AcDbBlockEnd
0
ENDSEC
0
SECTION
2
ENTITIES
0
LWPOLYLINE
5
100
100
AcDbEntity
8
OUTER_PROFILES
100
AcDbPolyline
90
30
70
1
43
0.0
10
2.9143354396410438e-15
20
41.000000000000014
42
-0.41421356237309453
10
-0.99999999999999556
20
42.000000000000014
10
-0.99999999999999134
20
49
42
-0.41421356237309637
10
1.3322676295501878e-14
20
50
10
35.100000000000016
20
50
10
35.10000000000003
20
98.185840131753963
42
-0.41421356237309509
10
36.10000000000003
20
99.185840131753977
10
62.100000000000009
20
99.185840131753963
42
-0.41421356237308982
10
63.100000000000009
20
98.185840131753977
10
63.100000000000009
20
50
10
69.099999999999994
20
50
42
-0.41421356237309509
10
70.099999999999994
20
49
10
70.099999999999994
20
42.000000000000014
42
-0.41421356237309509
10
69.099999999999994
20
41.000000000000014
10
64.099999999999994
20
41
42
0.41421356237309509
10
63.100000000000009
20
40
10
63.100000000000009
20
9.9999999999999982
42
0.41421356237309437
10
64.099999999999994
20
9
10
69.099999999999994
20
8.9999999999999982
42
-0.41421356237309509
10
70.099999999999994
20
7.9999999999999982
10
70.099999999999994
20
0.99999999999999845
42
-0.41421356237309559
10
69.099999999999994
20
0
10
0
20
-3.6082248300317588e-15
42
-0.4142135623730937
10
-0.99999999999999556
20
0.99999999999999645
10
-0.99999999999999556
20
7.9999999999999982
42
-0.41421356237309509
10
4.4408920985006262e-15
20
8.9999999999999982
10
34.09999999999998
20
9
42
0.41421356237309637
10
35.099999999999987
20
10
10
35.099999999999987
20
39.999999999999993
42
0.41421356237309637
10
34.099999999999987
20
41.000000000000007
0
LWPOLYLINE
5
101
100
AcDbEntity
8
INTERIOR_PROFILES
100
AcDbPolyline
90
8
70
1
43
0.0
10
53.199500000000022
20
81.585840131753969
10
53.199500000000022
20
73.605840131753965
42
-0.41421356237309509
10
52.199500000000029
20
72.605840131753965
10
41.679500000000033
20
72.605840131753965
42
-0.41421356237309509
10
40.679500000000033
20
73.605840131753965
10
40.679500000000033
20
81.585840131753969
42
-0.41421356237309509
10
41.679500000000033
20
82.585840131753955
10
52.199500000000029
20
82.585840131753955
42
-0.41421356237309509
0
CIRCLE
5
102
100
AcDbEntity
8
INTERIOR_PROFILES
100
AcDbCircle
10
-37.749500000000026
20
83.050840119298229
30
0
40
1.4999999999999991
210
0
220
0
230
-1
0
LWPOLYLINE
5
103
100
AcDbEntity
8
INTERIOR_PROFILES
100
AcDbPolyline
90
4
70
1
43
0.0
10
59.100000000000001
20
97.085840131753969
10
59.100000000000001
20
88.48584013175396
10
39.099999999999994
20
88.48584013175396
10
39.099999999999994
20
97.085840131753969
0
CIRCLE
5
104
100
AcDbEntity
8
INTERIOR_PROFILES
100
AcDbCircle
10
-60.850000000000009
20
92.785840131753957
30
0
40
1.1999999999999922
210
0
220
0
230
-1
0
CIRCLE
5
105
100
AcDbEntity
8
INTERIOR_PROFILES
100
AcDbCircle
10
-37.349999999999994
20
92.785840131753972
30
0
40
1.1999999999999877
210
0
220
0
230
-1
0
CIRCLE
5
106
100
AcDbEntity
8
INTERIOR_PROFILES
100
AcDbCircle
10
-37.749500000000026
20
72.700840119298235
30
0
40
1.4999999999999991
210
0
220
0
230
-1
0
LINE
5
107
100
AcDbEntity
8
BEND
100
AcDbLine
10
35.100000000000023
20
66.089380098815468
30
2.1890285443007319e-14
11
63.099999999999987
21
66.089380098815468
31
2.3576651291527201e-14
0
LINE
5
108
100
AcDbEntity
8
BEND
100
AcDbLine
10
35.10000000000003
20
51.696460032938482
30
1.5469732868181461e-15
11
63.100000000000009
21
51.696460032938482
31
-9.7329938537439513e-17
0
LINE
5
109
100
AcDbEntity
8
BEND_EXTENT
100
AcDbLine
10
63.100000000000009
20
50
30
-3.7488569469372914e-16
11
35.100000000000016
21
50
31
1.2694175306618575e-15
0
LINE
5
110
100
AcDbEntity
8
BEND_EXTENT
100
AcDbLine
10
63.100000000000009
20
64.392920065876979
30
1.2670234844651859e-14
11
35.100000000000016
21
64.392920065876979
31
1.4314538070007446e-14
0
LINE
5
111
100
AcDbEntity
8
BEND_EXTENT
100
AcDbLine
10
35.10000000000003
20
53.392920065876972
30
5.4327538730061942e-15
11
63.100000000000023
21
53.392920065876972
31
3.7884506476506075e-15
0
LINE
5
112
100
AcDbEntity
8
BEND_EXTENT
100
AcDbLine
10
35.10000000000003
20
67.785840131753957
30
2.9857660414759641e-14
11
63.100000000000009
21
67.785840131753957
31
3.7095141386405306e-14
0
ENDSEC
0
SECTION
2
OBJECTS
0
DICTIONARY
5
C
100
AcDbDictionary
3
ACAD_GROUP
350
D
3
ACAD_MLINESTYLE
350
17
0
DICTIONARY
5
D
100
AcDbDictionary
0
DICTIONARY
5
1A
330
C
100
AcDbDictionary
0
DICTIONARY
5
17
100
AcDbDictionary
0
ENDSEC
0
EOF
