0
SECTION
2
HEADER
9
$INSUNITS
70
4
9
$ACADVER
1
AC1014
9
$HANDSEED
5
FFFF
0
ENDSEC
0
SECTION
2
TABLES
0
TABLE
2
VPORT
5
8
100
AcDbSymbolTable
0
ENDTAB
0
TABLE
2
LTYPE
5
5
100
AcDbSymbolTable
0
LTYPE
5
14
100
AcDbSymbolTableRecord
100
AcDbLinetypeTableRecord
2
BYBLOCK
70
0
0
LTYPE
5
15
100
AcDbSymbolTableRecord
100
AcDbLinetypeTableRecord
2
BYLAYER
70
0
0
ENDTAB
0
TABLE
2
LAYER
5
2
100
AcDbSymbolTable
70
2
0
LAYER
5
50
100
AcDbSymbolTableRecord
100
AcDbLayerTableRecord
2
0
70
0
6
CONTINUOUS
0
ENDTAB
0
TABLE
2
STYLE
5
3
100
AcDbSymbolTable
70
1
0
STYLE
5
11
100
AcDbSymbolTableRecord
100
AcDbTextStyleTableRecord
2
STANDARD
70
0
0
ENDTAB
0
TABLE
2
VIEW
5
6
100
AcDbSymbolTable
70
0
0
ENDTAB
0
TABLE
2
UCS
5
7
100
AcDbSymbolTable
70
0
0
ENDTAB
0
TABLE
2
APPID
5
9
100
AcDbSymbolTable
70
2
0
APPID
5
12
100
AcDbSymbolTableRecord
100
AcDbRegAppTableRecord
2
ACAD
70
0
0
ENDTAB
0
TABLE
2
DIMSTYLE
5
A
100
AcDbSymbolTable
70
1
0
ENDTAB
0
TABLE
2
BLOCK_RECORD
5
1
100
AcDbSymbolTable
70
1
0
BLOCK_RECORD
5
1F
100
AcDbSymbolTableRecord
100
AcDbBlockTableRecord
2
*MODEL_SPACE
0
BLOCK_RECORD
5
1B
100
AcDbSymbolTableRecord
100
AcDbBlockTableRecord
2
*PAPER_SPACE
0
ENDTAB
0
ENDSEC
0
SECTION
2
BLOCKS
0
BLOCK
5
20
100
AcDbEntity
100
AcDbBlockBegin
2
*MODEL_SPACE
0
ENDBLK
5
21
100
AcDbEntity
100
AcDbBlockEnd
0
BLOCK
5
1C
100
AcDbEntity
100
AcDbBlockBegin
2
*PAPER_SPACE
0
ENDBLK
5
1D
100
AcDbEntity
100
AcDbBlockEnd
0
ENDSEC
0
SECTION
2
ENTITIES
0
LWPOLYLINE
5
100
100
AcDbEntity
8
OUTER_PROFILES
100
AcDbPolyline
90
20
70
1
43
0.0
10
22.020337063846512
20
11.000000000000005
42
-0.41421356237309509
10
23.020337063846515
20
12.000000000000007
10
47.020337063846526
20
12.000000000000007
42
-0.41421356237309509
10
48.020337063846519
20
11.000000000000005
10
48.020337063846519
20
1.0000000000000053
42
-0.41421356237309509
10
47.020337063846526
20
5.134781488891349e-15
10
0
20
3.1918911957973251e-15
42
-0.41421356237309431
10
-0.99999999999999545
20
1.0000000000000051
10
-0.99999999999999656
20
5.3608692583080986
42
-0.26794919243112314
10
-0.49999999999999611
20
6.2268946620925405
42
0.87697646299275811
10
-1.2588190451025205
20
8.058845892166044
42
-0.26794919243112203
10
-2.2247448713915881
20
8.3176649372685603
10
-10.702438661763939
20
16.795358727640902
42
-0.41421356237309875
10
-10.702438661763933
20
18.209572290014009
10
10.510764773832497
20
39.422775725610428
42
-0.4142135623730982
10
11.924978336205594
20
39.422775725610421
10
18.334523779156086
20
33.013230282659933
42
-0.19891236737965801
10
18.627416997969537
20
32.30612350147338
10
18.627416997969537
20
3.7000000000000055
10
22.020337063846512
20
3.7000000000000046
0
LWPOLYLINE
5
101
100
AcDbEntity
8
INTERIOR_PROFILES
100
AcDbPolyline
90
60
70
1
43
0.0
10
32.894192402905844
20
5.9646446609406762
42
-0.41421356237310425
10
32.894192402905844
20
6.0353553390593317
10
33.18208703991877
20
6.3232499760722618
42
0.29621349496207877
10
33.193410722184311
20
6.3765237126088543
10
33.047503182479645
20
6.7566258487498505
42
-0.41421356237309742
10
33.076263806327241
20
6.8212232675519759
10
33.456365942468231
20
6.9671308072566376
42
0.29621349496208904
10
33.488379021728697
20
7.0111930307693502
10
33.509687318475628
20
7.4177795535801287
42
-0.41421356237308887
10
33.562235593025498
20
7.4650942325057112
10
33.968822115836275
20
7.4437859357587834
42
0.2962134949620876
10
34.015989239857845
20
7.4710178875095377
10
34.200828974969014
20
7.8337862934735121
42
-0.41421356237310381
10
34.268078826165414
20
7.8556370946959557
10
34.630847232129391
20
7.6707973595847818
42
0.29621349496206056
10
34.685012776668856
20
7.6764903877213495
10
35.001423480727283
20
7.9327147237998519
42
-0.41421356237309598
10
35.071746798352621
20
7.9253234452794956
10
35.327971134431124
20
7.6089127412210731
42
0.2962134949620705
10
35.379769384759101
20
7.5920824694591111
10
35.773040772532063
20
7.6974592202191436
42
-0.41421356237309848
10
35.834278016101642
20
7.6621038811598154
10
35.939654766861679
20
7.2688324933868529
42
0.29621349496207106
10
35.980129334924115
20
7.2323890286122214
10
36.382261210707284
20
7.1686975965296496
42
-0.41421356237308965
10
36.423823904485026
20
7.1114914562478804
10
36.360132472402455
20
6.7093595804647173
42
0.29621349496209631
10
36.382284937681462
20
6.6596043288154352
10
36.723745046898507
20
6.4378575411158288
42
-0.41421356237307544
10
36.73844662354503
20
6.3686920609678062
10
36.516699835845429
20
6.0272319517507542
42
0.29621349496208083
10
36.516699835845429
20
5.972768048249252
10
36.73844662354503
20
5.6313079390321992
42
-0.41421356237309509
10
36.723745046898514
20
5.5621424588841766
10
36.382284937681455
20
5.340395671184571
42
0.29621349496207283
10
36.360132472402455
20
5.2906404195352899
10
36.423823904485026
20
4.8885085437521276
42
-0.41421356237307205
10
36.382261210707284
20
4.8313024034703584
10
35.980129334924115
20
4.7676109713877848
42
0.29621349496205163
10
35.939654766861679
20
4.7311675066131542
10
35.834278016101642
20
4.3378961188401908
42
-0.41421356237307155
10
35.77304077253207
20
4.3025407797808608
10
35.379769384759101
20
4.407917530540896
42
0.29621349496208493
10
35.327971134431124
20
4.391087258778934
10
35.071746798352621
20
4.0746765547205115
42
-0.41421356237309304
10
35.001423480727283
20
4.0672852762001561
10
34.685012776668863
20
4.3235096122786558
42
0.29621349496208882
10
34.630847232129391
20
4.3292026404152262
10
34.268078826165414
20
4.1443629053040523
42
-0.41421356237309942
10
34.200828974969014
20
4.1662137065264933
10
34.015989239857845
20
4.5289821124904721
42
0.2962134949620982
10
33.968822115836275
20
4.5562140642412245
10
33.562235593025505
20
4.5349057674942985
42
-0.41421356237310836
10
33.509687318475628
20
4.5822204464198801
10
33.488379021728697
20
4.9888069692306569
42
0.29621349496208904
10
33.456365942468231
20
5.0328691927433695
10
33.076263806327241
20
5.1787767324480338
42
-0.41421356237309509
10
33.047503182479645
20
5.2433741512501575
10
33.193410722184304
20
5.6234762873911546
42
0.29621349496207611
10
33.18208703991877
20
5.6767500239277453
0
LWPOLYLINE
5
102
100
AcDbEntity
8
INTERIOR_PROFILES
100
AcDbPolyline
90
4
70
1
43
0.0
10
0.32842712474620228
20
14.249774315369342
10
14.470562748477159
20
28.391909939100287
10
8.3894444302728495
20
34.473028257304598
10
-5.7526911934581015
20
20.330892633573651
0
CIRCLE
5
103
100
AcDbEntity
8
INTERIOR_PROFILES
100
AcDbCircle
10
3.9495689014324054
20
16.052896607395038
30
0
40
1.0499999999999998
210
0
220
0
230
-1
0
CIRCLE
5
104
100
AcDbEntity
8
INTERIOR_PROFILES
100
AcDbCircle
10
-12.667440456451462
20
32.6699059652789
30
0
40
1.0499999999999998
210
0
220
0
230
-1
0
LINE
5
105
100
AcDbEntity
8
BEND
100
AcDbLine
10
-0.99999999999999645
20
5.3964600329384922
30
-1.1149004950385666e-15
11
18.62741699796954
21
5.3964600329384922
31
-2.9659841258329272e-15
0
LINE
5
106
100
AcDbEntity
8
BEND
100
AcDbLine
10
20.323877030908022
20
0
30
-2.1253817157524577e-15
11
20.323877030908022
21
3.7000000000000033
31
-2.1253817157524577e-15
0
LINE
5
107
100
AcDbEntity
8
BEND_EXTENT
100
AcDbLine
10
22.020337063846512
20
3.7000000000000046
30
-2.1174465741408551e-15
11
22.020337063846512
21
4.4408920985006262e-15
31
-2.1174465741408551e-15
0
LINE
5
108
100
AcDbEntity
8
BEND_EXTENT
100
AcDbLine
10
18.627416997969537
20
0
30
-2.1333168573640598e-15
11
18.627416997969537
21
3.7000000000000046
31
-2.1333168573640598e-15
0
LINE
5
109
100
AcDbEntity
8
BEND_EXTENT
100
AcDbLine
10
18.627416997969537
20
3.7000000000000046
30
-2.1333168573640598e-15
11
-0.99999999999999645
21
3.7000000000000046
31
-2.2251235196637235e-15
0
LINE
5
110
100
AcDbEntity
8
BEND_EXTENT
100
AcDbLine
10
-0.99999999999999645
20
7.092920065876978
30
-3.0577907881325905e-15
11
18.62741699796954
21
7.0929200658769798
31
-5.1864301750832399e-15
0
ENDSEC
0
SECTION
2
OBJECTS
0
DICTIONARY
5
C
100
AcDbDictionary
3
ACAD_GROUP
350
D
3
ACAD_MLINESTYLE
350
17
0
DICTIONARY
5
D
100
AcDbDictionary
0
DICTIONARY
5
1A
330
C
100
AcDbDictionary
0
DICTIONARY
5
17
100
AcDbDictionary
0
ENDSEC
0
EOF
